<?xml version="1.0" encoding="utf-8"?>
<!-- Generator: Adobe Illustrator 16.0.4, SVG Export Plug-In . SVG Version: 6.00 Build 0)  -->
<!DOCTYPE svg PUBLIC "-//W3C//DTD SVG 1.1//EN" "http://www.w3.org/Graphics/SVG/1.1/DTD/svg11.dtd">
<svg version="1.1" id="Layer_1" xmlns="http://www.w3.org/2000/svg" xmlns:xlink="http://www.w3.org/1999/xlink" x="0px" y="0px"
	 width="1024px" height="1024px" viewBox="0 0 1024 1024" style="enable-background:new 0 0 1024 1024;" xml:space="preserve">
<style type="text/css">
<![CDATA[
	.st0{fill:#1D1D1B;}
	.st1{fill:none;}
	.st2{fill:#A0AAB7;}
]]>
</style>
<rect class="st1" width="1024" height="1024"/>
<g>
	<path class="st0" d="M1023,1v1022H1V1H1023 M1024,0H0v1024h1024V0L1024,0z"/>
</g>
<path class="st2" d="M776.8,438.6c-2.5-2.5-3.1-4.4-3.1-6.6c-0.1-4.4-0.6-9.2-1.5-14.7c-11.7-72.5-80.2-125-156.9-119.8l-17.5-6.8
	c-23-27.4-53.1-40.3-89.1-38.5c-20.8,1.1-39.8,8.2-56.2,21.1c-2.6,2-4.6,2.4-7.8,1.6l-3.2-0.8c-7-1.8-14.9-3.8-23.4-4.2
	c-41-1.6-73.3,15.2-93.3,48.9c-1.4,2.4-2.6,3.5-6.8,4.1c-5,0.8-10.2,1.6-15.3,3.2c-34.7,10.7-57.8,34.1-66.5,67.8
	c-3.7,14.1-2.4,27.3-0.7,38.4c0.6,4.1-0.2,5.1-0.6,5.5c-6.3,7.4-10.7,16.3-13.5,27.5c-8.5,34.6,1.4,66.7,28.4,92.7
	c3.7,3.6,7.2,7.3,10.5,11.1c26.9,30.8,62,43.5,101.7,36.7l18.5,6.6c15.1,21.8,36.4,36,63.4,42.1c17.8,4.1,35.8,3.4,54.6-2.3
	l11.8,7.5l2.1,2.1c12.8,11.9,28,21,45.1,27c1.7,0.6,3.1,1.4,4.7,3.8c7.8,11.2,15.7,22.3,23.9,33.2c3.9,5.3,8.1,10.5,12.4,15.7
	l24.5,30.5l16.5-39.9c3.5-8.5,7-16.9,10.3-25.3c1.2-3,2.5-4.2,5.8-5c14.2-3.5,26.1-10.4,35.2-20.4c1.6-1.7,4-3.8,9.6-5.8
	c36-13,58.1-38.9,63.7-73.8l6.1-24.8c0.3-0.2,0.6-0.4,0.8-0.7c21.9-18,33.4-40.8,34.3-67.8C806.3,482,796.7,458.5,776.8,438.6z
	 M779.7,507.7c-0.5,16.8-6.7,31-18.7,43.1c-7.1-9-18.5-21.7-33.9-34.1c0.7-15.9-1.6-52.3-33.3-72.9c-6-3.9-13.9-2.2-17.8,3.8
	c-3.9,6-2.2,13.9,3.8,17.8c12.9,8.4,18.3,21.7,20.4,33.1c-3.8-2.1-7.8-4.2-12-6.1c-35.2-14.1-75-3.9-76.7-3.5
	c-6.9,1.8-10.9,8.8-9.1,15.7c1.8,6.9,8.9,11,15.7,9.1c0.3-0.1,33.1-8.5,59.9,2.2c35.5,16.4,59,45.4,66.9,56.2l-6,24.6
	c-4.3,26.9-19.8,44.8-47.2,54.7c-8.5,3.1-14.8,7.1-20,12.8c-5.6,6.2-13.1,10.5-22.3,12.7c-11.4,2.8-19.3,9.7-23.6,20.4
	c-3.2,8.1-6.6,16.2-10.1,24.7c-3.1-3.8-6.1-7.6-9-11.5c-8-10.7-15.8-21.6-23.4-32.5c-4.5-6.5-10.2-10.9-17.4-13.4
	c-13.7-4.8-25.9-12.1-35.7-21.3l-5.7-3.9c14.2-7.7,35.3-18.7,56.7-27.9c31-13.4,53.6,1.9,54.5,2.5c5.7,4.2,13.8,2.9,17.9-2.9
	c4.2-5.7,2.9-13.8-2.9-17.9c-1.4-1-34.9-24.7-79.8-5.3c-35.8,15.5-69.6,34.8-76.1,38.6c-0.7,0.2-1.5,0.4-2.5,0.6l-2.8,0.7
	c-13.2,4-26.7,4.6-40.1,1.5c-21.6-4.9-38.4-16.6-49.8-34.6l-2.4-3.7l-17.8-6.4c2.2-5.8,5-13.2,8.1-21.1c0.1-0.2,0.2-0.4,0.3-0.7
	c4.5-11.4,9.6-23.8,14.4-34.3c19.2-38.4,58.4-39.3,60-39.3c7.1,0,12.9-5.7,12.9-12.8c0-7.1-5.7-12.8-12.9-12.8
	c-2.1,0-49.8,0.5-77.8,44.4c-8.6-24.7-28.1-48.7-67.4-58.5c-7-1.7-13.9,2.5-15.6,9.4c-1.7,6.9,2.5,13.8,9.4,15.5
	c60.3,15,54.2,70.2,52.6,80.5c-4.1,10.5-7.7,19.9-9.9,25.9c-29.3,3.9-53.5-5.6-73.8-28.8c-3.8-4.4-7.9-8.7-12.1-12.8
	c-20.7-19.9-27.6-42.2-21.3-68.2c1.8-7.1,4.4-12.6,8-16.9c5.9-6.8,8.1-15.6,6.4-26.1c-1.3-8.5-2.3-18.5,0.2-28.1
	c6.6-25.3,22.7-41.5,49.2-49.7c3.9-1.2,7.9-1.7,12-2.4c11.1-1.7,19.2-7,24.7-16.4c15.3-25.8,38.1-37.5,70.2-36.3
	c5.8,0.2,12,1.8,18,3.4l3.3,0.8c11,2.8,21.1,0.7,30-6.3c12.2-9.6,26.2-14.8,41.7-15.7c23.4-1.2,43.2,5.5,59.5,20.5
	c-11.8,7.3-28.2,18.9-40.8,33.1c-16.9-3.7-54.7-9.6-80.8,3.4c-6.3,3.2-8.9,10.9-5.7,17.2c2.3,4.5,6.8,7.1,11.5,7.1
	c1.9,0,3.9-0.4,5.8-1.4c14.2-7.1,37.2-5.7,54-3.1c-0.5,1.3-1,2.6-1.4,3.9c-11.1,33.7-15.9,69.8-16.1,71.3
	c-0.9,7,12.2,14.5,12.8,14.5c6.4,0,11.9-4.7,12.7-11.2c0-0.3,4.6-35.2,15-66.6c1.4-4.2,3.7-8.3,6.8-12.4c0.3-0.4,0.7-0.8,1-1.3
	c12.2-15.7,33.9-30.1,46.6-37.4l20.6,8l2.9-0.2c64.5-5.4,122.7,37.8,132.4,98.1c0.7,4.3,1.1,8,1.2,11.3c0.2,9.1,3.8,17.2,10.7,24
	C773.3,471.4,780.4,488.5,779.7,507.7z"/>
</svg>
