<?xml version="1.0" encoding="utf-8"?>
<!-- Generator: Adobe Illustrator 19.1.0, SVG Export Plug-In . SVG Version: 6.00 Build 0)  -->
<svg version="1.1" id="Layer_1" xmlns="http://www.w3.org/2000/svg" xmlns:xlink="http://www.w3.org/1999/xlink" x="0px" y="0px"
	 viewBox="0 0 1024 1024" style="enable-background:new 0 0 1024 1024;" xml:space="preserve">
<g>
	<polygon style="fill:#FFFFFF;" points="270.9,354.6 157.6,354.6 157.6,301.4 444.1,301.4 444.1,354.6 330.8,354.6 330.8,682.5 
		270.9,682.5 	"/>
	<g>
		<path style="fill:#FFFFFF;" d="M809.8,628.3C809.8,628.3,809.8,628.3,809.8,628.3l-5.4-6.2l-12.2-13.6l-15.2-16.9l-5.3-5.9
			l-44.3-49.9l-42.6,35.9l43.7,48.8l37.6,42l58.3,64.5l42-35.3L809.8,628.3z"/>
		<path style="fill:#FFFFFF;" d="M735.9,656.1l-25.7-28.5c-13.4,4.1-28,6.4-43.9,6.4c-79,0-134.5-60.5-134.5-141.3
			c0-80.7,55.5-141.3,134.5-141.3c79,0,134.5,60.5,134.5,141.3c0,29.3-6.4,55.3-18.5,76.9l24.2,26.8l12.8,14.3l2.9,3.2
			C847.8,581,863,539.4,863,492.7C863,380,775.6,297,666.3,297c-109.3,0-196.7,83-196.7,195.6c0,112.7,87.4,195.6,196.7,195.6
			c29.7,0,57.8-6,82.9-17.3l-1.1-1.3L735.9,656.1z"/>
	</g>
</g>
</svg>
