<?xml version="1.0" encoding="utf-8"?>
<!-- Generator: Adobe Illustrator 19.1.0, SVG Export Plug-In . SVG Version: 6.00 Build 0)  -->
<svg version="1.1" id="Layer_1" xmlns="http://www.w3.org/2000/svg" xmlns:xlink="http://www.w3.org/1999/xlink" x="0px" y="0px"
	 viewBox="556 -257.2 1748.8 1096.5" style="enable-background:new 556 -257.2 1748.8 1096.5;" xml:space="preserve">
<style type="text/css">
	.st0{fill:#FFFFFF;}
	.st1{fill:#00D1C0;}
</style>
<polygon class="st0" points="556,-247.1 556,-204.8 884.8,-204.8 884.8,778.5 933.1,778.5 933.1,-204.8 1261.9,-204.8 
	1261.9,-247.1 "/>
<polygon class="st1" points="2113.4,617.6 1952,450.2 1918.8,480.3 2080.2,647.8 2110.3,679.4 2264.2,839.3 2297.4,809.1 
	2145,650.8 "/>
<g>
	<path class="st0" d="M2043.2,673.8c-74,47.4-164.1,75-263.2,75c-271.5,0-475.1-205.1-475.1-481.1s203.6-481.1,475.1-481.1
		s475.1,205.1,475.1,481.1c0,124.7-40.8,234.1-111.2,317.2l2.3,2.4l29.5,30.9c80-91.8,129.1-212.1,129.1-350.5
		c0.1-303.2-235.2-524.9-524.8-524.9c-289.5,0-524.8,221.7-524.8,524.9s235.3,524.9,524.9,524.9c108.8,0,210.7-30.8,294-86.4
		l-26.9-28.2L2043.2,673.8z"/>
</g>
</svg>
