<?xml version="1.0" encoding="utf-8"?>
<!-- Generator: Adobe Illustrator 17.0.0, SVG Export Plug-In . SVG Version: 6.00 Build 0)  -->
<!DOCTYPE svg PUBLIC "-//W3C//DTD SVG 1.1//EN" "http://www.w3.org/Graphics/SVG/1.1/DTD/svg11.dtd">
<svg version="1.1" id="logo-500_xA0_Изображение_1_"
	 xmlns="http://www.w3.org/2000/svg" xmlns:xlink="http://www.w3.org/1999/xlink" x="0px" y="0px" width="30px" height="30px"
	 viewBox="0 0 30 30" enable-background="new 0 0 30 30" xml:space="preserve">
<g>
	<polygon fill="#FFFFFF" points="21.114,6.044 21.114,9.633 17.524,9.633 17.524,10.531 21.114,10.531 21.114,14.121 22.011,14.121 
		22.011,10.531 25.601,10.531 25.601,9.633 22.011,9.633 22.011,6.044 	"/>
	<g>
		<defs>
			<rect id="SVGID_1_" x="4.399" y="6.043" width="21.203" height="17.913"/>
		</defs>
		<clipPath id="SVGID_2_">
			<use xlink:href="#SVGID_1_"  overflow="visible"/>
		</clipPath>
		<path clip-path="url(#SVGID_2_)" fill="#FFFFFF" d="M15.975,6.044h-5.548c-2.487,0-4.828,1.884-4.828,4.066
			c0,2.231,1.695,4.031,4.226,4.031c0.176,0,0.347-0.004,0.514-0.016c-0.164,0.315-0.281,0.669-0.281,1.036
			c0,0.62,0.333,1.123,0.755,1.533c-0.319,0-0.626,0.009-0.962,0.009c-3.081,0-5.452,1.962-5.452,3.997
			c0,2.003,2.599,3.257,5.68,3.257c3.513,0,5.452-1.993,5.452-3.997c0-1.606-0.474-2.569-1.939-3.605
			c-0.502-0.355-1.461-1.218-1.461-1.726c0-0.594,0.17-0.887,1.065-1.587c0.918-0.716,1.567-1.724,1.567-2.897
			c0-1.395-0.622-2.755-1.789-3.204h1.76L15.975,6.044z M10.688,13.576c-0.02,0-0.04,0-0.06,0c-1.43-0.043-2.788-1.599-3.035-3.476
			C7.35,8.25,8.277,6.828,9.672,6.828c0.021,0,0.041,0,0.062,0.001c1.429,0.043,2.788,1.549,3.035,3.426
			C13.012,12.105,12.083,13.576,10.688,13.576 M10.068,23.071c-2.129,0-3.667-1.348-3.667-2.967c0-1.573,1.875-2.885,3.982-2.885
			c0.018,0,0.036,0,0.055,0c0.497,0.005,0.96,0.085,1.38,0.222c1.156,0.803,1.985,1.258,2.219,2.174
			c0.044,0.185,0.068,0.376,0.068,0.572C14.105,21.806,13.062,23.071,10.068,23.071"/>
	</g>
</g>
</svg>
