<?xml version="1.0" encoding="utf-8"?>
<!-- Generator: Adobe Illustrator 17.0.0, SVG Export Plug-In . SVG Version: 6.00 Build 0)  -->
<svg version="1.2" baseProfile="tiny" id="Слой_1"
	 xmlns="http://www.w3.org/2000/svg" xmlns:xlink="http://www.w3.org/1999/xlink" x="0px" y="0px" width="18px" height="18px"
	 viewBox="0 0 18 18" xml:space="preserve">
<g>
	<path fill="none" d="M6.763,1.787c-2.743,0-4.978,2.234-4.978,4.977c0,2.742,2.235,4.976,4.978,4.976
		c2.742,0,4.977-2.234,4.977-4.976C11.74,4.021,9.505,1.787,6.763,1.787z"/>
	<path fill="#FFFFFF" d="M13.419,6.762c0-3.677-2.981-6.658-6.658-6.658c-3.676,0-6.654,2.978-6.658,6.652v0.012
		c0.003,3.675,2.982,6.651,6.658,6.651C10.438,13.419,13.419,10.44,13.419,6.762z M6.763,11.74c-2.743,0-4.978-2.234-4.978-4.976
		c0-2.743,2.235-4.977,4.978-4.977c2.742,0,4.977,2.234,4.977,4.977C11.74,9.506,9.505,11.74,6.763,11.74z"/>
	<path fill="#FFFFFF" d="M11.259,13.521l4.375,4.375h0.001l2.262-2.26l-4.375-4.377C13.067,11.845,11.845,13.068,11.259,13.521z"/>
</g>
<g>
</g>
<g>
</g>
<g>
</g>
<g>
</g>
<g>
</g>
<g>
</g>
</svg>
