<?xml version="1.0" encoding="utf-8"?>
<!-- Generator: Adobe Illustrator 17.0.0, SVG Export Plug-In . SVG Version: 6.00 Build 0)  -->
<!DOCTYPE svg PUBLIC "-//W3C//DTD SVG 1.1//EN" "http://www.w3.org/Graphics/SVG/1.1/DTD/svg11.dtd">
<svg version="1.1" id="Слой_1" xmlns="http://www.w3.org/2000/svg" xmlns:xlink="http://www.w3.org/1999/xlink" x="0px" y="0px"
	 width="10.82px" height="10.906px" viewBox="0 0 10.82 10.906" enable-background="new 0 0 10.82 10.906" xml:space="preserve">
<g>
	<defs>
		<rect id="SVGID_1_" x="0.002" y="-0.002" width="10.816" height="10.823"/>
	</defs>
	<clipPath id="SVGID_2_">
		<use xlink:href="#SVGID_1_"  overflow="visible"/>
	</clipPath>
	<path clip-path="url(#SVGID_2_)" fill="#C6C6C6" d="M2.587,1.275c-0.362-0.353-0.944-0.353-1.298,0c-0.362,0.36-0.362,0.94,0,1.306
		c0.354,0.352,0.936,0.352,1.298,0C2.942,2.215,2.942,1.635,2.587,1.275 M10.561,6.711l-3.845,3.851
		c-0.346,0.346-0.906,0.346-1.254,0c0,0-4.102-4.101-4.787-4.79c-0.69-0.683-0.69-3.477-0.666-4.35
		c0.025-0.888,0.409-1.424,1.412-1.424c1.004,0,3.655-0.029,4.354,0.675c0.7,0.696,4.786,4.783,4.786,4.783
		C10.904,5.808,10.904,6.367,10.561,6.711"/>
</g>
</svg>
