<?xml version="1.0" encoding="utf-8"?>
<!-- Generator: Adobe Illustrator 17.0.0, SVG Export Plug-In . SVG Version: 6.00 Build 0)  -->
<!DOCTYPE svg PUBLIC "-//W3C//DTD SVG 1.1//EN" "http://www.w3.org/Graphics/SVG/1.1/DTD/svg11.dtd">
<svg version="1.1" id="logo-500_xA0_Изображение_1_"
	 xmlns="http://www.w3.org/2000/svg" xmlns:xlink="http://www.w3.org/1999/xlink" x="0px" y="0px" width="20px" height="30px"
	 viewBox="0 0 20 30" enable-background="new 0 0 20 30" xml:space="preserve">
<g>
	<defs>
		<rect id="SVGID_1_" x="4.867" y="8.582" width="10.265" height="12.837"/>
	</defs>
	<clipPath id="SVGID_2_">
		<use xlink:href="#SVGID_1_"  overflow="visible"/>
	</clipPath>
	<path clip-path="url(#SVGID_2_)" fill="#FFFFFF" d="M8.059,19.056c1.646,0,3.679,0.271,3.715-1.597
		c0.037-1.949-2.089-1.597-3.714-1.597L8.059,19.056z M8.06,11.954v1.667c1.502,0,2.913,0.198,2.913-1.43
		c0-1.507-1.597-1.259-2.914-1.259L8.06,11.954z M4.892,8.582h5.831c1.918,0,3.551,0.94,3.55,2.84
		c-0.002,1.586-0.576,2.204-1.757,2.901c0.101,0.084,0.777,0.285,1.005,0.397c0.363,0.179,0.577,0.361,0.817,0.604
		c0.669,0.681,0.794,1.303,0.794,2.371c0,2.478-2.397,3.724-4.705,3.724h-5.56L4.892,8.582z"/>
</g>
</svg>
