<?xml version="1.0" encoding="utf-8"?>
<!-- Generator: Adobe Illustrator 17.0.0, SVG Export Plug-In . SVG Version: 6.00 Build 0)  -->
<svg version="1.2" baseProfile="tiny" id="Слой_1"
	 xmlns="http://www.w3.org/2000/svg" xmlns:xlink="http://www.w3.org/1999/xlink" x="0px" y="0px" width="236px" height="30px"
	 viewBox="0 0 236 30" xml:space="preserve">
<g>
	<path fill="none" d="M120.691,6.892v16.217c0,1.175,0.371,2.27,1.812,2.27c1.441,0,1.812-1.095,1.812-2.27V6.892
		c0-1.175-0.371-2.27-1.812-2.27C121.062,4.622,120.691,5.717,120.691,6.892z"/>
	<path fill="none" d="M172.654,4.702v9.446h1.071c2.388,0,2.553-1.297,2.553-4.702c0-3.406-0.165-4.744-2.553-4.744H172.654z"/>
	<path fill="none" d="M92.198,25.298h1.07c2.389,0,2.553-1.135,2.553-4.541c0-3.405-0.164-4.703-2.553-4.703h-1.07V25.298z"/>
	<path fill="none" d="M191.759,4.702v9.446h1.071c2.388,0,2.553-1.297,2.553-4.702c0-3.406-0.165-4.744-2.553-4.744H191.759z"/>
	<polygon fill="none" points="211.235,5.108 211.153,5.108 209.959,17.959 212.43,17.959 	"/>
	<path fill="none" d="M26.441,6.892v16.217c0,1.175,0.37,2.27,1.811,2.27c1.442,0,1.812-1.095,1.812-2.27V6.892
		c0-1.175-0.37-2.27-1.812-2.27C26.811,4.622,26.441,5.717,26.441,6.892z"/>
	<path fill="#FFFFFF" d="M113.856,8.433v3.648h-2.553V0.568h-6.835v28.865h6.835V16.46h2.553v5.108c0,6.608,4.118,8.432,8.647,8.432
		c4.529,0,8.647-1.824,8.647-8.432V8.433c0-6.602-4.111-8.43-8.635-8.433h-0.023C117.967,0.003,113.856,1.83,113.856,8.433z
		 M124.315,6.892v16.217c0,1.175-0.371,2.27-1.812,2.27c-1.441,0-1.812-1.095-1.812-2.27V6.892c0-1.175,0.371-2.27,1.812-2.27
		C123.944,4.622,124.315,5.717,124.315,6.892z"/>
	<polygon fill="#FFFFFF" points="64.446,29.433 64.446,0.568 54.605,0.568 51.722,21.081 51.64,21.081 48.758,0.568 38.711,0.568 
		38.711,29.433 44.187,29.433 44.187,4.784 44.269,4.784 48.222,29.433 54.234,29.433 58.187,4.784 58.269,4.784 58.269,29.433 	"/>
	<path fill="#FFFFFF" d="M85.362,0.568v28.865h10.047c4.036,0,7.247-1.622,7.247-8.676c0-7.54-3.294-8.838-7.329-8.838h-3.129V0.568
		H85.362z M93.268,16.054c2.389,0,2.553,1.298,2.553,4.703c0,3.406-0.164,4.541-2.553,4.541h-1.07v-9.244H93.268z"/>
	<path fill="#FFFFFF" d="M19.605,8.433v13.135c0,6.608,4.118,8.432,8.647,8.432c4.53,0,8.647-1.824,8.647-8.432V8.433
		c0-6.602-4.11-8.43-8.635-8.433H28.24C23.716,0.003,19.605,1.83,19.605,8.433z M30.064,6.892v16.217c0,1.175-0.37,2.27-1.812,2.27
		c-1.441,0-1.811-1.095-1.811-2.27V6.892c0-1.175,0.37-2.27,1.811-2.27C29.694,4.622,30.064,5.717,30.064,6.892z"/>
	<polygon fill="#FFFFFF" points="0.5,0.568 0.5,29.433 7.335,29.433 7.335,14.798 7.418,14.798 11.535,29.433 18.288,29.433 
		13.677,13.298 18.247,0.568 11.741,0.568 7.418,13.663 7.335,13.663 7.335,0.568 	"/>
	<polygon fill="#FFFFFF" points="83.551,29.433 83.551,0.568 66.257,0.568 66.257,29.433 73.092,29.433 73.092,4.946 76.716,4.946 
		76.716,29.433 	"/>
	<polygon fill="#FFFFFF" points="164.666,4.946 164.666,0.567 150.501,0.567 150.501,29.432 164.666,29.432 164.666,25.054 
		157.337,25.054 157.337,15.648 164.419,15.648 164.419,11.27 157.337,11.27 157.337,4.946 	"/>
	<polygon fill="#FFFFFF" points="144.243,29.432 144.243,4.946 149.02,4.946 149.02,0.567 132.631,0.567 132.631,4.946 
		137.408,4.946 137.408,29.432 	"/>
	<path fill="#FFFFFF" d="M202.341,29.432h5.765l1.112-7.094h3.706l0.782,7.094h6.794l-3.788-28.865h-9.388L202.341,29.432z
		 M211.153,5.108h0.082l1.195,12.851h-2.471L211.153,5.108z"/>
	<path fill="#FFFFFF" d="M165.819,0.567v28.865h6.835V18.284h2.512c4.035,0,7.947-1.906,7.947-6.244V6.77
		c0-4.987-3.5-6.203-8.935-6.203H165.819z M176.278,9.446c0,3.405-0.165,4.702-2.553,4.702h-1.071V4.702h1.071
		C176.113,4.702,176.278,6.04,176.278,9.446z"/>
	<path fill="#FFFFFF" d="M184.924,0.567v28.865h6.835V18.284h2.512c4.035,0,7.947-1.906,7.947-6.244V6.77
		c0-4.987-3.5-6.203-8.935-6.203H184.924z M195.383,9.446c0,3.405-0.165,4.702-2.553,4.702h-1.071V4.702h1.071
		C195.218,4.702,195.383,6.04,195.383,9.446z"/>
	<path fill="#999999" d="M228.547,6.724c-0.245,0-0.326,0.051-0.641,0.051c-0.214,0-0.407-0.112-0.407-0.346
		c0-0.244,0.193-0.386,0.427-0.386c0.193,0,0.387,0.061,0.621,0.061c0.651,0,0.752-0.6,0.752-1.149c0-0.784-0.335-1.536-1.169-1.536
		c-1.058,0-1.333,0.874-1.333,1.586v3.133c0,0.875,0.722,1.435,1.638,1.435c0.966,0,1.363-0.611,1.363-1.496
		C229.798,7.182,229.187,6.724,228.547,6.724z"/>
	<path fill="#999999" d="M235.077,7.328c-0.002-3.743-3.037-6.778-6.781-6.778c-3.745,0-6.781,3.037-6.781,6.782
		s3.036,6.781,6.781,6.781c3.744,0,6.779-3.034,6.781-6.777V7.328z M228.597,10.122c-0.712,0-1.291-0.244-1.8-0.753v2.655h-0.814
		V5.199c0-1.343,0.824-2.136,2.136-2.136c1.129,0,2.096,0.59,2.096,1.841c0,0.874-0.499,1.2-1.241,1.505v0.02
		c0.997,0.163,1.841,0.58,1.841,1.76C230.815,9.512,229.767,10.122,228.597,10.122z"/>
	<path fill="#FFFFFF" d="M228.974,6.429v-0.02c0.742-0.305,1.241-0.631,1.241-1.505c0-1.251-0.967-1.841-2.096-1.841
		c-1.312,0-2.136,0.793-2.136,2.136v6.825h0.814V9.369c0.509,0.509,1.088,0.753,1.8,0.753c1.17,0,2.218-0.61,2.218-1.933
		C230.815,7.009,229.971,6.592,228.974,6.429z M228.435,9.573c-0.916,0-1.638-0.56-1.638-1.435V5.005
		c0-0.712,0.275-1.586,1.333-1.586c0.834,0,1.169,0.752,1.169,1.536c0,0.549-0.101,1.149-0.752,1.149
		c-0.234,0-0.428-0.061-0.621-0.061c-0.234,0-0.427,0.142-0.427,0.386c0,0.234,0.193,0.346,0.407,0.346
		c0.315,0,0.396-0.051,0.641-0.051c0.64,0,1.251,0.458,1.251,1.353C229.798,8.962,229.401,9.573,228.435,9.573z"/>
</g>
<g>
</g>
<g>
</g>
<g>
</g>
<g>
</g>
<g>
</g>
<g>
</g>
</svg>
