<?xml version="1.0" encoding="utf-8"?>
<!-- Generator: Adobe Illustrator 17.0.0, SVG Export Plug-In . SVG Version: 6.00 Build 0)  -->
<!DOCTYPE svg PUBLIC "-//W3C//DTD SVG 1.1//EN" "http://www.w3.org/Graphics/SVG/1.1/DTD/svg11.dtd">
<svg version="1.1" id="Слой_1" xmlns="http://www.w3.org/2000/svg" xmlns:xlink="http://www.w3.org/1999/xlink" x="0px" y="0px"
	 width="220px" height="30px" viewBox="0 0 220 30" enable-background="new 0 0 220 30" xml:space="preserve">
<g>
	<defs>
		<rect id="SVGID_1_" width="220" height="30"/>
	</defs>
	<clipPath id="SVGID_2_">
		<use xlink:href="#SVGID_1_"  overflow="visible"/>
	</clipPath>
	<path clip-path="url(#SVGID_2_)" fill="#FFFFFF" d="M17.788,29.433l-4.611-16.135l4.57-12.73h-6.506L6.918,13.663H6.835V0.568H0
		v28.865h6.835V14.798h0.083l4.117,14.635H17.788z M29.564,23.109c0,1.175-0.37,2.27-1.812,2.27c-1.441,0-1.811-1.095-1.811-2.27
		V6.892c0-1.175,0.37-2.27,1.811-2.27c1.442,0,1.812,1.095,1.812,2.27V23.109z M36.399,21.568V8.433C36.399,1.825,32.282,0,27.752,0
		c-4.529,0-8.647,1.825-8.647,8.433v13.135c0,6.608,4.118,8.432,8.647,8.432C32.282,30,36.399,28.176,36.399,21.568 M57.769,29.433
		h6.177V0.568h-9.841l-2.883,20.513H51.14L48.258,0.568H38.211v28.865h5.476V4.784h0.082l3.953,24.649h6.012l3.953-24.649h0.082
		V29.433z M76.216,29.433h6.835V0.568H65.757v28.865h6.835V4.946h3.624V29.433z M95.321,20.757c0,3.406-0.164,4.541-2.553,4.541
		h-1.07v-9.244h1.07C95.157,16.054,95.321,17.352,95.321,20.757 M102.156,20.757c0-7.54-3.294-8.838-7.329-8.838h-3.129V0.568
		h-6.836v28.865h10.047C98.945,29.433,102.156,27.811,102.156,20.757 M123.815,23.109c0,1.175-0.371,2.27-1.812,2.27
		s-1.812-1.095-1.812-2.27V6.892c0-1.175,0.371-2.27,1.812-2.27s1.812,1.095,1.812,2.27V23.109z M130.65,21.568V8.433
		c0-6.608-4.118-8.433-8.647-8.433s-8.647,1.825-8.647,8.433v3.648h-2.553V0.568h-6.835v28.865h6.835V16.46h2.553v5.108
		c0,6.608,4.118,8.432,8.647,8.432S130.65,28.176,130.65,21.568"/>
	<path clip-path="url(#SVGID_2_)" fill="#FFFFFF" d="M143.743,4.946h4.777V0.567h-16.389v4.379h4.777v24.486h6.835V4.946z
		 M150.001,29.432h14.165v-4.378h-7.329v-9.406h7.082V11.27h-7.082V4.946h7.329V0.567h-14.165V29.432z M175.778,9.446
		c0,3.405-0.165,4.702-2.553,4.702h-1.071V4.702h1.071C175.613,4.702,175.778,6.04,175.778,9.446 M182.613,12.04V6.77
		c0-4.987-3.5-6.203-8.935-6.203h-8.359v28.865h6.835V18.284h2.512C178.701,18.284,182.613,16.378,182.613,12.04 M194.883,9.446
		c0,3.405-0.165,4.702-2.553,4.702h-1.071V4.702h1.071C194.718,4.702,194.883,6.04,194.883,9.446 M201.718,12.04V6.77
		c0-4.987-3.5-6.203-8.935-6.203h-8.359v28.865h6.835V18.284h2.512C197.806,18.284,201.718,16.378,201.718,12.04 M211.93,17.959
		h-2.471l1.194-12.851h0.082L211.93,17.959z M220,29.432l-3.788-28.865h-9.388l-4.983,28.865h5.765l1.112-7.094h3.706l0.782,7.094
		H220z"/>
</g>
</svg>
