<?xml version="1.0" encoding="utf-8"?>
<!-- Generator: Adobe Illustrator 17.0.0, SVG Export Plug-In . SVG Version: 6.00 Build 0)  -->
<!DOCTYPE svg PUBLIC "-//W3C//DTD SVG 1.1//EN" "http://www.w3.org/Graphics/SVG/1.1/DTD/svg11.dtd">
<svg version="1.1" id="logo-500_xA0_Изображение_1_"
	 xmlns="http://www.w3.org/2000/svg" xmlns:xlink="http://www.w3.org/1999/xlink" x="0px" y="0px" width="20px" height="30px"
	 viewBox="0 0 20 30" enable-background="new 0 0 20 30" xml:space="preserve">
<g>
	<defs>
		<rect id="SVGID_1_" x="2.48" y="8.888" width="15.04" height="12.224"/>
	</defs>
	<clipPath id="SVGID_2_">
		<use xlink:href="#SVGID_1_"  overflow="visible"/>
	</clipPath>
	<path clip-path="url(#SVGID_2_)" fill="#FFFFFF" d="M17.52,10.335c-0.553,0.245-1.148,0.411-1.772,0.486
		c0.637-0.382,1.126-0.987,1.357-1.707c-0.597,0.353-1.257,0.61-1.96,0.748c-0.563-0.599-1.365-0.974-2.252-0.974
		c-1.704,0-3.086,1.382-3.086,3.086c0,0.242,0.027,0.477,0.08,0.703c-2.564-0.129-4.838-1.357-6.36-3.224
		c-0.265,0.456-0.418,0.986-0.418,1.551c0,1.071,0.545,2.016,1.373,2.569c-0.506-0.016-0.981-0.155-1.397-0.386
		c-0.001,0.013-0.001,0.026-0.001,0.039c0,1.495,1.064,2.742,2.475,3.026C5.3,16.322,5.028,16.36,4.746,16.36
		c-0.198,0-0.392-0.019-0.58-0.055c0.393,1.226,1.532,2.118,2.882,2.143c-1.056,0.828-2.386,1.321-3.832,1.321
		c-0.249,0-0.494-0.015-0.736-0.043c1.366,0.875,2.988,1.386,4.73,1.386c5.676,0,8.779-4.702,8.779-8.78
		c0-0.134-0.003-0.267-0.009-0.4C16.583,11.497,17.106,10.954,17.52,10.335"/>
</g>
</svg>
