<?xml version="1.0" encoding="utf-8"?>
<!-- Generator: Adobe Illustrator 19.2.0, SVG Export Plug-In . SVG Version: 6.00 Build 0)  -->
<svg version="1.1" id="Layer_1" xmlns="http://www.w3.org/2000/svg" xmlns:xlink="http://www.w3.org/1999/xlink" x="0px" y="0px"
	 viewBox="0 0 223 80" style="enable-background:new 0 0 223 80;" xml:space="preserve">
<style type="text/css">
	.st0{enable-background:new    ;}
	.st1{fill:#FFFFFF;}
</style>
<g class="st0">
	<path class="st1" d="M29.9,37.3c10.6,0,27.9-0.2,34.4,0.1c0.3,0,1.4-1,1.4-1.5c0-2.9,0-17-0.4-19.3c0-1.8-3.6-3.1-5.9-3.8
		c-3.6-1-4.3-1.7-4.3-2.5c0-1.1,1-1.9,3.2-1.9c4.4,0,8.8,0.3,12.9,0.3c4.2,0,8.7-0.4,10.9-0.4c2.2,0,3,0.9,3,1.8s-0.9,1.6-3.7,2.3
		c-4.4,1-5.4,2.5-5.5,5.1c-0.2,4-0.4,13.6-0.4,23.6c0,9.3,0,18.4,0.4,22.6c0.5,5.2,1.8,5.6,6.7,6.9c2.4,0.5,3.4,1.6,3.4,2.6
		c0,1.2-1.1,1.7-3.1,1.7c-2,0-7.2-0.3-11.2-0.3c-5.6,0-9.7,0.3-12.9,0.3c-2.6,0-3.8-0.8-3.8-1.6c0-1.1,1-2,3.4-2.7
		c5.6-1.3,6.4-2.5,6.8-7.1c0.4-3.3,0.8-12.3,0.4-16.4c-0.2-3.8-1.1-4-1.2-4c-16.2,0-33,0-35,0.3c-0.8,0-1.3,1.1-1.3,1.4
		c0,14.4,0.1,18.2,0.3,19.8c0.5,3.4,1.8,4.5,8.1,6.4c1.3,0.3,2.5,1.4,2.5,2.3c0,1.2-1,1.6-3.7,1.6c-3.1,0-6.1-0.3-10.8-0.3
		c-3.4,0-9.7,0.5-12.9,0.5c-2.4,0-3.4-0.4-3.4-1.6c0-1.2,1.2-2,3.2-2.6c5.5-1.4,6.4-2.9,6.6-7.5c0.3-4.7,0.3-18,0.3-33.5
		c0-8.1-0.2-12-0.6-13.5c-0.4-1.8-1.3-2.7-7.2-4.3c-1.2-0.3-2.4-1-2.4-2.2c0-1,1.4-1.6,3.4-1.6c6.2,0,10.1,0.4,13,0.4
		c3.3,0,4.8-0.3,8.6-0.3c1.7,0,2.9,0.6,2.9,1.8c0,0.9-1.4,1.7-2.7,2c-3.6,1.1-5.3,2.3-5.3,6.2c0,3.3,0.1,10.4,0,17.3
		C28.1,36.4,29,37.3,29.9,37.3z"/>
	<path class="st1" d="M138.5,52c0,8.2-3.3,14-7,17.3c-3.9,3.6-9.2,6.5-16.3,6.5c-6.4,0-12.5-2.6-17-7c-4.6-4.5-6.4-11.1-6.4-15.9
		c0-7.5,3.9-14.1,8.6-17.9c3.6-3,9.5-5.5,15.1-5.5C130.5,29.5,138.4,42.1,138.5,52z M106.7,37c-1.1,1.2-4.4,6-4.4,14.2
		c0,6,2,13.5,6.5,17.2c1.1,0.9,4.2,2.9,8.2,2.9c2.6,0,6-1.5,8.2-4.2c2.3-2.9,2.9-8.2,2.9-14.4c0-9.2-4.8-18.7-14-18.7
		C111.6,34,108.2,35.4,106.7,37z"/>
	<path class="st1" d="M173.7,53.3c-1.4,0-3.6,1.2-6.2,4.7c-3.7,4.4-6.1,8.4-9,12.1c-2.8,3.6-6.8,5.8-12.6,5.8c-3.2,0-4.8-0.8-4.8-2
		c0-0.8,1.4-1.5,2-1.7c2.5-0.8,4.1-1.1,6.7-4c3.6-4,6.1-7.8,8.9-11.3c2.8-3.7,3.6-4.4,5.7-6.4c0.2-0.1,0.2-0.4,0-0.6
		c-1.5-1.2-2.7-3.9-6-9c-1.9-3-3.3-3.4-5.5-3.4c-2,0-3.7,0.8-5.6,0.9c-0.4,0-1.2,0-1.8-0.9c-0.4-0.5-0.9-2-0.9-3.2
		c0-2.5,2.4-4.6,5.7-4.6c4.7,0,7.8,2.7,9.7,5.6c3.6,5.4,3.2,5.6,5.6,9.4c1.2,2,3.4,5.7,8.1,5.7c0.3,0,0.8-0.3,0.8-0.8
		c0-3,0-5.3-0.1-7c0-2.7,0.1-6.5-3-7.5c-1.3-0.3-3.3-1.3-3.3-2.6c0-0.9,1-1.8,2.6-1.8c0.8,0,5.1,0.3,7.5,0.3c3.6,0,6.4-0.3,8.3-0.3
		c2.2,0,3.1,1,3.1,1.9c0,0.3-0.9,1.6-2.7,2c-3.6,0.9-4.1,2.2-4.2,3.4c0,0.9-0.2,5.2-0.2,11.5c0,0.4,0.5,0.8,0.8,0.8
		c4.1,0,6.2-1.9,7.8-3.8c2-2.4,3.9-6.2,6.9-10.7c2.5-3.6,5.7-6.2,9.6-6.2c3,0,4.8,1.6,4.8,3.9c0,1.1-0.6,3.1-1.3,3.9
		c-0.5,0.6-1.3,0.9-1.6,0.9c-1.5-0.2-2.5-0.9-4.5-0.9c-2.2,0-4.1,1.3-6.6,5.3c-2.3,3.4-4,5.7-5.3,7.1c-0.2,0.2-0.2,0.5,0,0.6
		c1.6,1.1,4,3.9,6.2,7.1c2.3,3.4,4.5,6.7,7.5,10.2c2.4,3,4.4,3.7,6.9,4.4c0.6,0.2,2.2,1.1,2.2,1.8c0,1.3-1,2-5.7,2
		c-5.9,0-9.7-2-12.5-5.6c-2.9-3.6-5-6.9-8.6-12.6c-2.4-3.8-4.4-4.4-5.9-4.4c-0.4,0-0.6,0.4-0.6,0.8c0,5.2,0.1,9,0.2,12
		c0.1,3.1,1.6,4.3,4.2,4.8c1.7,0.4,3.1,1.3,3.1,2.4s-1.7,1.7-3,1.7c-2.7,0-5.5-0.3-9.2-0.3s-5.2,0.3-8.3,0.3c-2.4,0-3.3-0.8-3.3-1.7
		c0-1.2,1.6-1.9,3-2.3c1.6-0.4,4-1.6,4.6-3.4c0.4-1.4,0.6-3.8,0.6-13.5C174.3,53.7,174.1,53.3,173.7,53.3z"/>
</g>
</svg>
