<?xml version="1.0" encoding="utf-8"?>
<!DOCTYPE svg PUBLIC "-//W3C//DTD SVG 1.1//EN" "http://www.w3.org/Graphics/SVG/1.1/DTD/svg11.dtd">
<svg version="1.1" id="Layer_1" xmlns="http://www.w3.org/2000/svg" xmlns:xlink="http://www.w3.org/1999/xlink" x="0px" y="0px"
	 viewBox="0 0 1910 1920" enable-background="new 0 0 1910 1920" xml:space="preserve">
<g>
	<path fill="#FFFFFF" stroke="#FFFFFF" stroke-width="0.0938" d="M1049.64,624.67c2.75-1.85,6.38-1.32,9.3199-0.2
		c6.89,2.72,12.38,8.26,16.0601,14.6c2.01,3.59,3.51,7.66,3.3199,11.84c-0.09,3.02-2.09,6.23-5.22,6.8
		c-5.65,0.95-10.95-2.2401-15.13-5.7c-5.35-4.72-9.77-10.92-11.09-18.04C1046.27,630.73,1046.71,626.7,1049.64,624.67z"/>
	<path fill="#A67C52" stroke="#A67C52" stroke-width="0.0938" d="M836.98,47.7c44.66-7.23,89.41-13.93,134.08-21.1
		c2.99-0.52,6.01,0.06,8.98,0.52c54.3,7.77,108.6201,15.51,162.92,23.3c8.12,1.74,16,4.48,24.04,6.59
		c42.61,12.39,85.78,23.32,127.09,39.74c8.52,3.54,17.12,7.12,24.9,12.14c7.84,5.4,14.47,12.3,21,19.17
		c7.66,8.47,14.96,17.36,20.73,27.25c5.0701,7.97,6.2001,17.55,7.5601,26.69c12.1599,2.32,24.4099,4.25,36.35,7.58
		c9.8,1.99,18.96,6.1,28.34,9.44c7.91,2.75,15.3301,6.64,22.99,9.99c4.6901,2.25,9.79,3.86,13.8501,7.23
		c5.0199,4.02,10.4399,7.54,15.24,11.82c-8.2201-3.53-15.7201-8.57-23.8301-12.32c-6.62-2.46-13.27-4.82-19.9299-7.15
		c-8.3101-2.12-16.7001-3.94-25.03-5.98c-5.7-1.01-11.52-0.71-17.26-0.98c-9.48-0.11-19.01-1.12-28.4399,0.15
		c0.1599,2.59,0.4399,5.18,0.83,7.75c3.51,0.12,7.01,0.67,10.37,1.75c6.78,2.09,13.95,3.22,20.1899,6.78
		c7.1101,3.86,14.9701,6.46,21.3201,11.62c8.53,6.45,17.99,11.8,25.36,19.67c6.76,6.95,14.17,13.29,20.5599,20.57
		c10.9301,15.26,22.54,30.01,34.0701,44.81c4.3199,7.07,8.4299,14.3,12.25,21.67c-2.63-2.07-4.49-4.88-6.61-7.42
		c-7.35-9.87-17.24-17.38-25.91-26.01c-5.8099-5.98-12.71-10.69-19.25-15.79c-10.02-8.27-21.55-14.36-32.42-21.38
		c-12.6499-5.55-25.5599-10.53-38.37-15.68c11.4701,8.2,23.4,15.78,34.8101,24.08c4.51,3.49,9.97,5.93,13.48,10.59
		c6.71,7.97,13.53,15.86,20.29,23.79c2.27,2.72,4.7999,5.27,6.5599,8.37c5.8201,10.49,11.63,20.99,17.4701,31.47
		c3.59,6.8,7.9099,13.26,10.5199,20.54c6.12,15.09,12.61,30.15,16.12,46.12c1.4601,10.4,2.8601,20.82,4.3,31.23
		c1.13,11.54,2.15,23.11,2.95,34.68c0,9.8,1.05,19.61,0.52,29.39c-2.6-9.61-3.3199-19.64-5.5699-29.34
		c-2.9601-12.66-5.5701-25.4-8.76-38c-3.48-8.69-7.22-17.28-10.8101-25.92c-3.5199-9.27-9.1499-17.51-13.85-26.18
		c-8.73-16.23-19.36-31.32-29.12-46.94c-4.29-5.88-9.64-10.87-14.33-16.43c-7.39-7.62-13.72-16.31-22.04-22.98
		c-2.91-2.41-5.75-4.88-8.53-7.42c7.25,11.93,15.8101,23.01,23.23,34.83c4.91,10.42,9.52,20.99,14.4,31.42
		c3.0601,6.11,4.5901,12.8,6.92,19.19c7.8199,22.98,14.92,46.19,22.1799,69.34c4.4,22.13,8.42,44.34,12.65,66.5
		c1.4401,8.49,3.61,16.88,4.24,25.49c1.7001,17.65,3.53,35.28,5.14,52.93c0.3101,22.7,0.6,45.41,0.5901,68.11
		c-0.8301,25.37-1.8701,50.72-1.91,76.1c0.2,16.05-1.64,32.01-2.73,48c-0.9601,19.75-4.8301,39.18-7.36,58.76
		c-2,11.8199-2.7201,23.87-5.91,35.46c-3.78,15.23-7.5801,30.44-11.3201,45.68c-2.4199,8.67-3.7699,17.67-7.26,26.02
		c-9.49,25.56-19.3199,51.01-29.4299,76.33c-2.3101,4.88-5.72,9.11-8.2001,13.9c-5.0099,6.16-8.7899,13.1801-13.0499,19.86
		c-4.88,9.65-13.05,16.89-19.89,25.0801c-3.52,3.5599-6.1801,7.97-10.3199,10.89c3.0499-7.2001,8.24-13.17,12.2-19.8501
		c3.14-5.46,7.47-10.14,10.39-15.74c1.79-3.7,5.08-6.39,6.86-10.08c2.16-4.4501,5.1801-8.51,6.36-13.37
		c-7.15,8.2-13.24,17.27-19.61,26.08c-5.15,6.64-12.54,10.87-19.04,16c-4.99,3.28-8.49,8.22-13.12,11.91
		c-4.1799,3.3199-8.02,7.03-12.22,10.3099c0.5-1.6799,1.01-3.35,1.66-4.97c1.74-2.64,3.7799-5.0699,5.64-7.64
		c9.12-13.6599,18.61-27.08,28.33-40.3199c5.27-7.35,8.1801-15.99,11.9301-24.13c4.0499-9.46,8.37-18.8,12.25-28.33
		c7.74-20.62,14.99-41.4,22.1499-62.22c1.5701-3.97,2.74-8.09,3.8101-12.21c0.9399-3.06,1.9399-6.09,2.6799-9.19
		c1.02-3.86,2.25-7.68,2.6901-11.66c-1.0601,2.11-1.89,4.33-2.5701,6.59c-1.4399,2.41-2.6399,4.95-3.6,7.6
		c-5.72,9.7599-8.61,20.86-14.25,30.67c-5.1899,9.24-9.6699,18.86-14.9399,28.07c-4.01,6.87-7.62,14.04-12.72,20.19
		c-5.28,6.79-10.6901,13.47-15.6901,20.45c-7.51,8.1-15.73,15.52-23.28,23.5801c-1.33,1.36-2.6699,2.7-4.02,4.0299
		c-14.2899,13.42-26.23,29.0601-39.95,43.02c-6.03,6.9501-12.58,13.5-17.76,21.15c-4.5499,6.73-9.65,13.0601-15.11,19.08
		c-4.23,4.39-8,9.3-12.87,13.02c3.3-8.14,8.99-14.95,13.49-22.4199c10.04-16.54,20-33.2001,28.15-50.76
		c1.6-5.75,3.91-11.3,5.1899-17.14c-6.27,5.9-10.5399,13.51-16.1599,19.98c-6.05,8.22-12.5601,16.0599-19.39,23.64
		c-5.41,6.5-11.74,12.1699-16.61,19.12c-0.8201,0.84-1.64,1.6899-2.4501,2.54l-1.9199-0.13c1.9199-2.4901,3.7-5.0901,5.5299-7.64
		c5.86-8.1801,12.75-15.5901,18.3201-24c5.62-8.73,11.22-17.4701,16.75-26.27c10.21-15.27,17.72-32.12,27-47.93
		c3.1899-5.63,5.1799-11.85,6.75-18.1c-5.6901,4.96-7.76,12.53-13.02,17.83c-5.64,8.26-10.9,16.85-17.76,24.2
		c-6.9,7.45-12.77,15.78-20.16,22.79c-5.72,5.2999-10.51,11.7-17.1699,15.8999c-12.87,8.6801-26.0701,16.9601-38.11,26.79
		c-2.5801,1.88-5.52,3.17-8.1801,4.9301c-4.77,2.96-9.0601,6.96-14.66,8.3199c3.1-5.13,8-8.73,12.03-13.0699
		c5.99-6.3101,12.7-11.9801,17.9399-18.9801c5.02-6.01,9.76-12.23,14.6201-18.36c7.2799-9.45,15-18.59,21.2999-28.74
		c8.9-14.06,18.26-27.81,26.87-42.05c5.13-10.04,9.22-20.58,14.4301-30.59c4.23-9.7401,8.2799-19.57,12.96-29.11
		c3.4301-6.81,5.71-14.1,7.52-21.48c3.28-12.02,7.12-23.88,10.0599-35.99c3.26-11.66,5.5-23.58,8.8401-35.22
		c2.74-9.6299,3.6799-19.6299,6.1799-29.31c1.3401-10,4-19.8,4.8-29.88c1.04-10,4.3099-19.8199,3.4199-29.96
		c-2.7799,7.86-4.3199,16.13-7.73,23.76c-4.5499,9.79-8.6799,19.77-12.49,29.86c-3.35,8.08-7.95,15.59-11.14,23.74
		c-0.4099,1.3-1.4099,2.23-2.39,3.11c-0.22-4.98,2.05-9.5,3.4301-14.15c3.29-10.86,7.37-21.47,10.2-32.46
		c1.41-6.23,3.9-12.18,4.91-18.51c2.3301-13.77,5.8-27.36,7.3301-41.26c-5.64,9.25-9.7101,19.32-14.8201,28.86
		c-9.01,18.54-18.99,36.6-27.9299,55.17c-3.03,5.47-5.1901,11.59-9.7301,16.07c-7.49,7.56-15.11,15.01-22.74,22.43
		c-5.88,5.73-13.4399,9.1-20,13.9c-5.15,2.9-9.65,7.15-15.5,8.61c-9.0399,2.37-17.6599,6.34-26.96,7.7
		c-2.6901,0.03-5.37-0.08-8.04-0.02c-4.6799,0.23-9.37,0.51-14.0299,0.02c3.9399-3.1801,8.24-5.8701,12.62-8.4
		c1.99-1.28,3.86-2.75,5.74-4.2c4.2899-3.31,7.25-7.95,11.2899-11.54c7.0801-6.44,10.52-15.58,15.3301-23.63
		c5.6-9.44,8.6-20.07,13-30.05c2.58-5.76,3.0299-12.13,4.61-18.17c1.28-5.54,2.11-11.16,3.0499-16.7599
		c-3.4399,1.65-5.5399,4.86-7.9099,7.68c-6.5901,6.74-12.5701,14.04-18.76,21.15c-5.14,6.51-11.6901,11.7-17.12,17.94
		c-5.53,6.47-12.0701,11.93-18.3,17.68c-1.98,1.79-3.86,3.67-5.8099,5.48c-1.5801,1.27-3.3401,2.29-5.1001,3.25
		c0.5901-2.49,1.6001-4.87,3.1901-6.88c1.79-2.42,3.59-4.84,5.4299-7.23c4.04-4.87,6.15-10.92,9.5801-16.18
		c3.7899-5.92,6.63-12.37,8.84-19.03c2.73-8.67,6.16-17.11,8.26-25.97c1.3199-5.8,4.11-11.34,3.88-17.41
		c0.73-1.61,1.48-3.19,2.1801-4.8c3.6599-12.72,4.84-25.93,6.4299-39.02c-2.51,1.74-4.38,4.17-6,6.72
		c-3.45,5.29-7.41,10.38-9.41,16.45l-0.11-1.14c-6.4,8.95-11.9299,18.5099-18.5499,27.3c6.0499-19.45,12.36-38.81,18.36-58.27
		c2.0399-8.38,4.62-16.65,6.1699-25.14c6.55-19.45,9.1901-39.88,12.5601-60.04c2.01-16.5,2.87-33.1,4.45-49.65
		c0.92-12.34,3.03-24.61,2.92-37.02c-0.2-10.95,0.25-21.93-0.22-32.86c-3.78-4.5-9.01-7.49-13-11.8
		c-3.0601-3.17-5.7101-6.74-9.14-9.54c-5.84-7.83-13.22-14.38-19.12-22.15c-7.13-11.6-14.0801-23.32-21.28-34.88
		c-4.21-8.45-8.17-17.02-12.42-25.45c-4.76-11.59-9.8899-23.06-16.01-34c-4.23-6.86-6.5499-14.76-11.2899-21.3
		c-0.9,15.8,0.71,31.57,1.2,47.35c0.8,11.22,0.22,22.49,1.47,33.68c0.0801,13.69,1.2401,27.33,1.3401,41.01
		c0.7999,10.98,0.87,21.99,1.36,32.98c-6.3301-9.24-10.16-19.86-14.9301-29.91c-4.2899-7.84-6.0599-16.66-8.86-25.07
		c-4.3099-12.92-7.73-26.1-11.98-39.04c-2.79-8.1-4.78-16.44-6.38-24.84c-5.37-24.05-10.63-48.11-15.79-72.21
		c-0.76-3.34-1.61-6.67-2.59-9.95c-1.84,4.79-1.6799,9.99-2.15,15.02c-1.6699,14.68-3.14,29.39-4.71,44.09
		c-0.28,10.36-3.55,20.26-5.86,30.27c-3.29,12.83-6.37,25.71-9.65,38.54c-7.13,23.22-15.38,46.08-22.58,69.28
		c-2.7101,9.02-1.9301,18.54-2.51,27.83c-0.74,9.65-1.4501,19.31-1.8301,28.99c-0.1399,3.4-0.6,6.77-1.21,10.11
		c-3.3-3.76-5.85-8.08-8.88-12.04c-7.76-9.38-10.98-21.38-15.48-32.46c-3.82-8.77-5.76-18.19-7.76-27.5
		c-4.81-18.78-8.76-37.82-14.44-56.35c-2.95,10.51-4,21.46-5.85,32.2c-0.41,12.06-2.49,24-2.5,36.08
		c-0.75,22.32-0.91,44.67,0.01,66.99c0.0099,2.22,0.6299,4.37,1.3199,6.47c0.56,7.62,2.13,15.11,2.96,22.7
		c-0.52-0.21-1.56-0.61-2.08-0.81c-4.61-2.71-8.52-6.42-13.0099-9.31c-4.67-3.4-9.92-6.07-13.95-10.28
		c-4.29-3.99-8.66-7.91-12.59-12.27c-4.41-4.95-9.72-9.03-13.73-14.34c-4.95-6.42-9.19-13.35-13.98-19.89
		c-3.83-5.19-7.05-10.87-9.21-16.95c-1.09-3.11-2.44-6.12-3.93-9.04c-3.99-7.94-6.41-16.51-9.22-24.89
		c-2.18-6.46-4.75-12.82-6.09-19.52c-1.87-9.98-3.98-19.9-5.96-29.86c-0.27,10.93,0.97,21.9,3.06,32.62
		c0.15,12.37,2.43,24.58,3.3,36.9c0.08,0.74,0.24,2.21,0.32,2.94c1.29,0.21,2.62,0.42,3.95,0.55c-0.95-0.03-2.84-0.09-3.79-0.13
		c0.35,6.49,1.7,12.91,1.55,19.42c-3.66-2.77-6.06-6.69-8.76-10.3c-7.5-8.44-11.57-19.14-17.29-28.74
		c-4.25-10.6-9.33-20.85-13.57-31.46c-4.45-11.74-9.66-23.19-14-34.97c-2.49-9.26-5.38-18.39-8.43-27.47
		c-2.45-15.08-4.26-30.3-7.31-45.28c-1.11,12.6-0.29,25.25-0.19,37.88c0.11,5.37,0.84,10.7,1.23,16.05
		c0.76,7.63,0.85,15.32,2.12,22.91c0.52,11.02,1.82,22,2.59,33.01c0.35,7.14,2.04,14.1,3.3199,21.11
		c1.7401,9.23,3.48,18.47,5.2,27.7c0.15,0.78,0.43,2.33,0.58,3.1c1.22,7.06,3.09,14.04,3.58,21.22c-1.53-3.53-3.05-7.04-4.72-10.5
		c-3.55-8.62-6.7-17.41-10.78-25.8c-3.08-6.21-6.66-12.28-8.06-19.15c-4.93-15.15-9.67-30.38-14.61-45.53
		c-3.53-16.15-6.04-32.51-9.15-48.74c-3.64-22.77-6.42-45.68-10.08-68.43c-4.76,10.4-7.16,21.66-10.96,32.41
		c-4.85,15.66-10.52,31.05-15.25,46.75c-1.43,4.89-3.3799,9.66-3.96,14.76c-0.81,3.16-1.9,6.26-2.6,9.45
		c-0.28-0.3-0.8199-0.9-1.09-1.2c-3.68,13.43-8.39,26.54-12.48,39.84c-7.9301,24.03-15.16,48.29-23.73,72.11
		c-0.64-6.01-0.54-12.06-0.34-18.08c0.55-44.02,1.6-88.02,1.89-132.04c0.01-5.71,0.59-11.48-0.52-17.13
		c-4.07,8.26-5.34,17.44-7.26,26.34c-2.77,10.54-4.52,21.37-8.1,31.7c-7.5,23.03-12.55,46.74-19.02,70.07
		c-5.32,18.72-11.02,37.34-17.36,55.74c-2.83,7.5-0.79,15.58-0.52,23.32c0.28,12.79,0.72,25.61,2.52,38.3
		c2.75,27.98,7.19,55.77,12.94,83.28c3.46,14.69,6.03,29.66,10.6299,44.04c0.4,1.3,0.82,2.6,1.23,3.92
		c0.45,3.86,1.93,7.47,3.14,11.1299c-0.2,0.59-0.6,1.77-0.8,2.36c-5.25-3.58-7.84-9.53-11.2-14.68
		c-3.01-5.21-6.89-9.89-9.4301-15.3701c-2.56-5.43-5.78-10.52-7.99-16.1c-1.95-4.14-3.05-9.01-6.85-11.93
		c-0.42,8.1,0.8,16.14,2.59,24.01c1.22,11.24,4.4901,22.07,7.41,32.95c5.83,18.77,11.46,37.65,19.05,55.81
		c2.57,8.28,8.15,15.05,12.58,22.36c7.72,11.16,14.42,23.1,23.82,33c1.65,1.71,3.14,3.58,4.49,5.55c-1.75,0.08-3.49,0.17-5.22,0.21
		c-12.67-0.6-25.5099,1.09-38-1.63c-3.99-0.83-8.0099-1.41-12.0099-2.09c-4.6801-0.71-8.77-3.24-13.03-5.12
		c-3.85-1.82-8.03-2.99-11.57-5.41c-2.65-1.83-5.14-3.87-7.83-5.63c-1.74-1.14-3.49-2.27-5.19-3.46
		c-4.78-3.83-8.59-8.68-13.0099-12.9c-6.5-8.45-13.78-16.27-20.41-24.6201c-3.21-4.61-5.09-10.42-10.2-13.4
		c0.59,14.46,3.31,28.82,8.2,42.45c1.31,3.66,4.02,7.5,2.11,11.48c-5.36-6.32-8.31-14.22-12.05-21.51
		c-7.89-20.78-15.95-41.54-22.38-62.84c-0.76-2.9-1.5-5.87-3.15-8.42c-0.94,16.23,2.54,32.27,4.65,48.28
		c2.04,16.19,5.71,32.09,8.64,48.11c3.26,14.36,6.71,28.68,10.42,42.94c3.65,13.23,7.58,26.38,11.15,39.64
		c3.36,14.57,10.87,27.66,16.93,41.2c3,6.85,6.41,13.5,9.65,20.25c2.0099,4.89,4.54,9.54,6.67,14.38
		c3.62,9.65,10.35,17.6,15.6,26.36c5.05,8.1799,10.75,15.9299,15.83,24.1c5.65,7.92,12.16,15.1901,17.8,23.13
		c4.32,6.27,9.55,11.85,14.02,18.02c3.14,4.28,6.9,8.0499,11.03,11.39c1.98,1.97,3.77,4.11,5.69,6.14
		c5.35,4.9299,10.36,10.1899,15.42,15.4299c-6.74-1.26-11.89-6.16-17.64-9.53c-8.43-4.99-15.88-11.38-23.93-16.9199
		c-8.3-5.79-17.11-10.86-25.18-16.98c-6.04-5.5801-11.59-11.67-17.51-17.38c-7.56-8.1901-14.27-17.12-21.67-25.4601
		c-8.73-10.7499-15.07-23.2599-23.96-33.8799c0.87,9.13,6.28,16.74,10.31,24.69c3.46,6.5,7.24,12.8199,10.65,19.35
		c4.47,10.01,11.0699,18.83,16.87,28.09c3.66,5.39,6.77,11.13,10.46,16.51c5.59,8.9301,12.43,16.9601,18.41,25.61
		c0.6,0.9501,2.02,2.37,0.41,3.24c-5.38-4.48-9.37-10.35-14.34-15.25c-4.46-4.37-7.98-9.5499-11.51-14.6499
		c-7.89-9.8101-15.13-20.13-23.21-29.79c-0.5-0.14-1.5-0.42-2-0.5601c2.7,7.1001,4.8,14.4701,8.37,21.2101
		c3.36,5.8099,5.98,12.01,9.39,17.8099c4.32,7.9301,7.84,16.3401,13.17,23.7001c4.68,8.0299,10.62,15.4199,14.04,24.13
		c-9.61-7.42-17.1-17.1901-24.42-26.79c-3.92-5.08-7.44-10.52-12.02-15.05c-4.2-4.1499-7.19-9.34-11.53-13.35
		c-4.14-3.89-7.31-8.6799-11.53-12.48c-8.34-7.8-15-17.1899-23.61-24.72c-2.41-2.54-4.85-5.05-7.35-7.49
		c-1.18-1.23-2.3-2.5-3.47-3.7101c-1.99-1.97-3.99-3.9099-5.96-5.88c-7.41-6.6299-13.33-14.6899-19.44-22.4799
		c-6.17-8.56-13.42-16.47-17.76-26.2c-4.9-9.16-10.02-18.2-14.52-27.57c-5.1-9.81-9.29-20.05-14.39-29.84
		c-0.83-2.22-1.82-4.38-3.23-6.28c-0.19,0.69-0.57,2.07-0.75,2.76c-0.87,2.11,0.48,4.11,1.57,5.83c0.48,3.76,1.59,7.39,3.06,10.88
		c1.46,5.22,3.77,10.16,5.17,15.4c4.85,15.91,11.73,31.09,17.23,46.77c3.88,11.27,8.89,22.09,13.94,32.8699
		c3.14,6.5601,4.82,13.92,9.52,19.66c5.4301,6.6801,9.75,14.16,15.15,20.87c5.52,6.95,9.39,15.03,15.01,21.92
		c2.37,3.63,4.69,7.3199,7.68,10.49c0.1,0.6799,0.19,1.39,0.27,2.11c-0.08,0.53-0.24,1.58-0.32,2.1c-2.36-2.08-4.62-4.26-6.81-6.5
		c-3.02-3.03-5.67-6.39-8.51-9.5699c-6.97-7.16-15.46-12.52-23.26-18.7001c-7.02-5.0499-11.17-12.85-16.53-19.4399
		c-3.52-4.17-5.9301-9.29-10.24-12.76c1.47,4.7999,4.6,8.8099,6.65,13.35c2.1,4.6901,6.13,8.11,8.43,12.6901
		c3.73,5.2899,6.59,11.13,10.55,16.2699c3.55,5.54,8.12,10.53,10.35,16.8301c-4.36-3.03-7.05-7.6901-10.71-11.41
		c-4.91-5.14-8.89-11.05-13.63-16.33c-3.74-4.05-6.44-8.87-9.61-13.3301c-0.62,1.99-1.22,3.99-1.66,6.04
		c-0.98-4.0699-1.12-8.3-2.08-12.35c-4.18-7.39-9.18-14.3201-13.3-21.74c-10.99-27.52-21.72-55.14-31.87-82.98
		c-4.34-16.55-8.27-33.21-12.45-49.79c-2.44-10.64-5.83-21.1-7.08-31.97c-2.93-20.69-5.99-41.36-8.89-62.06
		c-1.19-13.67-1.98-27.37-3.16-41.04c-1.66-23.66-0.39-47.43-1.83-71.1c-0.18-12.34-1.11-24.67-0.97-37.0099
		c0.45-19.68,0.25-39.36,0.64-59.03c1.91-19.67,3.78-39.34,5.83-58.99c4.91-27.35,10.28-54.62,15.35-81.95
		c0.68-4.11,2.12-8.04,3.36-12c6.98-22.49,14.09-44.93,21.65-67.23c3.61-12,9.68-23.04,14.65-34.5c1.96-4.03,3.41-8.31,5.81-12.11
		c7.26-10.78,14.8-21.39,21.87-32.3c-2.95,2.01-5.53,4.49-8.26,6.77c-8.16,6.53-14.44,14.98-21.62,22.49
		c-4.83,5.79-10.43,10.95-14.87,17.05c-9.91,15.8-20.59,31.14-29.48,47.56c-4.56,8.5-10.11,16.52-13.46,25.61
		c-3.61,8.91-7.65,17.64-11.01,26.64c-3.09,12.54-5.7,25.2-8.64,37.78c-1.96,10.14-3.59,20.34-5.27,30.53
		c-0.68-10.79,0.28-21.59,0.42-32.37c0.89-10.75,1.77-21.51,2.76-32.25c1.42-11.27,3.08-22.51,4.66-33.75
		c2.95-11.59,6.77-22.95,11.49-33.93c3.15-7.28,5.46-14.95,9.53-21.79c7.04-12.6,13.99-25.25,21.05-37.84
		c1.38-2.57,2.71-5.2,4.65-7.4c8.26-9.71,16.63-19.32,24.81-29.09c2.43-3.03,5.93-4.84,9-7.09c12.3-8.71,24.71-17.22,37.25-25.56
		c-1.61,0.16-3.2,0.51-4.66,1.19c-10.39,4.35-20.91,8.4-31.27,12.8c-7.11,4.07-13.93,8.64-20.92,12.93
		c-7.06,4.06-13.08,9.61-19.65,14.38c-10.83,8.03-19.91,18.12-29.97,27.06c-5.62,5.06-9.3,11.88-14.89,16.96
		c3.91-7.56,8.02-15.05,12.64-22.2c11.74-14.98,23.38-30.04,34.58-45.43c8.21-8.44,16.81-16.55,25.19-24.83
		c7.78-5.98,15.95-11.44,23.86-17.24c5.99-3.57,12.49-6.17,18.67-9.4c5.54-3.02,11.87-3.91,17.8-5.91
		c1.71-3.41,3.44-6.81,4.86-10.35c-11.75,0.14-23.51,0.42-35.25,0.93c-9.3,1.75-18.46,4.28-27.69,6.36
		c-6.84,2.32-13.64,4.77-20.39,7.32c-8.5,4.04-16.49,9.1-25,13.11c6.76-5.21,13.43-10.59,20.51-15.35
		c13.04-5.94,25.91-12.33,39.48-17c17.44-7.09,36.04-10.54,54.49-13.88c2.21-0.41,4.47-0.38,6.72-0.31
		c7.7-9.06,15.22-18.28,22.93-27.32c3.87-4.45,7.29-9.35,11.91-13.08c13.89-11.77,27.68-23.66,41.66-35.32
		c10.36-6.08,21.06-11.57,31.51-17.5c4.21-2.58,9.1-3.54,13.77-4.96c22.46-6.57,44.89-13.23,67.35-19.81
		c4.57-1.31,9.06-2.91,13.77-3.7C787.02,56.41,812,52.05,836.98,47.7 M485.73,917.25c1.25-4.44-2.41-8.14-3.49-12.23
		C482.77,909.21,483.56,913.56,485.73,917.25z"/>
	<path fill="#886664" stroke="#886664" stroke-width="0.0938" d="M1085.09,299c0.4701-5.03,0.3101-10.23,2.15-15.02
		c0.98,3.28,1.83,6.61,2.59,9.95c5.16,24.1,10.42,48.16,15.79,72.21c1.6,8.4,3.59,16.74,6.38,24.84
		c4.25,12.94,7.67,26.12,11.98,39.04c2.8,8.41,4.5701,17.23,8.86,25.07c4.77,10.05,8.6,20.67,14.9301,29.91
		c-0.49-10.99-0.5601-22-1.36-32.98c-0.1-13.68-1.26-27.32-1.3401-41.01c-1.25-11.19-0.6699-22.46-1.47-33.68
		c-0.49-15.78-2.1-31.55-1.2-47.35c4.74,6.54,7.0599,14.44,11.2899,21.3c6.1201,10.94,11.25,22.41,16.01,34
		c4.25,8.43,8.2101,17,12.42,25.45c-4.91,18.3-5.1,37.41-5.83,56.22c-0.4,20.7-0.2101,41.41,0.33,62.11
		c-0.0599,1.44,0.39,2.83,1.17,4.06c-0.91-0.59-1.77-1.17-2.6001-1.79c-8.47-14.54-17.36-28.85-26.2-43.17
		c0.08,9.24,0.99,18.46,0.71,27.7c-0.35-0.17-1.0499-0.5-1.3999-0.67l0.35-0.28c0.37-1.31-0.27-2.53-0.75-3.69
		c-5.48-11.54-10.85-23.13-16.13-34.76c-4.3-12.35-7.59-25.06-11.8101-37.43c-4.22-7.26-9.58-13.8-14.21-20.8
		c-8.9-12.23-16.14-25.53-24.15-38.33c-2.47,11.8-5.84,23.39-8.61,35.12c-3.08,11.56-5.34,23.36-9.42,34.64
		c-3.9199,12.42-8.33,24.69-12.0699,37.16c1.09,0.19,2.1899,0.44,3.3,0.75c-1.4401,0.02-2.87,0.06-4.27,0.12
		c-0.64,2.58,1.6699,2.72,3.5399,3.01c-1.3199-0.05-2.63-0.09-3.9199-0.1c-2.74,9.76-7.8301,19.09-7.65,29.45
		c-0.88,15.76-1.87,31.5-2.8,47.26c-0.1799,3.02-0.37,6.04-0.6,9.07c-1.5499-1.92-3.0599-3.85-4.47-5.86
		c-3-4.36-6.03-8.7-9.14-12.98c-3.72-4.89-5.08-10.99-7.48-16.54c-2.86-7.94-6.66-15.59-8.42-23.89
		c-2.03-8.76-4.23-17.48-6.22-26.25c-0.37-1.61-0.63-3.23-1.04-4.81c-3.64-13.37-6.66-26.89-10.22-40.28
		c-2.43,11.29-4.06,22.77-5.86,34.18c-1.08,15.01-2.74,30-2.72,45.06c-0.22,12.16-0.4901,24.33-0.3701,36.49
		c-0.69-2.1-1.31-4.25-1.3199-6.47c-0.92-22.32-0.76-44.67-0.01-66.99c0.01-12.08,2.09-24.02,2.5-36.08
		c1.85-10.74,2.9-21.69,5.85-32.2c5.68,18.53,9.63,37.57,14.44,56.35c2,9.31,3.94,18.73,7.76,27.5c4.5,11.08,7.72,23.08,15.48,32.46
		c3.03,3.96,5.58,8.28,8.88,12.04c0.61-3.34,1.0701-6.71,1.21-10.11c0.38-9.68,1.0901-19.34,1.8301-28.99
		c0.58-9.29-0.2001-18.81,2.51-27.83c7.2-23.2,15.45-46.06,22.58-69.28c3.28-12.83,6.36-25.71,9.65-38.54
		c2.3099-10.01,5.58-19.91,5.86-30.27C1081.95,328.39,1083.42,313.68,1085.09,299z"/>
	<path fill="#886664" stroke="#886664" stroke-width="0.0938" d="M771.47,328.36c3.8-10.75,6.2-22.01,10.96-32.41
		c3.66,22.75,6.44,45.66,10.08,68.43c3.11,16.23,5.62,32.59,9.15,48.74c4.94,15.15,9.6801,30.38,14.61,45.53
		c1.4,6.87,4.98,12.94,8.06,19.15c4.08,8.39,7.23,17.18,10.78,25.8c2.07,12.65,5.06,25.14,6.81,37.83
		c-6.85-15.17-13.48-30.43-20.26-45.62c-0.45-1-0.87-1.99-1.2599-2.98c-6.11-17.67-11.55-35.58-17.47-53.33
		c-5.49,6.71-9.15,14.61-13.51,22.05c-4.9,8.44-9.41,17.12-14.55,25.42c-2.91-3.6-3.41-8.34-4.41-12.69
		c-4.69-24.27-6.86-48.96-12.01-73.14c-1.01-3.94-1.64-8.24-4.3-11.46c-0.47,0.05-1.42,0.14-1.89,0.19
		c0.58-5.1,2.53-9.87,3.96-14.76C760.95,359.41,766.62,344.02,771.47,328.36z"/>
	<path fill="#886664" stroke="#886664" stroke-width="0.0938" d="M713.39,342.82c1.11,5.65,0.53,11.42,0.52,17.13
		c-0.29,44.02-1.34,88.02-1.89,132.04c-0.2,6.02-0.3,12.07,0.34,18.08c8.57-23.82,15.8-48.08,23.73-72.11
		c4.09-13.3,8.8-26.41,12.48-39.84c0.27,0.3,0.81,0.9,1.09,1.2c-4.9,30.33-5.89,61.12-7.89,91.73c-0.51,3.75-2.1,7.23-2.88,10.92
		c-2.05,9.15-3.45,18.45-4.57,27.76c-0.19,1.17-0.4,2.33-0.57,3.53l1.09,0.24c-0.33,0.25-1,0.74-1.33,0.99
		c-1.35,11.35-2.9,22.69-4.82,33.96c-1.34,6.69-2.36,13.59-5.51,19.73c-3.67-4.2-5.48-9.54-7.52-14.63
		c-2.62-6.67-4.8799-13.47-7.4-20.17l-0.74,0.24c0.14-1.34-0.05-2.66-0.44-3.93c-3.93-10.97-7.6-22.04-11.79-32.92
		c-2.09-5.18-3.98-10.57-7.49-15c-2.03,3.78-1.24,8.16-1.08,12.26c1.25,16,3.7401,31.8799,6.11,47.74c0.19,1.25,0.39,2.51,0.59,3.77
		c3.47,22.16,7.22,44.27,11.09,66.36c0.47,3.28,1.71,6.67,0.75,9.99c-4.77,19.02-9.51,38.06-14.23,57.1
		c-1.38,5.51-2.84,11.02-3.8101,16.62c-4.6-14.38-7.17-29.35-10.6299-44.04c-5.75-27.51-10.19-55.3-12.94-83.28
		c-1.8-12.69-2.2401-25.5099-2.52-38.3c-0.27-7.74-2.31-15.82,0.52-23.32c6.34-18.4,12.04-37.02,17.36-55.74
		c6.47-23.33,11.52-47.04,19.02-70.07c3.58-10.33,5.33-21.16,8.1-31.7C708.05,360.26,709.32,351.08,713.39,342.82z"/>
	<path fill="#886664" stroke="#886664" stroke-width="0.0938" d="M885.43,449.66c-2.09-10.72-3.33-21.69-3.06-32.62
		c1.98,9.96,4.09,19.88,5.96,29.86c1.34,6.7,3.91,13.06,6.09,19.52c2.81,8.38,5.23,16.95,9.22,24.89c1.49,2.92,2.84,5.93,3.93,9.04
		c2.16,6.08,5.38,11.76,9.21,16.95c4.79,6.54,9.03,13.47,13.98,19.89c4.01,5.31,9.32,9.39,13.73,14.34
		c3.93,4.36,8.3,8.28,12.59,12.27c4.03,4.21,9.28,6.88,13.95,10.28c4.49,2.89,8.4,6.6,13.0099,9.31c1.15,9.5,2.94,18.9,4.03,28.41
		c-8.14-5.47-16.26-10.99-24.38-16.48c-4.8-3.14-8.43-7.62-12.53-11.54c-5.09-4.9-9.97-10-15.0699-14.89
		c-3.6801-3.43-6.1201-7.87-9-11.93c-3.46-4.95-6.76-10.01-10.22-14.96c-5.94-7.79-8.56-17.4-12.66-26.17
		c-3.9-8.24-6.48-16.98-9.22-25.65c-0.36-1.13-0.72-2.25-1.06-3.37C889.53,474.84,887.84,462.13,885.43,449.66z"/>
	<path fill="#886664" stroke="#886664" stroke-width="0.0938" d="M1222.52,467.76c3.4299,2.8,6.08,6.37,9.14,9.54
		c3.99,4.31,9.22,7.3,13,11.8c0.47,10.93,0.02,21.91,0.22,32.86c0.11,12.41-2,24.68-2.92,37.02c-1.58,16.55-2.4399,33.15-4.45,49.65
		c-3.37,20.16-6.01,40.59-12.5601,60.04c-2.5699-9.16-4.5699-18.45-7.0299-27.63c-2.28-7.85-0.55-16.06,0.7-23.93
		c2.36-12.91,5.42-25.7,8.74-38.4c-0.28-0.4-0.84-1.2-1.12-1.6l1.15,0.97c0.29-1.16,0.58-2.31,0.88-3.46
		c3.3099-13.84,6.8199-27.65,9.0599-41.71c0.87-6.55,2-13.5-0.63-19.81C1231.76,498.05,1227.16,482.89,1222.52,467.76z"/>
	<path fill="#886664" stroke="#886664" stroke-width="0.0938" d="M655.32,674.94c3.8,2.92,4.9,7.79,6.85,11.93
		c2.21,5.58,5.43,10.67,7.99,16.1c2.54,5.48,6.42,10.16,9.4301,15.3701c3.36,5.15,5.95,11.1,11.2,14.68c0.2-0.59,0.6-1.77,0.8-2.36
		c4.8,12.6201,11.17,24.56,17.02,36.7c5.01,10.32,10.49,20.4,16.64,30.09c-2.48,15.07-3.05,30.41-4.48,45.62
		c-9.4-9.9-16.1-21.84-23.82-33c-4.43-7.31-10.01-14.08-12.58-22.36c-7.59-18.16-13.22-37.04-19.05-55.81
		c-2.92-10.88-6.19-21.71-7.41-32.95C656.12,691.08,654.9,683.04,655.32,674.94z"/>
	<path fill="#886664" stroke="#886664" stroke-width="0.0938" d="M1338.99,754.96c5.11-9.54,9.1801-19.61,14.8201-28.86
		c-1.53,13.9-5,27.4901-7.3301,41.26c-1.01,6.33-3.5,12.28-4.91,18.51c-2.83,10.99-6.9099,21.6-10.2,32.46
		c-1.38,4.65-3.65,9.17-3.4301,14.15c0.9801-0.88,1.9801-1.81,2.39-3.11c3.1901-8.15,7.79-15.66,11.14-23.74
		c3.8101-10.09,7.9401-20.07,12.49-29.86c3.41-7.63,4.9501-15.9,7.73-23.76c0.89,10.14-2.3799,19.96-3.4199,29.96
		c-0.8,10.08-3.46,19.88-4.8,29.88c-2.5,9.6801-3.4399,19.6801-6.1799,29.31c-3.3401,11.64-5.5801,23.56-8.8401,35.22
		c-2.9399,12.11-6.7799,23.97-10.0599,35.99c-1.8101,7.38-4.09,14.67-7.52,21.48c-4.6801,9.54-8.73,19.37-12.96,29.11
		c-5.2101,10.0099-9.3,20.55-14.4301,30.59c-8.61,14.24-17.97,27.99-26.87,42.05c-6.2999,10.15-14.02,19.29-21.2999,28.74
		c-4.8601,6.13-9.6001,12.35-14.6201,18.36c-5.24,7-11.95,12.67-17.9399,18.9801c-4.03,4.34-8.9301,7.9399-12.03,13.0699
		c5.6-1.36,9.89-5.36,14.66-8.3199c2.66-1.76,5.6-3.05,8.1801-4.9301c12.0399-9.83,25.24-18.11,38.11-26.79
		c6.6599-4.2,11.45-10.6,17.1699-15.8999c7.39-7.01,13.26-15.3401,20.16-22.79c6.86-7.35,12.12-15.94,17.76-24.2
		c5.26-5.3,7.33-12.87,13.02-17.83c-1.5701,6.25-3.5601,12.47-6.75,18.1c-9.28,15.81-16.79,32.66-27,47.93
		c-5.53,8.7999-11.13,17.54-16.75,26.27c-5.5701,8.4099-12.4601,15.8199-18.3201,24c-0.27-4.48-0.1899-8.9701-0.23-13.4401
		c-1.88,4.27-3.9299,8.47-6.04,12.63c-1.6599,3.21-1.37,6.9-1.5399,10.4c0.74-0.67,1.5-1.3199,2.28-1.95l1.9199,0.13
		c-1.97,2.2999-4.47,4.59-4.65,7.83c-0.58,5.12-0.7,10.2999-0.63,15.46c2.8601-5.4399,3.9901-11.53,6.0601-17.26
		c0.98-2.76,1.91-5.61,1.67-8.5699c4.87-6.9501,11.2-12.62,16.61-19.12c6.83-7.5801,13.34-15.42,19.39-23.64
		c5.62-6.47,9.8899-14.08,16.1599-19.98c-1.2799,5.84-3.59,11.39-5.1899,17.14c-8.15,17.5599-18.11,34.22-28.15,50.76
		c-4.5,7.47-10.1899,14.2799-13.49,22.4199c4.87-3.72,8.64-8.63,12.87-13.02c5.46-6.0199,10.5601-12.35,15.11-19.08
		c5.1801-7.65,11.73-14.2,17.76-21.15c13.72-13.96,25.66-29.6,39.95-43.02c-3.24,9.86-0.62,20.11-0.1799,30.16
		c0.63,8.12,1.14,16.24,1.77,24.36c-0.65,1.62-1.16,3.29-1.66,4.97c4.2-3.2799,8.04-6.99,12.22-10.3099
		c4.63-3.6901,8.13-8.63,13.12-11.91c6.5-5.13,13.89-9.36,19.04-16c6.37-8.8099,12.46-17.88,19.61-26.08
		c-1.1799,4.86-4.2,8.9199-6.36,13.37c-1.78,3.6899-5.0699,6.38-6.86,10.08c-2.92,5.6-7.25,10.28-10.39,15.74
		c-3.96,6.6801-9.15,12.65-12.2,19.8501c4.1399-2.92,6.7999-7.3301,10.3199-10.89c6.84-8.1901,15.01-15.4301,19.89-25.0801
		c4.26-6.6799,8.04-13.7,13.0499-19.86c-0.34,8.27-2.0099,16.4301-2.86,24.66c-2.22,17.0599-4.4099,34.12-6.6,51.1899
		c-0.7999,6.9501-2.16,13.86-2.08,20.89c-0.15,12.89,0.2999,25.8301-0.48,38.6801c-10.9501-11.0601-24.4601-19.63-39.3501-24.25
		c-0.22,0.37-0.6499,1.12-0.87,1.5c-6.87,13.49-13.24,27.28-20.86,40.37c4.87-14.0801,10.29-27.97,15.05-42.09
		c0.14-0.42,0.42-1.26,0.5599-1.6801c-1.8899-0.46-3.7899-0.91-5.6499-1.35c-0.29,0.37-0.8601,1.11-1.15,1.47
		c-5.41,7-10.97,13.88-16.4401,20.83c-9.0299,14.2301-17.45,28.89-27.25,42.6001c9.1801-21.9801,18.17-44.05,27.11-66.13
		c0.15-0.39,0.4601-1.1801,0.62-1.5701c-4-0.49-8-0.9-12.0099-1.2c-2.7001-12.4501-4.8-25.05-8.12-37.34
		c-1.9901,2.7799-4.51,5.5099-5.2401,8.9399c1.7301,9.3101,4.2201,18.5,5.6801,27.89c-7.38-0.33-14.76-0.8201-22.14-0.9401
		c-1.42-0.3199-2,1.0801-2.7,2.01c-2.0901,3.4701-4.1,7-6.1901,10.48c-0.4,0.7001-1.21,2.1001-1.62,2.8
		c-2.59,4.41-6.27,8.09-8.5599,12.7c-2.02,4.0801-4.8301,7.6801-7.2201,11.54c-0.2799,0.48-0.85,1.4401-1.1399,1.92
		c-4.6901,6.89-9.7301,13.58-13.4901,21.0499c-5.11,8.8-9.4099,18.17-15.9399,26.05c-4.77,6.05-9.3,12.3-14.42,18.0601
		c7.27-18.13,16.5701-35.4901,22.17-54.27c3.3199-10.3301,6.86-20.6001,9.8-31.04c1.11-7.2,2.8999-14.4399,2.9399-21.71
		c-1.33-0.24-1.54,1.52-2.21,2.2899c-5.7101,10.5601-11.55,21.05-17.5601,31.4401c-3.6,6.0499-6.7899,12.39-11.1,17.99
		c-9.62,12.9399-19.4,25.79-29.91,38.02c6.0701-9.9601,12.62-19.62,18.5801-29.64c3.6799-6.3201,7.95-12.34,10.8099-19.1
		c6.41-14.5801,12.9501-29.1001,18.9501-43.86c0.1499-0.41,0.4399-1.2301,0.59-1.63c-0.4401-0.1101-1.3101-0.3101-1.75-0.42
		c-0.58-6.5-1.9-12.96-1.67-19.5c-2.4099,2.54-4.62,5.34-5.95,8.61c-0.5601,2.95-0.12,5.99-0.15,8.99
		c-1.53-0.41-3.01-0.78-4.53-1.0599c-0.21,0.3199-0.61,0.97-0.8199,1.2899c-4.29,7.5601-10.2001,14.01-15.53,20.8301
		c-3.39,3.8999-6.16,8.51-10.6,11.34c-6.02,3.99-12.1,7.88-18.3,11.5699c-9.4299,5.6901-18.23,12.5901-28.5,16.78
		c-7.2999,3.1-14.6599,6.11-22.1799,8.64c10.64-9.62,21.5399-19.01,31.4399-29.41c5.87-7.9199,11.0801-16.3199,16.51-24.5399
		c5.4-8.7201,11.6-17.05,15.46-26.62c0.17-0.42,0.51-1.26,0.6801-1.6801c-1.2-0.52-2.38-1.02-3.54-1.51
		c-0.5699-3.08-1.0699-6.17-1.5299-9.26c-0.39-0.08-0.75-0.15-1.0901-0.1799c1.4501,2.87,1.8301,6.08,2.1901,9.26
		c-17.37-7.2001-34.0801-15.8401-51.11-23.78c-15.01-6.86-30.42-13.3-43.88-23c-6.3501-4.67-12.38-10.25-15.79-17.48
		c-2.38-4.87-2.39-10.4-2.85-15.67c-3.6-47.62,1.6699-95.37,8.99-142.4c7.47-4.8,14.62-10.09,21.47-15.73
		c11.76-10.15,23.99-19.93,33.88-32.01c0.28,0.1,0.84,0.29,1.12,0.39c1.63,3.3,0.9501,7.25,1.7001,10.81
		c8.58,83.28,24.23,165.69,43.8999,247.0099c-3.52-17.7699-8.38-35.2599-11.88-53.0399c-14.97-68.29-26.3099-137.4-33.01-207
		c9.5-11.2401,19.67-21.92,28.75-33.51c3.03,3.43,4.77,7.71,6.5701,11.87c-1.59,2.01-2.6,4.39-3.1901,6.88
		c1.76-0.96,3.52-1.98,5.1001-3.25c2.1899,4.72,4.33,9.47,6.51,14.21c1.9099-2.38,4.2-4.92,4.3899-8.11
		c-0.8999-4.16-3.0399-7.91-5.09-11.58c6.23-5.75,12.77-11.21,18.3-17.68c5.4299-6.24,11.98-11.43,17.12-17.94
		c6.1899-7.11,12.1699-14.41,18.76-21.15c2.37-2.82,4.47-6.03,7.9099-7.68c-0.9399,5.6-1.7699,11.22-3.0499,16.7599
		c-1.5801,6.04-2.03,12.41-4.61,18.17c-4.4,9.98-7.4,20.61-13,30.05c-4.8101,8.05-8.25,17.19-15.3301,23.63
		c-4.0399,3.59-7,8.23-11.2899,11.54c-2.49-4.76-3.4-10.16-6.12-14.79c-1.8,1.76-4.4801,3.12-5.2101,5.66
		c0.49,2.77,1.6901,5.36,2.54,8.05c0.73,1.8701,1.0599,4.23,3.05,5.28c-4.38,2.53-8.6801,5.22-12.62,8.4
		c4.6599,0.49,9.35,0.21,14.0299-0.02c1.8,5.23,2.9401,10.66,4.9,15.84c2.04-1.8199,3.9301-3.8,5.67-5.91
		c-0.8201-3.32-1.65-6.63-2.53-9.91c9.3-1.36,17.92-5.33,26.96-7.7c5.85-1.46,10.35-5.71,15.5-8.61c6.5601-4.8,14.12-8.17,20-13.9
		c7.63-7.42,15.25-14.87,22.74-22.43c4.54-4.48,6.7001-10.6,9.7301-16.07C1320,791.56,1329.98,773.5,1338.99,754.96 M1215.86,905.99
		c1.83,11.64,4.5701,23.12,6.55,34.74c3.24,20.7,6.5299,41.42,8.51,62.29c1.9299,14.3,2.49,28.75,4.45,43.0499
		c2.13-8.5199,5.88-17.12,4.4401-26.0599c-3.7101-38.46-8.42-76.95-17-114.67C1220.48,905.54,1218.16,905.75,1215.86,905.99
		 M1386,1112.9301c2.3,0.22,5.17-0.2401,5.6899-2.9501c0.42-4.64-0.1-9.3199-0.21-13.96
		C1388.67,1101.26,1387.4399,1107.1899,1386,1112.9301 M1353.36,1116.01c1.78-3.85,2.33-8.1,2.7001-12.27
		C1351.2,1106.01,1353.05,1111.8101,1353.36,1116.01 M1263.21,1145.21c-0.09,2.13,3.3401,0.1801,0.8501-0.4399L1263.21,1145.21z"/>
	<path fill="#886664" stroke="#886664" stroke-width="0.0938" d="M561.52,735.73c1.65,2.55,2.39,5.52,3.15,8.42
		c6.43,21.3,14.49,42.06,22.38,62.84c3.74,7.29,6.69,15.19,12.05,21.51c1.91-3.98-0.8-7.82-2.11-11.48
		c-4.89-13.63-7.61-27.99-8.2-42.45c5.11,2.98,6.9901,8.79,10.2,13.4c6.63,8.35,13.91,16.17,20.41,24.6201
		c4.42,4.22,8.23,9.0699,13.0099,12.9c-1.79,4.27-1.71,8.99-2.44,13.51c-4.4,31.8-5.5699,63.92-6.58,95.97
		c-0.14,13.73-0.05,27.46-0.43,41.1801c-3.2401-6.75-6.65-13.4-9.65-20.25c-6.06-13.54-13.57-26.63-16.93-41.2
		c-3.57-13.26-7.5-26.41-11.15-39.64c-3.71-14.26-7.16-28.58-10.42-42.94c-2.93-16.02-6.6-31.92-8.64-48.11
		C564.06,768,560.58,751.96,561.52,735.73z"/>
	<path fill="#886664" stroke="#886664" stroke-width="0.0938" d="M731.22,806.28c5.69,8.35,11.96,16.29,18.32,24.14
		c10.77,12.91,21.57,25.87,33.78,37.46c-0.05,26.4-0.58,52.79-0.68,79.18c-1.24,26.29-1.3,52.62-2.39,78.92
		c-0.24,15.6901-1.19,31.37-1.55,47.0701c-0.53,9.9399-0.57,19.9099-1.54,29.83c-19.52,9.46-39.09,18.83-59.04,27.33
		c0.23,0.28,0.7,0.86,0.94,1.14c3.2,7.86,8.35,14.67,12.73,21.88c6.08,9.2001,11.85,18.66,18.48,27.48
		c10.08,10.2001,20.6,20,31.58,29.24c-9.49-3.12-18.73-6.97-27.81-11.09c-9.59-5.13-18.34-11.67-27.74-17.14
		c-5.94-4.0399-12.54-7.27-17.82-12.1899c-7.18-8.73-14.49-17.41-20.97-26.6901c-0.29-0.0499-0.87-0.14-1.16-0.1899
		c0.14-0.4601,0.4301-1.37,0.57-1.8301c-5.03,1.0701-10.03,2.2401-15.09,3.14c0.17,0.39,0.52,1.16,0.69,1.54
		c4.75,11.47,9.73,22.84,14.7,34.21c2.8,6.16,5.23,12.53,8.92,18.25c7.63,12.9301,15.79,25.54,23.81,38.2201
		c-7.18-7.5701-13.22-16.12-19.71-24.26c-4.41-5.9701-9.12-11.7201-13.21-17.9c-7.64-12.8201-14.98-25.8101-22.16-38.89
		c-1.63-2.88-2.86-6.09-5.43-8.3c0.49,7.62,1.96,15.17,3.24,22.6901c3,10.13,6.39,20.15,9.59,30.22
		c5.74,19.11,15.11,36.83,22.67,55.24c-6.6-8.09-13.05-16.3099-19.26-24.6899c-4.05-6.39-7.51-13.13-11.27-19.6901
		c-4.1299-8.2999-9.8-15.6799-14.94-23.35c-0.28-0.47-0.86-1.42-1.15-1.89c-5.1-7.64-9.98-15.42-15.06-23.0699
		c-0.84-1.3501-1.62-2.75-2.37-4.12c-1.53-2.89-3.31-5.62-4.98-8.41c-1.34-0.04-2.67-0.05-3.99-0.04
		c1.41-0.24,2.66-0.9099,3.92-1.5599c-11.29-0.3301-22.6,0.73-33.84,1.6799c-3.55,0.5801-7.52,0.16-10.61,2.28
		c0.92,0.0699,2.75,0.21,3.67,0.27c-0.63,0.13-1.89,0.39-2.52,0.52c7.9901,19.77,15.85,39.6,24.27,59.1899
		c0.8,1.9501,1.52,3.9501,2.18,5.97c-6.65-9.7999-12.92-19.85-19.17-29.8999c-3.43-5.24-6.16-10.9501-10.2-15.75
		c-4.48-5.4301-8.83-10.9601-13.13-16.53c-0.29-0.34-0.86-1.03-1.15-1.38c-2.06,0.49-4.08,1.14-6.11,1.77
		c0.14,0.39,0.42,1.1799,0.55,1.5699c3.23,9.1801,6.53,18.3301,9.87,27.4601c1.55,4.2799,3.38,8.48,4.39,12.9399
		c-6.82-12.7-13.24-25.61-19.69-38.5c-0.2-0.36-0.61-1.08-0.81-1.4399c-10.89,4.0299-20.9,10.34-29.57,18.0399
		c-0.59-6.48,0.02-12.99-0.54-19.46c-4.61-30.3-9.43-60.58-13.96-90.89c0.44-2.05,1.04-4.05,1.66-6.04
		c3.17,4.4601,5.87,9.28,9.61,13.3301c4.74,5.2799,8.72,11.1899,13.63,16.33c3.66,3.72,6.35,8.38,10.71,11.41
		c-2.23-6.3-6.8-11.29-10.35-16.8301c-3.96-5.1399-6.82-10.98-10.55-16.2699c-2.3-4.5801-6.33-8-8.43-12.6901
		c-2.05-4.54-5.18-8.55-6.65-13.35c4.31,3.47,6.72,8.59,10.24,12.76c5.36,6.59,9.5099,14.39,16.53,19.4399
		c7.8,6.1801,16.29,11.54,23.26,18.7001c2.84,3.1799,5.49,6.5399,8.51,9.5699c-0.3,5.0601,1.2,9.97,1.94,14.9301
		c1,6.61,3.26,12.97,6.25,18.9399c0.29-9.14-0.69-18.27-1.38-27.37c0.08-0.52,0.24-1.5699,0.32-2.1
		c-0.08-0.72-0.17-1.4301-0.27-2.11c-0.97-8.2101-0.49-16.49-1.11-24.7101c-0.43-5.98-0.33-11.97-0.54-17.96
		c-0.14-5.11-0.81-10.27,0.19-15.33c8.61,7.53,15.27,16.9199,23.61,24.72c4.22,3.8,7.39,8.59,11.53,12.48
		c4.34,4.01,7.33,9.2001,11.53,13.35c4.58,4.53,8.1,9.9701,12.02,15.05c7.32,9.6,14.81,19.37,24.42,26.79
		c-3.42-8.7101-9.36-16.1001-14.04-24.13c-5.33-7.36-8.85-15.77-13.17-23.7001c-3.41-5.7999-6.03-12-9.39-17.8099
		c-3.57-6.74-5.67-14.11-8.37-21.2101c0.5,0.14,1.5,0.42,2,0.5601c8.08,9.66,15.32,19.98,23.21,29.79
		c3.53,5.1,7.05,10.2799,11.51,14.6499c4.97,4.9,8.96,10.77,14.34,15.25c1.61-0.87,0.19-2.2899-0.41-3.24
		c-5.98-8.6499-12.82-16.6799-18.41-25.61c-3.69-5.38-6.8-11.12-10.46-16.51c-5.8-9.26-12.4-18.08-16.87-28.09
		c-3.41-6.53-7.19-12.85-10.65-19.35c-4.03-7.95-9.44-15.56-10.31-24.69c8.89,10.62,15.23,23.13,23.96,33.8799
		c7.4,8.3401,14.11,17.27,21.67,25.4601c5.92,5.71,11.47,11.7999,17.51,17.38c8.07,6.12,16.88,11.1899,25.18,16.98
		c8.05,5.5399,15.5,11.9299,23.93,16.9199c5.75,3.37,10.9,8.27,17.64,9.53c-5.06-5.24-10.07-10.5-15.42-15.4299
		c0.98-2.0901,1.28-4.39,1.38-6.66c6.04-72.26,9-144.73,13.9-217.08c-2.24-0.01-4.46,0.06-6.68,0.14
		c-4.4,65.29-7.21,130.68-12.14,195.94c-0.64,7.1799-0.69,14.4399-2.15,21.52c-4.1299-3.3401-7.89-7.11-11.03-11.39
		c-4.47-6.17-9.7-11.75-14.02-18.02c-5.64-7.9399-12.15-15.21-17.8-23.13c-5.08-8.17-10.78-15.92-15.83-24.1
		c-5.25-8.76-11.98-16.71-15.6-26.36c0.85-11.48,0.09-23.02,0.44-34.52c0.03-35.69,1.27-71.43,5.25-106.92
		c0.65-6.73,1.92-13.39,2.28-20.14c2.69,1.76,5.1801,3.8,7.83,5.63c3.54,2.42,7.72,3.59,11.57,5.41c4.26,1.88,8.35,4.41,13.03,5.12
		c4,0.68,8.02,1.26,12.0099,2.09c12.4901,2.72,25.33,1.03,38,1.63c-0.02,5.08-0.72,10.13-0.85,15.21c-0.04,3.66,3.35,5.9,5.72,8.19
		c1.6801-15.03,2.34-30.18,3.8-45.25C729.48,820.08,729.42,813.03,731.22,806.28 M657.32,1097.14c0.59-3.91,0.98-7.9401,0.28-11.85
		c-1.06-3.53-2.9-6.76-4.33-10.13C653.94,1082.53,653.84,1090.41,657.32,1097.14 M659.27,1146.26
		C659.81,1146.78,659.81,1146.78,659.27,1146.26z"/>
	<path fill="#886664" stroke="#886664" stroke-width="0.0938" d="M789.87,903.04c0.37-9.5099-0.43-19.07,0.61-28.54
		c13.3,11.92,27.67,22.55,42.37,32.66c5.59,37.21,10.13,74.77,9.42,112.47c-4.13,10.65-5.82,22.04-8.75,33.05
		c-1.3,7-4.27,13.73-4.21,20.95c-12.77,11.8199-29.16,18.47-44.61,25.96c-0.48-7.88,0.56-15.75,0.65-23.61
		C787.29,1018.34,789.54,960.71,789.87,903.04z"/>
	<path fill="#886664" stroke="#886664" stroke-width="0.0938" d="M1421.47,950.51c5.64-9.81,8.53-20.91,14.25-30.67
		c-0.0499,2.23,0.27,4.47,0.8,6.66c-1.0701,4.12-2.24,8.24-3.8101,12.21c-7.1599,20.82-14.4099,41.6-22.1499,62.22
		c-3.88,9.53-8.2001,18.87-12.25,28.33c-3.75,8.14-6.66,16.78-11.9301,24.13c-9.72,13.24-19.21,26.66-28.33,40.3199
		c0.5399-2.5399,0.5299-5.1499,0.3199-7.72c-1.14-14.4-2.29-28.8-3.53-43.1899c7.55-8.0601,15.77-15.4801,23.28-23.5801
		c5-6.98,10.41-13.66,15.6901-20.45c5.1-6.15,8.71-13.32,12.72-20.19C1411.8,969.37,1416.28,959.75,1421.47,950.51z"/>
	<path fill="#886664" stroke="#886664" stroke-width="0.0938" d="M490.15,923.48c5.1,9.79,9.29,20.03,14.39,29.84
		c4.5,9.37,9.62,18.41,14.52,27.57c4.34,9.73,11.59,17.64,17.76,26.2c6.11,7.79,12.03,15.85,19.44,22.4799
		c-0.19,4.3501,0.5,8.65,0.99,12.9601c3.54-0.4301,5.8-3.5901,4.97-7.0801c1.17,1.2101,2.29,2.4801,3.47,3.7101
		c-0.27,2.65-0.37,5.34-0.23,8.02c0.68,10.2599,0.38,20.5599,0.94,30.84c0.3199,5.37,0.47,10.75,0.42,16.14
		c-5.62-6.89-9.49-14.9701-15.01-21.92c-5.4-6.71-9.72-14.1899-15.15-20.87c-4.7-5.74-6.3799-13.1-9.52-19.66
		c-5.05-10.78-10.06-21.6-13.94-32.8699c-5.5-15.6801-12.38-30.86-17.23-46.77c-1.4-5.24-3.71-10.18-5.17-15.4
		C491.04,932.25,490.45,927.87,490.15,923.48z"/>
	<path fill="#886663" stroke="#886663" stroke-width="0.0938" d="M821.4,331.12c3.05,14.98,4.86,30.2,7.31,45.28
		c3.05,9.08,5.94,18.21,8.43,27.47c4.34,11.78,9.55,23.23,14,34.97c4.24,10.61,9.32,20.86,13.57,31.46
		c5.72,9.6,9.79,20.3,17.29,28.74c2.7,3.61,5.1,7.53,8.76,10.3c-0.17,9.83,1.83,19.53,2.41,29.32
		c-5.13-6.44-10.21-12.95-14.96-19.68c-5.35-9.54-11.11-18.9-15.2-29.07c-0.46-1.06-0.9-2.11-1.33-3.15
		c-6.27-14.08-11.93-28.41-17.71-42.7c-6.22-14.19-9.68-29.37-14.28-44.12c-1.68,2.69-3.44,5.34-5.13,8.02
		c-1.27-7.59-1.36-15.28-2.12-22.91c-0.39-5.35-1.12-10.68-1.23-16.05C821.11,356.37,820.29,343.72,821.4,331.12z"/>
	<path fill="#886663" stroke="#886663" stroke-width="0.0938" d="M951.93,1162.15c-1.13-3.98-0.97-8.1901-0.08-12.1901
		C951.56,1154.01,951.58,1158.09,951.93,1162.15z"/>
	<path fill="#FEF8EC" stroke="#FEF8EC" stroke-width="0.0938" d="M1081.6,379.9c8.01,12.8,15.25,26.1,24.15,38.33
		c4.63,7,9.99,13.54,14.21,20.8c4.2201,12.37,7.51,25.08,11.8101,37.43c5.28,11.63,10.65,23.22,16.13,34.76
		c0.48,1.16,1.12,2.38,0.75,3.69l-0.35,0.28c-15.3201-7.26-30.92-14.11-47.29-18.73c-15.08-4.37-30.5701-7.44-46.21-8.89
		c-1.1101-0.31-2.2101-0.56-3.3-0.75c3.74-12.47,8.15-24.74,12.0699-37.16c4.0801-11.28,6.3401-23.08,9.42-34.64
		C1075.76,403.29,1079.13,391.7,1081.6,379.9z"/>
	<path fill="#FEF8EC" stroke="#FEF8EC" stroke-width="0.0938" d="M752.26,389.87c0.47-0.05,1.42-0.14,1.89-0.19
		c2.66,3.22,3.29,7.52,4.3,11.46c5.15,24.18,7.32,48.87,12.01,73.14c1,4.35,1.5,9.09,4.41,12.69c5.14-8.3,9.65-16.98,14.55-25.42
		c4.36-7.44,8.02-15.34,13.51-22.05c5.92,17.75,11.36,35.66,17.47,53.33c-30.65,6.96-59.6,20.13-86.08,36.9
		c1.12-9.31,2.52-18.61,4.57-27.76c0.78-3.69,2.37-7.17,2.88-10.92c2-30.61,2.99-61.4,7.89-91.73
		C750.36,396.13,751.45,393.03,752.26,389.87z"/>
	<path fill="#FEF8EC" stroke="#FEF8EC" stroke-width="0.0938" d="M824.56,407.96c1.69-2.68,3.45-5.33,5.13-8.02
		c4.6,14.75,8.06,29.93,14.28,44.12c5.78,14.29,11.44,28.62,17.71,42.7c-8.7,0.69-17.4,1.56-26.01,3.02
		c-1.72-9.23-3.46-18.47-5.2-27.7c-1.28-7.01-2.97-13.97-3.3199-21.11C826.38,429.96,825.08,418.98,824.56,407.96z"/>
	<path fill="#FEF8EC" stroke="#FEF8EC" stroke-width="0.0938" d="M1182.12,410.73c7.2,11.56,14.15,23.28,21.28,34.88
		c5.9,7.77,13.28,14.32,19.12,22.15c4.64,15.13,9.24,30.29,14.1799,45.34c2.63,6.31,1.5,13.26,0.63,19.81
		c-2.24,14.06-5.75,27.8701-9.0599,41.71c-15.5801-15.24-32.1801-29.6-50.48-41.5c-0.78-1.23-1.23-2.62-1.17-4.06
		c-0.54-20.7-0.73-41.41-0.33-62.11C1177.02,448.14,1177.21,429.03,1182.12,410.73z"/>
	<path fill="#FEF8EC" stroke="#FEF8EC" stroke-width="0.0938" d="M986.25,479.95c1.8-11.41,3.43-22.89,5.86-34.18
		c3.56,13.39,6.58,26.91,10.22,40.28c-0.01,0.51-0.05,1.54-0.06,2.06c-2.88-0.02-5.72,0.29-8.56,0.67c0.03,1.01,0.07,2.03,0.12,3.05
		c3.18-0.25,6.36-0.61,9.54-0.97c1.99,8.77,4.19,17.49,6.22,26.25c1.7599,8.3,5.56,15.95,8.42,23.89c2.4,5.55,3.76,11.65,7.48,16.54
		c3.11,4.28,6.14,8.62,9.14,12.98c-8.41,5.84-15.64,13.27-21.48,21.67c-0.53,1.21-2.41,2.38-1.37,3.82c0.73,0.19,2.2,0.57,2.93,0.76
		c-0.78,3.69-1.52,7.39-2.06,11.13c3.67-1.27,4.37-5.9901,6.68-8.83c-0.13,4.53-0.53,9.05-0.5,13.59c2.95-1.43,3.71-4.96,5.54-7.45
		c0.53,3.04,0.88,6.11,0.98,9.2c6.36-10.12,11.51-21.34,20.51-29.48c5.01-4.75,11.46-7.47,17.97-9.48
		c-3.2999,5.39-8.0499,9.76-11,15.39c-8.4199,14.46-10,31.89-7.2699,48.16c0.49,0.8,0.83,1.67,1.0199,2.6
		c-0.64,1.34-1.2999,2.7401-0.89,4.28c1.0701,10.65,4.79,20.74,8.8,30.58c6.09,15.21,16.37,29.82,31.9,36.39
		c-15.22-0.8-30.49-1.44-45.72-0.48c1.5299,1.98,3.0699,3.97,4.5299,6.02c-1.7699,0.75-4.01,1.04-4.99,2.95
		c25.51,4.98,51.79,3.15,77.3401,7.9c9.08,1.38,17.73,4.51,26.35,7.53c-0.12-3.3-4.0601-6.25-1.8301-9.58
		c3.03-3.89,8.37-4.54,12.8501-5.7c-4.9701-1.4-9.6001-4.15-14.86-4.27c-11.1801-0.75-22.3301-1.81-33.4901-2.77
		c14.75-3.41,25.9-15.15,32.8501-28.07c9.58-17.75,13.0199-38.35,12.0299-58.35c-0.97-18.4301-6.0399-36.91-16.3899-52.33
		c9.9199,4.04,19.2599,9.4,27.8999,15.71c4.5901,3.1801,8.1001,8.04,9.0801,13.6c1.51,8.41-1.3101,16.81-4.4301,24.52
		c-0.58,1.6899-1.84,3.48-0.78,5.29c10.3-10.24,18.64-22.61,30.8-30.87c-15.3199-8.86-22.39-27.37-38.78-34.79
		c-17.48-7.43-35.4399-15.86-54.87-15.52c-21.95,0.42-44.8099,2.66-64.28,13.67c0.9301-15.76,1.92-31.5,2.8-47.26
		c-0.1801-10.36,4.91-19.69,7.65-29.45c1.2899,0.01,2.6,0.05,3.9199,0.1c38.9301,3.55,76.67,16.94,109.9801,37.26
		c22.6699,13.72,43.35,30.55,62.1899,49.15c0.28,0.4,0.84,1.2,1.12,1.6c-3.3199,12.7-6.38,25.49-8.74,38.4
		c-1.25,7.87-2.98,16.08-0.7,23.93c2.46,9.18,4.46,18.47,7.0299,27.63c-1.5499,8.49-4.13,16.76-6.1699,25.14
		c-6,19.46-12.3101,38.82-18.36,58.27c6.62-8.79,12.1499-18.35,18.5499-27.3l0.11,1.14c-5.5499,18.02-11.5499,35.9-16.9099,53.98
		c6.34-9.41,12.1499-19.21,19.1-28.1801c-9.41,17.75-16.8201,36.65-28.46,53.14c-11.01,16.04-24.1201,30.48-37.02,44.99
		c-5.3501,5.95-10.4501,12.15-16.29,17.64c-18.03,16.65-37.09,32.49-58.73,44.29c-27.5801,15.0699-53.76,32.79-82.63,45.41
		c-10.8,4.78-20.98,11.07-32.3,14.61c-4.79,1.65-9.84,0.15-14.41-1.43c-9.99-3.66-19.14-9.19-28.49-14.18
		c-47.66-24.09-95.29-49.97-134.91-86.27c-13.65-12.42-25.48-26.63-37.28-40.77c-10.9-13.32-21.14-27.2401-29.78-42.14
		c-5.28-8.93-9.7599-18.29-14.35-27.57c-6.44-13.13-12.7-26.35-18.17-39.91c-0.41-1.32-0.83-2.6201-1.23-3.92
		c0.97-5.6,2.4301-11.11,3.8101-16.62c4.72-19.04,9.46-38.08,14.23-57.1c0.96-3.32-0.28-6.71-0.75-9.99
		c-3.87-22.09-7.62-44.2-11.09-66.36c4.65-4.04,9.15-8.25,14.1-11.92l0.74-0.24c2.52,6.7,4.78,13.5,7.4,20.17
		c2.04,5.09,3.85,10.43,7.52,14.63c3.15-6.14,4.17-13.04,5.51-19.73c1.92-11.27,3.47-22.61,4.82-33.96c0.33-0.25,1-0.74,1.33-0.99
		c26.35-17.62,55.91-30.56,86.8199-37.69c6.78,15.19,13.41,30.45,20.26,45.62c-1.75-12.69-4.74-25.18-6.81-37.83
		c1.67,3.46,3.19,6.97,4.72,10.5c-0.49-7.18-2.36-14.16-3.58-21.22c8.86-1.42,17.79-2.41,26.76-2.97
		c4.09,10.17,9.85,19.53,15.2,29.07c4.75,6.73,9.83,13.24,14.96,19.68c-0.58-9.79-2.58-19.49-2.41-29.32
		c0.15-6.51-1.2-12.93-1.55-19.42c0.95,0.04,2.84,0.1,3.79,0.13c0.5,0.04,1.49,0.1,1.99,0.13c2.74,8.67,5.32,17.41,9.22,25.65
		c4.1,8.77,6.72,18.38,12.66,26.17c3.46,4.95,6.76,10.01,10.22,14.96c2.8799,4.06,5.3199,8.5,9,11.93
		c5.1,4.89,9.98,9.99,15.0699,14.89c4.1,3.92,7.73,8.4,12.53,11.54c8.12,5.49,16.24,11.01,24.38,16.48
		c-1.09-9.51-2.88-18.91-4.03-28.41c0.52,0.2,1.56,0.6,2.08,0.81c-0.83-7.59-2.4-15.08-2.96-22.7
		c-0.12-12.16,0.15-24.33,0.3701-36.49C983.51,509.95,985.17,494.96,986.25,479.95 M752.31,569.31
		c-16.16,7.55-23.2,25.79-38.38,34.65c11.03,7.6,19.06,18.47,28.07,28.18c0.89,1.05,2.02,1.82,3.26,2.47
		c-0.03-3.08-1.86-5.72-2.75-8.58c-2.86-7.8-4.97-16.66-1.99-24.7401c2.07-5.71,7.13-9.44,12-12.66
		c8.27-5.57,17.04-10.56,26.52-13.76c-1.42,2.3-2.89,4.57-4.66,6.6c-9.93,11.35-15,26.48-15.18,41.46c-0.25,7,1.4,13.87,1.41,20.87
		c0.39,10.37,3.7,20.48,7.89,29.93c3.43,9.89,8.62,19.29,15.76,27c5.61,6.33,13.06,10.67,20.94,13.57
		c-11.75,1-23.48,2.12-35.25,2.91c-5.28,0.07-9.88,2.97-14.88,4.27c4.62,1.29,10.55,1.81,13.21,6.39c1.8,3.32-2.6801,5.85-1.91,8.89
		c4.6-1.46,8.99-3.53,13.7-4.68c29.18-8.25,59.98-5.03,89.57-10.69c-0.42-2.31-3.16-2.06-4.78-2.86c1.3-2.1801,2.88-4.17,4.45-6.16
		c-14.08-0.87-28.2-0.44-42.28,0.32c14.42-5.66,24.28-18.89,30.4-32.64c7.17-16.28,9.81-34.34,8.9-52.04
		c-0.95-18.18-5.91-36.4-15.98-51.7c5.92,1.94,11.53,4.95,16.04,9.28c8.6,8,13.32,18.98,19.83,28.53
		c-0.03-2.99,0.23-5.97,1.1801-8.82c1.64,2.42,2.29,6.16,5.27,7.22c0.01-4.52-0.42-9.02-0.42-13.54c2.22,2.85,2.93,7.65,6.49,8.93
		c-0.36-3.8799-1.25-7.68-2.01-11.49c0.77,0.02,2.3,0.06,3.06,0.08c0.13-1.09-0.05-2.08-0.55-2.99
		c-9.38-14.22-23.05-25.68-39.07-31.65c-17.22-6.57-35.87-7.95-54.13-8.23C787,553.73,769.47,562.05,752.31,569.31 M944.6,716.61
		c-4.53,4.87-8.96,9.85-13.42,14.79c3.73,7.79,7.28,15.67,11.1,23.43c0.31-0.27,0.91-0.8,1.21-1.07
		c-3.29-7.4-6.86-14.67-10.32-21.99c4.27-5.11,9.14-9.7,13.24-14.96C945.96,716.76,945.05,716.66,944.6,716.61 M889.11,824.99
		c3.9,4,7.9,7.89,11.81,11.89c2.59-2.29-1.43-3.93-2.61-5.61c36.6-0.04,73.2-0.02,109.79-0.01c-1.41,1.41-2.84,2.8-4.22,4.25
		c0.42,0.19,1.25,0.56,1.66,0.75c3.83-3.77,7.63-7.58,11.38-11.43c-0.43-0.15-1.28-0.45-1.7-0.6c-1.8,1.55-3.39,3.32-5.0699,4.99
		c-37.38-0.03-74.76-0.03-112.13,0C894.09,829.96,892.81,822.17,889.11,824.99 M942.36,853.69c0.25,0.45,0.75,1.35,1,1.8
		c7.97,1.86,16.34,1.59,24.35,0.03c0.04-0.53,0.11-1.59,0.15-2.12C959.36,853.57,950.83,853.04,942.36,853.69z"/>
	<path fill="#FEF8EC" stroke="#FEF8EC" stroke-width="0.0938" d="M686.72,514.03c-0.16-4.1-0.95-8.48,1.08-12.26
		c3.51,4.43,5.4,9.82,7.49,15c4.19,10.88,7.86,21.95,11.79,32.92c-4.88,3.87-9.59,7.96-14.25,12.08
		C690.46,545.91,687.97,530.03,686.72,514.03z"/>
	<path fill="#FFF8EB" stroke="#FFF8EB" stroke-width="0.0938" d="M888.73,486.56c-0.87-12.32-3.15-24.53-3.3-36.9
		c2.41,12.47,4.1,25.18,8.5,37.15C892.19,486.73,890.45,486.64,888.73,486.56z"/>
	<path fill="#030000" stroke="#030000" stroke-width="0.0938" d="M1002.33,486.05c0.41,1.58,0.67,3.2,1.04,4.81
		c-3.18,0.36-6.36,0.72-9.54,0.97c-0.05-1.02-0.09-2.04-0.12-3.05c2.84-0.38,5.68-0.69,8.56-0.67
		C1002.28,487.59,1002.32,486.56,1002.33,486.05z"/>
	<path fill="#030000" stroke="#030000" stroke-width="0.0938" d="M1050.53,487.69c1.4-0.06,2.83-0.1,4.27-0.12
		c15.6399,1.45,31.13,4.52,46.21,8.89c16.37,4.62,31.97,11.47,47.29,18.73c0.35,0.17,1.0499,0.5,1.3999,0.67
		c8.4601,5.2,17.39,9.66,25.49,15.47c0.8301,0.62,1.6901,1.2,2.6001,1.79c18.2999,11.9,34.8999,26.26,50.48,41.5
		c-0.3,1.15-0.59,2.3-0.88,3.46l-1.15-0.97c-18.84-18.6-39.52-35.43-62.1899-49.15c-33.3101-20.32-71.05-33.71-109.9801-37.26
		C1052.2,490.41,1049.89,490.27,1050.53,487.69z"/>
	<path fill="#030000" stroke="#030000" stroke-width="0.0938" d="M734.32,529.73c26.48-16.77,55.43-29.94,86.08-36.9
		c0.39,0.99,0.81,1.98,1.2599,2.98c-30.91,7.13-60.47,20.07-86.8199,37.69l-1.09-0.24C733.92,532.06,734.13,530.9,734.32,529.73z"/>
	<path fill="#030000" stroke="#030000" stroke-width="0.0938" d="M692.83,561.77c4.66-4.12,9.37-8.21,14.25-12.08
		c0.39,1.27,0.58,2.59,0.44,3.93c-4.95,3.67-9.45,7.88-14.1,11.92C693.22,564.28,693.02,563.02,692.83,561.77z"/>
	<path fill="#030100" stroke="#030100" stroke-width="0.0938" d="M835.67,489.78c8.61-1.46,17.31-2.33,26.01-3.02
		c0.43,1.04,0.87,2.09,1.33,3.15c-8.97,0.56-17.9,1.55-26.76,2.97C836.1,492.11,835.82,490.56,835.67,489.78z"/>
	<path fill="#140907" stroke="#140907" stroke-width="0.0938" d="M888.73,486.56c1.72,0.08,3.46,0.17,5.2,0.25
		c0.34,1.12,0.7,2.24,1.06,3.37c-0.5-0.03-1.49-0.09-1.99-0.13c-1.33-0.13-2.66-0.34-3.95-0.55
		C888.97,488.77,888.81,487.3,888.73,486.56z"/>
	<path fill="#FEF7EC" stroke="#FEF7EC" stroke-width="0.0938" d="M1148.99,488.16c8.84,14.32,17.73,28.63,26.2,43.17
		c-8.1-5.81-17.0299-10.27-25.49-15.47C1149.98,506.62,1149.0699,497.4,1148.99,488.16z"/>
	<path stroke="#000000" stroke-width="0.0938" d="M752.31,569.31c17.16-7.26,34.69-15.58,53.73-15.68
		c18.26,0.28,36.91,1.66,54.13,8.23c16.02,5.97,29.69,17.43,39.07,31.65c0.5,0.91,0.68,1.9,0.55,2.99
		c-0.7599-0.02-2.29-0.06-3.06-0.08c0.76,3.81,1.65,7.61,2.01,11.49c-3.56-1.28-4.27-6.08-6.49-8.93c0,4.52,0.43,9.02,0.42,13.54
		c-2.98-1.06-3.63-4.8-5.27-7.22c-0.95,2.85-1.21,5.83-1.1801,8.82c-6.5099-9.55-11.23-20.53-19.83-28.53
		c-4.51-4.33-10.12-7.34-16.04-9.28c10.07,15.3,15.03,33.52,15.98,51.7c0.91,17.7-1.73,35.76-8.9,52.04
		c-6.12,13.75-15.98,26.98-30.4,32.64c14.08-0.76,28.2-1.19,42.28-0.32c-1.57,1.99-3.15,3.98-4.45,6.16
		c1.62,0.8,4.36,0.55,4.78,2.86c-29.59,5.66-60.39,2.44-89.57,10.69c-4.71,1.15-9.1,3.22-13.7,4.68c-0.77-3.04,3.71-5.57,1.91-8.89
		c-2.66-4.58-8.59-5.1-13.21-6.39c5-1.3,9.6-4.2,14.88-4.27c11.77-0.79,23.5-1.91,35.25-2.91c-7.88-2.9-15.33-7.24-20.94-13.57
		c-7.14-7.71-12.33-17.11-15.76-27c2.31,4.04,4.77,8.01,7.08,12.07c6.03,10.77,14.7,20.81,26.46,25.38
		c8.93,3.61,19.34,2.89,27.84-1.56c9.77-5.03,17.18-13.72,22.5-23.18c9.15-16.49,12.82-35.62,12.48-54.37
		c-0.47-19.92-5.56-40.21-17.19-56.63c-6.2-2.18-12.48-4.09-18.83-5.78c13.35,7.47,22.96,20.6201,27.02,35.27
		c3.1,10.29,2.7,21.13,2.78,31.76c-1.76,1.19-1.97,3.4-2.55,5.25c-3.66,14.2-12.42,27.46-25.21,34.96
		c-11.45,6.92-26.26,8.02-38.58,2.7599c-10.99-4.58-19.75-13.54-25.36-23.92c-2.4-4.38-3.9-9.16-5.72-13.79l-0.61,1.85
		c-0.01-7-1.66-13.87-1.41-20.87c0.18-14.98,5.25-30.11,15.18-41.46c1.77-2.03,3.24-4.3,4.66-6.6c-9.48,3.2-18.25,8.19-26.52,13.76
		c-4.87,3.22-9.93,6.95-12,12.66c-2.98,8.08-0.87,16.94,1.99,24.7401c0.89,2.86,2.72,5.5,2.75,8.58c-1.24-0.65-2.37-1.42-3.26-2.47
		c-9.01-9.71-17.04-20.58-28.07-28.18C729.11,595.1,736.15,576.86,752.31,569.31 M782.25,573.28
		C782.77,573.8,782.77,573.8,782.25,573.28 M765.18,624.26c-2.46,1.21-3.61,4.06-3.61,6.69c-0.08,5.75,2.77,11.08,6.12,15.58
		c3.96,4.95,9.07,9.41,15.34,11.02c3.16,0.81,7.15,0.39,9.0099-2.64c2.04-3.68,1.16-8.16-0.25-11.9
		c-2.75-6.74-7.65-12.63-13.8-16.51C774.23,624.29,769.44,622.29,765.18,624.26z"/>
	<path stroke="#000000" stroke-width="0.0938" d="M1039.7,567.31c19.4701-11.01,42.3301-13.25,64.28-13.67
		c19.4301-0.34,37.39,8.09,54.87,15.52c16.39,7.42,23.4601,25.9301,38.78,34.79c-12.16,8.26-20.5,20.63-30.8,30.87
		c-1.0599-1.81,0.2001-3.6,0.78-5.29c3.12-7.71,5.9401-16.11,4.4301-24.52c-0.98-5.56-4.49-10.42-9.0801-13.6
		c-8.64-6.31-17.98-11.67-27.8999-15.71c10.35,15.42,15.4199,33.9,16.3899,52.33c0.99,20-2.45,40.6-12.0299,58.35
		c-6.9501,12.92-18.1001,24.66-32.8501,28.07c11.16,0.96,22.3101,2.02,33.4901,2.77c5.2599,0.1201,9.8899,2.8701,14.86,4.27
		c-4.4801,1.16-9.8201,1.81-12.8501,5.7c-2.23,3.33,1.7101,6.28,1.8301,9.58c-8.62-3.02-17.27-6.15-26.35-7.53
		c-25.55-4.75-51.8301-2.92-77.3401-7.9c0.98-1.91,3.2201-2.2,4.99-2.95c-1.46-2.05-3-4.04-4.5299-6.02
		c15.23-0.96,30.5-0.32,45.72,0.48c-15.53-6.5699-25.8101-21.18-31.9-36.39c0.24,0.09,0.71,0.28,0.9401,0.37
		c1.8199,2.93,3.4399,5.97,5.24,8.91c5.08,9.05,11.86,17.47,20.9199,22.77c7.5,4.47,16.6901,6.17,25.23,4.11
		c12.51-2.97,22.29-12.54,28.9-23.18c11.1801-18.28,15.15-40.23,14.0601-61.43c-0.92-17.63-5.66-35.35-15.39-50.21
		c-1-1.33-1.8-3.04-3.46-3.61c-6.4801-2.52-13.28-4.06-19.9701-5.87c14.52,6.61,25.0801,20.16,29.61,35.28
		c2.92,8.97,3.2101,18.48,3.16,27.83c-1.96,8.34-3.6699,16.86-7.9299,24.41c-7.88,15-23.3501,26.97-40.77,27.08
		c-13.14,0.56-25.9601-5.75-34.63-15.43c-6.79-7.23-11.3-16.36-13.8201-25.89c-0.1899-0.93-0.5299-1.8-1.0199-2.6
		c-2.7301-16.27-1.15-33.7,7.2699-48.16c2.9501-5.63,7.7001-10,11-15.39c-6.51,2.01-12.96,4.73-17.97,9.48
		c-9,8.14-14.15,19.36-20.51,29.48c-0.1-3.09-0.45-6.16-0.98-9.2c-1.83,2.49-2.59,6.02-5.54,7.45c-0.03-4.54,0.37-9.06,0.5-13.59
		c-2.31,2.84-3.01,7.56-6.68,8.83c0.54-3.7401,1.28-7.44,2.06-11.13c-0.73-0.19-2.2-0.57-2.93-0.76c-1.04-1.44,0.84-2.61,1.37-3.82
		c5.84-8.4,13.0699-15.83,21.48-21.67c1.41,2.01,2.92,3.94,4.47,5.86C1039.33,573.35,1039.52,570.33,1039.7,567.31 M1049.64,624.67
		c-2.9301,2.03-3.37,6.06-2.74,9.3c1.3199,7.1201,5.74,13.32,11.09,18.04c4.1801,3.46,9.48,6.65,15.13,5.7
		c3.13-0.57,5.13-3.78,5.22-6.8c0.1901-4.18-1.3099-8.25-3.3199-11.84c-3.6801-6.34-9.17-11.88-16.0601-14.6
		C1056.02,623.35,1052.39,622.82,1049.64,624.67z"/>
	<path fill="#FEFEFF" stroke="#FEFEFF" stroke-width="0.0938" d="M1110.96,568.32c6.6901,1.81,13.49,3.35,19.9701,5.87
		c1.6599,0.57,2.46,2.28,3.46,3.61c9.73,14.86,14.47,32.58,15.39,50.21c1.09,21.2-2.88,43.15-14.0601,61.43
		c-6.61,10.64-16.39,20.21-28.9,23.18c-8.5399,2.06-17.73,0.36-25.23-4.11c-9.0599-5.3-15.84-13.72-20.9199-22.77
		c5.6899,5.61,11.36,11.58,18.8999,14.7c11.2001,5.1,24.8301,3.98,35.15-2.68c13.89-8.74,22.42-23.96,26.49-39.52
		c2.14-8.73,3.5701-17.83,2.52-26.81c0.05-9.35-0.24-18.86-3.16-27.83C1136.04,588.48,1125.48,574.93,1110.96,568.32z"/>
	<path fill="#FEFEFE" stroke="#FEFEFE" stroke-width="0.0938" d="M855.86,604.93c-4.06-14.65-13.67-27.8-27.02-35.27
		c6.35,1.69,12.6299,3.6,18.83,5.78c11.63,16.42,16.72,36.71,17.19,56.63c0.34,18.75-3.33,37.88-12.48,54.37
		c-5.32,9.46-12.73,18.15-22.5,23.18c-8.5,4.45-18.91,5.17-27.84,1.56c-11.7599-4.57-20.43-14.61-26.46-25.38
		c5.27,4.97,10.2,10.53,16.87,13.69c11.13,5.83,25.13,5.45,35.91-1c14.4-8.39,23.27-23.83,27.56-39.54
		c1.78-7.26,3.35-14.76,2.72-22.26C858.56,626.06,858.96,615.22,855.86,604.93z"/>
	<path fill="#515153" stroke="#515153" stroke-width="0.0938" d="M782.25,573.28C782.77,573.8,782.77,573.8,782.25,573.28z"/>
	<path fill="#FEFFFF" stroke="#FEFFFF" stroke-width="0.0938" d="M765.18,624.26c4.26-1.97,9.05,0.03,12.81,2.24
		c6.15,3.88,11.05,9.77,13.8,16.51c1.41,3.74,2.29,8.22,0.25,11.9c-1.86,3.03-5.85,3.45-9.0099,2.64
		c-6.27-1.61-11.38-6.07-15.34-11.02c-3.35-4.5-6.2-9.83-6.12-15.58C761.57,628.32,762.72,625.47,765.18,624.26z"/>
	<path fill="#655A9D" stroke="#655A9D" stroke-width="0.0938" d="M1143.73,631.43c1.05,8.98-0.38,18.08-2.52,26.81
		c-4.0699,15.56-12.6,30.78-26.49,39.52c-10.3199,6.66-23.95,7.78-35.15,2.68c-7.5399-3.12-13.21-9.09-18.8999-14.7
		c-1.8-2.94-3.42-5.98-5.24-8.91c-0.2301-0.09-0.7001-0.28-0.9401-0.37c-4.01-9.84-7.73-19.93-8.8-30.58
		c-0.4099-1.54,0.25-2.94,0.89-4.28c2.52,9.53,7.03,18.66,13.8201,25.89c8.6699,9.68,21.49,15.99,34.63,15.43
		c17.4199-0.11,32.89-12.08,40.77-27.08C1140.0601,648.29,1141.77,639.77,1143.73,631.43z"/>
	<path fill="#655A9D" stroke="#655A9D" stroke-width="0.0938" d="M856.09,641.94c0.58-1.85,0.79-4.06,2.55-5.25
		c0.63,7.5-0.94,15-2.72,22.26c-4.29,15.71-13.16,31.15-27.56,39.54c-10.78,6.45-24.78,6.83-35.91,1
		c-6.67-3.16-11.6-8.72-16.87-13.69c-2.31-4.06-4.77-8.03-7.08-12.07c-4.19-9.45-7.5-19.56-7.89-29.93l0.61-1.85
		c1.82,4.63,3.32,9.41,5.72,13.79c5.61,10.38,14.37,19.34,25.36,23.92c12.32,5.26,27.13,4.16,38.58-2.7599
		C843.67,669.4,852.43,656.14,856.09,641.94z"/>
	<path fill="#876663" stroke="#876663" stroke-width="0.0938" d="M1228.49,709.47c1.62-2.55,3.49-4.98,6-6.72
		c-1.59,13.09-2.77,26.3-6.4299,39.02c-0.16-0.08-0.4801-0.24-0.64-0.32c-2.1801,3.34-4.2301,6.77-6.15,10.27
		c-6.9501,8.97-12.76,18.77-19.1,28.1801c5.36-18.08,11.36-35.96,16.9099-53.98C1221.08,719.85,1225.04,714.76,1228.49,709.47z"/>
	<path fill="#876663" stroke="#876663" stroke-width="0.0938" d="M1209.12,780.06c5.46-11.23,10.98-22.43,16.76-33.49
		c0.23,6.07-2.5601,11.61-3.88,17.41c-2.1,8.86-5.53,17.3-8.26,25.97c-2.21,6.66-5.05,13.11-8.84,19.03
		c-3.4301,5.26-5.54,11.31-9.5801,16.18c-2.25-3.81-4.47-7.64-6.72-11.45C1196.45,803.15,1203.54,791.99,1209.12,780.06z"/>
	<path fill="#040100" stroke="#040100" stroke-width="0.0938" d="M944.6,716.61c0.45,0.05,1.36,0.15,1.81,0.2
		c-4.1,5.26-8.97,9.85-13.24,14.96c3.46,7.32,7.03,14.59,10.32,21.99c-0.3,0.27-0.9,0.8-1.21,1.07
		c-3.82-7.76-7.3701-15.64-11.1-23.43C935.64,726.46,940.07,721.48,944.6,716.61z"/>
	<path fill="#040100" stroke="#040100" stroke-width="0.0938" d="M889.11,824.99c3.7-2.82,4.98,4.97,8.91,4.23
		c37.37-0.03,74.75-0.03,112.13,0c1.68-1.67,3.27-3.4399,5.0699-4.99c0.42,0.15,1.27,0.45,1.7,0.6c-3.75,3.85-7.55,7.66-11.38,11.43
		c-0.41-0.19-1.24-0.56-1.66-0.75c1.38-1.45,2.81-2.84,4.22-4.25c-36.59-0.01-73.19-0.03-109.79,0.01c1.18,1.68,5.2,3.32,2.61,5.61
		C897.01,832.88,893.01,828.99,889.11,824.99z"/>
	<path fill="#040100" stroke="#040100" stroke-width="0.0938" d="M1369.95,1157.9c0.2201-0.38,0.65-1.13,0.87-1.5
		c14.89,4.62,28.4,13.1899,39.3501,24.25c9.47,10.78,17.58,22.7899,23.4099,35.9299c9.25,20.3,13.9701,42.3201,16.88,64.3401
		c3.3501,25.8999,4.0901,52.0399,5.8101,78.08c0.59,12.2,2.1799,24.33,2.91,36.53c1.5,27.12,1.37,54.3099,0.9399,81.46
		c-0.77,41.88-2.53,83.74-4.9,125.5601c-0.7899,9.48,0.15,18.99-0.1,28.5c0.42,94.1599,0.95,188.3199,1.48,282.49
		c-54.6,0.0599-109.2,0.1699-163.7999-0.0601c0.5699-47.14,0.7799-94.2999,1.2699-141.4399c0.3-55.02,0.9701-110.03,0.78-165.05
		c0.91-39,0.16-78.03,1.84-117.01c0.6201-15.35,0.6901-30.73,1.5701-46.0699c0.13-5.3101,2.67-11.1901-0.03-16.12
		c0.79-0.03,1.23-0.9701,2.0701-1.05c1.9399,7-0.54,14.12-0.67,21.1801c-0.74,24.6899-1.61,49.38-2.23,74.0699
		c-0.4501,27.34-0.1,54.6901-0.9,82.02c0.1801,54.33-0.46,108.66-0.78,162.99c-0.4,48.3199-0.74,96.65-1.22,144.98
		c53.4399-0.01,106.89,0,160.33-0.01c-0.34-95.64-0.98-191.28-1.3999-286.9299c0.0399-7.6801-0.4-15.37,0.1799-23.03
		c1.74-30.65,3.11-61.3101,4.0701-91.99c1.1399-46.3101,2.5699-92.8-2.2101-138.96c-2.09-26.3601-2.65-52.8201-5.4099-79.1201
		c-2.1901-20.83-5.6901-41.6799-12.6801-61.49c-6.1801-17.5-15.3199-34.13-27.9301-47.83
		C1398.8101,1171.02,1384.9301,1162.61,1369.95,1157.9z"/>
	<path fill="#040100" stroke="#040100" stroke-width="0.0938" d="M523.97,1176.35c8.67-7.7,18.6801-14.01,29.57-18.0399
		c0.2,0.36,0.61,1.08,0.81,1.4399c-15.0699,5.7-28.59,15.42-38.61,28.0601c-12.72,15.5099-21.33,34.0499-26.85,53.2599
		c-12.73,44.79-11.05,91.79-15.37,137.75c-7.17,68.63,1.03,137.4901,2.18,206.1901c-0.83,108.98-1.85,217.97-2.85,326.96
		c54.09-0.01,108.18,0.04,162.27-0.03c-0.01-101.49,0.02-202.98-0.01-304.47c0.34-0.47,1.04-1.4099,1.39-1.87
		c0.48,24.77,0.07,49.5801,0.21,74.37c0.0099,77.87-0.03,155.73,0.0099,233.6c-55.17,0.0601-110.34,0.03-165.51,0.02
		c0.91-110.2,2.07-220.4,2.86-330.6c-1.19-56.34-6.69-112.61-4.64-169.01c0.47-19.75,3.21-39.34,4.26-59.0599
		c1.64-27.42,2.55-54.9501,6.69-82.14c2.92-18.88,7.43-37.66,15.24-55.15C502.43,1202.29,511.9,1188.0601,523.97,1176.35z"/>
	<path fill="#100300" stroke="#100300" stroke-width="0.0938" d="M691.59,730.66c-1.21-3.66-2.69-7.27-3.14-11.1299
		c5.47,13.56,11.73,26.78,18.17,39.91c4.59,9.28,9.07,18.64,14.35,27.57c8.64,14.9,18.88,28.82,29.78,42.14
		c11.8,14.14,23.63,28.35,37.28,40.77c39.62,36.3,87.25,62.18,134.91,86.27c9.35,4.99,18.5,10.52,28.49,14.18
		c4.57,1.58,9.62,3.08,14.41,1.43c11.3199-3.54,21.5-9.83,32.3-14.61c28.87-12.62,55.0499-30.34,82.63-45.41
		c21.64-11.8,40.7-27.64,58.73-44.29c5.84-5.49,10.9399-11.69,16.29-17.64c12.8999-14.5099,26.01-28.95,37.02-44.99
		c11.6399-16.49,19.0499-35.39,28.46-53.14c1.9199-3.5,3.97-6.93,6.15-10.27c0.1599,0.08,0.48,0.24,0.64,0.32
		c-0.7001,1.61-1.4501,3.19-2.1801,4.8c-5.78,11.06-11.3,22.26-16.76,33.49c-5.58,11.93-12.67,23.09-20.52,33.65
		c-1.73,2.3-3.51,4.55-5.28,6.81c-9.08,11.59-19.25,22.27-28.75,33.51c6.7001,69.6,18.04,138.71,33.01,207
		c3.5,17.78,8.36,35.27,11.88,53.0399C1179.79,1032.75,1164.14,950.34,1155.5601,867.06c-0.75-3.56-0.0701-7.51-1.7001-10.81
		c-0.28-0.1-0.84-0.29-1.12-0.39c-9.89,12.08-22.12,21.86-33.88,32.01c-6.85,5.64-14,10.93-21.47,15.73
		c-7.3201,47.03-12.59,94.78-8.99,142.4c0.46,5.27,0.47,10.8,2.85,15.67c3.41,7.23,9.4399,12.8099,15.79,17.48
		c13.46,9.7,28.87,16.14,43.88,23c17.0299,7.9399,33.74,16.58,51.11,23.78c-0.36-3.1801-0.74-6.39-2.1901-9.26
		c0.3401,0.0299,0.7001,0.1,1.0901,0.1799c0.46,3.09,0.96,6.1801,1.5299,9.26c1.16,0.49,2.3401,0.99,3.54,1.51
		c-0.17,0.42-0.51,1.26-0.6801,1.6801c-19.7599-8.2301-38.7999-18.03-58.21-27.02c-0.3099-0.3401-0.91-1.01-1.21-1.35
		c-1.05-0.17-2.0701-0.3501-3.0701-0.54c-14.71-6.77-29.7899-13.48-42.1799-24.12c-6.6-5.73-12.38-13.27-13.27-22.23
		c-4.78-49.77,0.51-99.8201,8.01-149.04c-8.66,5.71-17.9301,10.39-26.88,15.64c-22.6901,13.09-44.91,27.19-68.94,37.77
		c-10.84,4.77-21.04,10.9901-32.31,14.75c-3.97,1.4-8.29,1.31-12.27,0.09c-11.68-3.32-22.06-9.84-32.7-15.49
		c-29.87-15.06-59.5-30.78-87.39-49.32c6.97,48.17,12.21,97.08,7.36,145.73c-0.92,9.09-6.89,16.6899-13.64,22.4399
		c-12.24,10.4-27.08,16.97-41.52,23.6901c-1.5099,0.7699-3.18,1.12-4.85,0.71c0.8-0.49,1.62-0.97,2.45-1.42
		c15.45-7.49,31.84-14.14,44.61-25.96c5.75-5.45,11.01-12.34,11.51-20.54c0.73-11.14,1.58-22.2999,1.45-33.46
		c0.71-37.7-3.83-75.26-9.42-112.47c-14.7-10.11-29.0699-20.74-42.37-32.66c-2.41-2.18-4.81-4.38-7.16-6.62
		c-12.21-11.59-23.01-24.55-33.78-37.46c-6.36-7.85-12.63-15.79-18.32-24.14c-2.0099-2.9301-4.04-5.85-5.97-8.83
		c-6.15-9.69-11.63-19.77-16.64-30.09C702.76,755.22,696.39,743.28,691.59,730.66z"/>
	<path fill="#6A4F4E" stroke="#6A4F4E" stroke-width="0.0938" d="M725.25,797.45c1.93,2.98,3.96,5.9,5.97,8.83
		c-1.8,6.75-1.74,13.8-2.5099,20.7c-1.46,15.07-2.12,30.22-3.8,45.25c-2.37-2.29-5.7599-4.53-5.72-8.19
		c0.13-5.08,0.83-10.13,0.85-15.21c1.73-0.04,3.47-0.13,5.22-0.21c-1.35-1.97-2.84-3.84-4.49-5.55
		C722.2,827.86,722.77,812.52,725.25,797.45z"/>
	<path fill="#6A4F4E" stroke="#6A4F4E" stroke-width="0.0938" d="M629.97,839c0.73-4.52,0.65-9.24,2.44-13.51
		c1.7,1.19,3.45,2.32,5.19,3.46c-0.36,6.75-1.63,13.41-2.28,20.14c-3.98,35.49-5.22,71.23-5.25,106.92
		c-0.35,11.5,0.41,23.04-0.44,34.52c-2.13-4.84-4.66-9.4901-6.67-14.38c0.38-13.72,0.29-27.45,0.43-41.1801
		C624.4,902.92,625.57,870.8,629.97,839z"/>
	<path fill="#6A4F4E" stroke="#6A4F4E" stroke-width="0.0938" d="M718.2,876.07c2.22-0.08,4.44-0.15,6.68-0.14
		c-4.9,72.35-7.86,144.82-13.9,217.08c-0.1,2.27-0.4,4.5699-1.38,6.66c-1.92-2.03-3.71-4.17-5.69-6.14
		c1.46-7.0801,1.51-14.3401,2.15-21.52C710.99,1006.75,713.8,941.36,718.2,876.07z"/>
	<path fill="#6A4F4E" stroke="#6A4F4E" stroke-width="0.0938" d="M565.46,1047.1801c-0.14-2.6801-0.04-5.37,0.23-8.02
		c2.5,2.4399,4.94,4.95,7.35,7.49c-1,5.0599-0.33,10.22-0.19,15.33c0.21,5.99,0.11,11.98,0.54,17.96
		c0.62,8.2201,0.14,16.5,1.11,24.7101c-2.99-3.17-5.31-6.86-7.68-10.49c0.05-5.39-0.1-10.77-0.42-16.14
		C565.84,1067.74,566.14,1057.4399,565.46,1047.1801z"/>
	<path fill="#6A4F4C" stroke="#6A4F4C" stroke-width="0.0938" d="M1183.3199,820.52c1.77-2.26,3.55-4.51,5.28-6.81
		c2.25,3.81,4.47,7.64,6.72,11.45c-1.84,2.39-3.6399,4.81-5.4299,7.23C1188.09,828.23,1186.35,823.95,1183.3199,820.52z"/>
	<path fill="#6B4F4E" stroke="#6B4F4E" stroke-width="0.0938" d="M1197.61,830.54c2.05,3.67,4.1901,7.42,5.09,11.58
		c-0.1899,3.19-2.48,5.73-4.3899,8.11c-2.1801-4.74-4.3201-9.49-6.51-14.21C1193.75,834.21,1195.63,832.33,1197.61,830.54z"/>
	<path fill="#6B4F4E" stroke="#6B4F4E" stroke-width="0.0938" d="M783.32,867.88c2.35,2.24,4.75,4.44,7.16,6.62
		c-1.04,9.47-0.24,19.03-0.61,28.54c-0.33,57.67-2.58,115.3-4.52,172.94c-0.09,7.86-1.13,15.73-0.65,23.61
		c-0.83,0.4501-1.65,0.9301-2.45,1.42c-0.18,0.0599-0.54,0.1799-0.72,0.25c-1.4901,0.46-2.95,0.99-4.3701,1.62
		c0.97-9.92,1.01-19.89,1.54-29.83c0.36-15.7001,1.31-31.38,1.55-47.0701c1.09-26.3,1.15-52.63,2.39-78.92
		C782.74,920.67,783.27,894.28,783.32,867.88z"/>
	<path fill="#6B4F4E" stroke="#6B4F4E" stroke-width="0.0938" d="M1215.86,905.99c2.3-0.24,4.62-0.45,6.9501-0.65
		c8.58,37.72,13.2899,76.21,17,114.67c1.4399,8.9399-2.3101,17.54-4.4401,26.0599c-1.96-14.2999-2.52-28.7499-4.45-43.0499
		c-1.9801-20.87-5.27-41.59-8.51-62.29C1220.4301,929.11,1217.6899,917.63,1215.86,905.99z"/>
	<path fill="#694F4E" stroke="#694F4E" stroke-width="0.0938" d="M1201.09,857.11c0.73-2.54,3.41-3.9,5.2101-5.66
		c2.72,4.63,3.63,10.03,6.12,14.79c-1.88,1.45-3.75,2.92-5.74,4.2c-1.9901-1.05-2.3201-3.41-3.05-5.28
		C1202.78,862.47,1201.58,859.88,1201.09,857.11z"/>
	<path fill="#040000" stroke="#040000" stroke-width="0.0938" d="M942.36,853.69c8.47-0.65,17-0.12,25.5-0.29
		c-0.04,0.53-0.11,1.59-0.15,2.12c-8.01,1.56-16.38,1.83-24.35-0.03C943.11,855.04,942.61,854.14,942.36,853.69z"/>
	<path fill="#6A504C" stroke="#6A504C" stroke-width="0.0938" d="M1208.09,878.82c2.67-0.06,5.35,0.05,8.04,0.02
		c0.88,3.28,1.71,6.59,2.53,9.91c-1.74,2.11-3.63,4.09-5.67,5.91C1211.03,889.48,1209.89,884.05,1208.09,878.82z"/>
	<path fill="#FDF4E5" stroke="#FDF4E5" stroke-width="0.0938" d="M1068.51,920.64c8.95-5.25,18.22-9.93,26.88-15.64
		c-7.5,49.22-12.79,99.27-8.01,149.04c0.89,8.96,6.67,16.5,13.27,22.23c12.39,10.64,27.47,17.35,42.1799,24.12
		c-3.45,3.15-8.3199,3.25-12.37,5.1899c-4.08,1.8101-8.58,2.4401-12.59,4.42c-7.02,2.01-14.13,3.74-21.14,5.79
		c-9.9199,2.83-20.13,4.47-30.1,7.0699c-14.25,2.6901-28.66,4.36-42.98,6.51c-14.26,1.1-28.5,2.49-42.8,2.92
		c-1.5099-0.01-3-0.01-4.48,0.02c-18.59-0.2301-37.2-0.1801-55.77-1.3201c-4.33-1.03-8.78-1.3-13.21-1.49
		c-6.48-0.91-12.95-1.71-19.35-3.04c-11.36-1.0499-22.64-2.95-33.67-5.8999c-2.21-0.6001-4.51-0.51-6.76-0.5701
		c-8.03-1.66-15.71-4.73-23.81-6.13c-4.67-1.46-9.37-2.88-14.19-3.76c-9.29-2.49-18.04-6.71-27.36-9.09
		c1.67,0.41,3.34,0.0599,4.85-0.71c14.44-6.7201,29.28-13.29,41.52-23.6901c6.75-5.75,12.72-13.35,13.64-22.4399
		c4.85-48.65-0.39-97.5601-7.36-145.73c27.89,18.54,57.52,34.26,87.39,49.32c10.64,5.65,21.02,12.17,32.7,15.49
		c3.98,1.22,8.3,1.31,12.27-0.09c11.27-3.7599,21.47-9.98,32.31-14.75C1023.6,947.83,1045.8199,933.73,1068.51,920.64z"/>
	<path fill="#FDF4E5" stroke="#FDF4E5" stroke-width="0.0938" d="M1144.17,1107.15c1.8099-0.97,2.2799-3.11,2.9399-4.87
		c19.41,8.99,38.4501,18.7899,58.21,27.02c-3.86,9.5699-10.0599,17.8999-15.46,26.62c-5.4299,8.22-10.64,16.62-16.51,24.5399
		c-9.9,10.4-20.7999,19.79-31.4399,29.41c7.52-2.53,14.88-5.54,22.1799-8.64c10.27-4.1899,19.0701-11.09,28.5-16.78
		c6.2001-3.6899,12.28-7.58,18.3-11.5699c4.4399-2.83,7.21-7.4401,10.6-11.34c5.33-6.8201,11.24-13.27,15.53-20.8301
		c4.6899,1.4701,9.47,2.66,14.28,3.7201c-6,14.7599-12.54,29.2799-18.9501,43.86c-2.86,6.76-7.13,12.7799-10.8099,19.1
		c-5.9601,10.02-12.51,19.6799-18.5801,29.64c10.51-12.23,20.29-25.0801,29.91-38.02c4.3101-5.6,7.5-11.9401,11.1-17.99
		c6.01-10.39,11.85-20.88,17.5601-31.4401c0.6699-0.7699,0.88-2.5299,2.21-2.2899c-0.04,7.27-1.83,14.51-2.9399,21.71
		c-2.9401,10.4399-6.4801,20.71-9.8,31.04c-5.6,18.7799-14.9,36.14-22.17,54.27c5.12-5.76,9.65-12.01,14.42-18.0601
		c6.53-7.88,10.83-17.25,15.9399-26.05c3.76-7.47,8.8-14.1599,13.4901-21.0499c0.08,77.33,0,154.65,0.0399,231.98
		c-21.39,2.28-42.12,8.7-63.5699,10.52c-29.4,3.21-58.79,6.4299-88.1801,9.65c-22.1799,2.3199-44.3099,5.13-66.5499,6.8199
		c-52.3801,3.79-104.9901,3.99-157.4401,1.4c-23.05-1.11-46-3.51-68.92-6.12c-35.98-3.9301-71.97-7.85-107.95-11.79
		c-23.81-2.0499-46.77-9.83-70.69-11.0499c0.04-77.77-0.07-155.54,0.05-233.3101c5.14,7.67,10.8101,15.05,14.94,23.35
		c3.76,6.5601,7.22,13.3,11.27,19.6901c6.21,8.38,12.66,16.6,19.26,24.6899c-7.56-18.41-16.93-36.13-22.67-55.24
		c-3.2-10.0699-6.59-20.09-9.59-30.22c-1.28-7.52-2.75-15.0701-3.24-22.6901c2.57,2.2101,3.8,5.42,5.43,8.3
		c7.18,13.08,14.52,26.0699,22.16,38.89c4.09,6.1799,8.8,11.9299,13.21,17.9c6.49,8.14,12.53,16.6899,19.71,24.26
		c-8.02-12.6801-16.18-25.29-23.81-38.2201c-3.69-5.72-6.12-12.09-8.92-18.25c-4.97-11.37-9.95-22.74-14.7-34.21
		c4.66-0.6899,9.21-1.9301,13.83-2.85c0.29,0.0499,0.87,0.14,1.16,0.1899c6.48,9.28,13.79,17.9601,20.97,26.6901
		c5.28,4.9199,11.88,8.15,17.82,12.1899c9.4,5.47,18.15,12.01,27.74,17.14c9.08,4.12,18.32,7.97,27.81,11.09
		c-10.98-9.24-21.5-19.0399-31.58-29.24c-6.63-8.8199-12.4-18.2799-18.48-27.48c-4.38-7.21-9.53-14.02-12.73-21.88
		c20.52-7.98,40.08-18.15,60.03-27.4199c0.77,0.98,1.7,1.7999,2.7599,2.47c8.97,3.64,18.42,5.9399,27.52,9.1899
		c4.8,2.39,10.25,2.63,15.28,4.36c4.84,1.88,10.0099,2.6901,14.99,4.14c9.54,4.03,19.96,4.64,30.07,6.2201
		c8.52,0.8099,16.77,3.3899,25.35,3.73c5.73,0.7,11.36,2.4199,17.21,1.7c2.99,0.24,6,0.28,9.02,0.3
		c8.04,0.75,16.09,1.8199,24.19,1.3199c4.85,0.55,10.02,1.14,14.3-1.76c0.49,0.13,1.48,0.41,1.98,0.55
		c-1.56,0.75-3.05,1.65-4.4,2.72c-0.16,0.16-0.48,0.49-0.64,0.65c-1.65,1.9199-2.7599,4.21-3.85,6.48
		c-0.59,0.2-1.76,0.61-2.35,0.8101c-1.18,4.6299-0.88,9.47-0.73,14.2c0.1,3.46,1.58,6.9,4.36,9.05
		c-0.01,0.3799-0.05,1.1599-0.07,1.5399c-3.37,2.59-7.53,3.92-10.76,6.72c-10.93,8.8101-17.25,22.16-20.29,35.63
		c-4.19,19.12-2.33,39.8401,6.6,57.38c4.97,9.5,12.45,18.27,22.58,22.39c7.89,3.3301,17.11,3,24.79-0.74
		c11.92-5.72,19.78-17.4,24.32-29.46c7.34-20.05,7.06-42.91-0.97-62.72c-5.2-12.5901-14.52-24.51-27.91-28.8201
		c0.55-2.0499,0.92-4.12,1.35-6.1799c1.9-6.42,1.95-13.29,0.01-19.7001c-0.52-2.86-1.51-5.6-2.81-8.1799
		c12.07-0.63,24.22,0.09,36.22-1.76c6.52-0.4601,13.02-1.27,19.53-1.91c14.76-1.41,29.37-4.09,43.91-6.97
		c10.5499-1.5601,20.7899-4.62,31.11-7.22c6.25-0.6001,11.8-3.6901,17.84-5.15c4.98-0.62,9.64-2.5601,14.4301-3.99
		C1137.41,1109.71,1140.97,1108.86,1144.17,1107.15z"/>
	<path fill="#FDF4E5" stroke="#FDF4E5" stroke-width="0.0938" d="M585.06,1152.39c12.21-1.6801,24.54-2.3,36.86-2.67
		c1.32-0.01,2.65,0,3.99,0.04c1.67,2.79,3.45,5.52,4.98,8.41c-0.09,87.96-0.03,175.9099-0.03,263.87
		c0.2,3.1799-2.26,5.77-2.25,8.9399c-0.16,5.8201,1.25,11.52,1.53,17.3201c0.64,27.23,1.67,54.45,2.44,81.6799
		c0.9,25.8201,1.41,51.67,2.53,77.49c0.03,101.49,0,202.98,0.01,304.47c-54.09,0.0701-108.18,0.02-162.27,0.03
		c1-108.99,2.02-217.98,2.85-326.96c-1.15-68.7-9.35-137.5601-2.18-206.1901c4.32-45.96,2.64-92.96,15.37-137.75
		c5.52-19.21,14.13-37.75,26.85-53.2599c10.02-12.64,23.54-22.3601,38.61-28.0601c6.45,12.89,12.87,25.8,19.69,38.5
		c-1.0099-4.46-2.84-8.66-4.39-12.9399c-3.34-9.13-6.64-18.28-9.87-27.4601c2.23-0.6799,4.46-1.33,6.71-1.96
		c4.3,5.5699,8.65,11.1,13.13,16.53c4.04,4.7999,6.77,10.51,10.2,15.75c6.25,10.0499,12.52,20.1,19.17,29.8999
		c-0.66-2.0199-1.38-4.0199-2.18-5.97c-8.42-19.59-16.28-39.4199-24.27-59.1899C583.17,1152.78,584.43,1152.52,585.06,1152.39z"/>
	<path fill="#FDF4E5" stroke="#FDF4E5" stroke-width="0.0938" d="M1297.41,1149.71l0.5499-0.4399
		c14.4601,0.53,28.9601,1.03,43.36,2.65c-8.9399,22.08-17.9299,44.1499-27.11,66.13c9.8-13.7101,18.2201-28.37,27.25-42.6001
		c5.4701-6.95,11.03-13.83,16.4401-20.83c2.0699,0.52,4.14,1.03,6.24,1.5601c-4.76,14.12-10.1801,28.0099-15.05,42.09
		c7.62-13.09,13.99-26.88,20.86-40.37c14.9801,4.71,28.8601,13.12,39.5,24.72c12.6101,13.7,21.75,30.33,27.9301,47.83
		c6.99,19.8101,10.49,40.66,12.6801,61.49c2.7599,26.3,3.3199,52.76,5.4099,79.1201c4.78,46.1599,3.35,92.6499,2.2101,138.96
		c-0.9601,30.6799-2.3301,61.34-4.0701,91.99c-0.58,7.66-0.14,15.35-0.1799,23.03c0.4199,95.6499,1.0599,191.2899,1.3999,286.9299
		c-53.4399,0.01-106.89,0-160.33,0.01c0.48-48.33,0.8199-96.66,1.22-144.98c0.3201-54.33,0.9601-108.66,0.78-162.99
		c0.8-27.33,0.45-54.6801,0.9-82.02c0.62-24.6899,1.49-49.38,2.23-74.0699c0.13-7.0601,2.61-14.1801,0.67-21.1801
		c-1.8101-3.39-5.4601-4.92-9.01-5.72c-0.0701-86.9401,0.0699-173.89-0.0701-260.8301
		C1293.3101,1156.71,1295.3199,1153.1801,1297.41,1149.71z"/>
	<path fill="#FCF5C4" stroke="#FCF5C4" stroke-width="0.0938" d="M988.6,1188.26c0.4301-0.3101,1.28-0.9401,1.7-1.25
		c6.81,8.7,11.07,19.21,13.11,30.02c3.17,16.87,1.48,34.78-5.59,50.48c-0.27-0.48-0.83-1.4301-1.1-1.91
		c4.91-11.12,6.9901-23.4,6.5-35.52C1002.57,1215.1801,998.33,1199.84,988.6,1188.26z"/>
	<path fill="#FCF5C4" stroke="#FCF5C4" stroke-width="0.0938" d="M931.83,1271.66c0.24-0.52,0.72-1.54,0.96-2.0601
		c4.72,8.39,11.61,16.02,20.7,19.66c-0.36,0.66-1.09,1.97-1.45,2.63C943.15,1287.8,936.35,1280.2,931.83,1271.66z"/>
	<path fill="#7F5A3B" stroke="#7F5A3B" stroke-width="0.0938" d="M1435.72,919.84c0.9601-2.65,2.16-5.19,3.6-7.6
		c-0.0399,1.68-0.08,3.37-0.12,5.07c-0.74,3.1-1.74,6.13-2.6799,9.19C1435.99,924.31,1435.67,922.07,1435.72,919.84z"/>
	<path fill="#7E5A3D" stroke="#7E5A3D" stroke-width="0.0938" d="M486.17,919.96c0.18-0.69,0.56-2.07,0.75-2.76
		c1.41,1.9,2.4,4.06,3.23,6.28c0.3,4.39,0.89,8.77,0.65,13.19c-1.47-3.49-2.58-7.12-3.06-10.88
		C487.95,923.77,488.45,920.99,486.17,919.96z"/>
	<path fill="#CBA589" stroke="#CBA589" stroke-width="0.0938" d="M486.17,919.96c2.28,1.03,1.78,3.81,1.57,5.83
		C486.65,924.07,485.3,922.07,486.17,919.96z"/>
	<path fill="#6A5050" stroke="#6A5050" stroke-width="0.0938" d="M833.52,1052.6801c2.93-11.01,4.62-22.4,8.75-33.05
		c0.13,11.16-0.72,22.3199-1.45,33.46c-0.5,8.2001-5.76,15.0901-11.51,20.54C829.25,1066.41,832.22,1059.6801,833.52,1052.6801z"/>
	<path fill="#6B4E50" stroke="#6B4E50" stroke-width="0.0938" d="M557.25,1042.53c-0.49-4.3101-1.18-8.61-0.99-12.9601
		c1.97,1.9701,3.97,3.91,5.96,5.88C563.05,1038.9399,560.79,1042.1,557.25,1042.53z"/>
	<path fill="#6A504E" stroke="#6A504E" stroke-width="0.0938" d="M1350.8199,1046.83c1.3501-1.33,2.6901-2.6699,4.02-4.0299
		c1.24,14.3899,2.39,28.7899,3.53,43.1899c0.21,2.5701,0.22,5.1801-0.3199,7.72c-1.8601,2.5701-3.9,5-5.64,7.64
		c-0.63-8.12-1.14-16.24-1.77-24.36C1350.2,1066.9399,1347.58,1056.6899,1350.8199,1046.83z"/>
	<path fill="#6A504E" stroke="#6A504E" stroke-width="0.0938" d="M1316.5699,1120.75c0.7301-3.4301,3.25-6.16,5.2401-8.9399
		c3.3199,12.2899,5.4199,24.8899,8.12,37.34c-2.5701-0.22-5.12-0.38-7.6801-0.51
		C1320.79,1139.25,1318.3,1130.0601,1316.5699,1120.75z"/>
	<path fill="#6C4E4D" stroke="#6C4E4D" stroke-width="0.0938" d="M657.32,1097.14c-3.48-6.73-3.38-14.61-4.05-21.98
		c1.43,3.37,3.27,6.6,4.33,10.13C658.3,1089.2,657.91,1093.23,657.32,1097.14z"/>
	<path fill="#6B4D4C" stroke="#6B4D4C" stroke-width="0.0938" d="M1386,1112.9301c1.4399-5.7401,2.67-11.67,5.48-16.91
		c0.11,4.64,0.63,9.3199,0.21,13.96C1391.17,1112.6899,1388.3,1113.15,1386,1112.9301z"/>
	<path fill="#6B4E4E" stroke="#6B4E4E" stroke-width="0.0938" d="M1254.6899,1109.48c2.1101-4.16,4.16-8.36,6.04-12.63
		c0.04,4.47-0.04,8.9601,0.23,13.4401c-1.83,2.5499-3.61,5.1499-5.5299,7.64c-0.78,0.63-1.54,1.2799-2.28,1.95
		C1253.3199,1116.38,1253.03,1112.6899,1254.6899,1109.48z"/>
	<path fill="#0B0000" stroke="#0B0000" stroke-width="0.0938" d="M777.16,1102.88c1.42-0.63,2.88-1.16,4.3701-1.62
		c-0.78,0.92-1.59,1.8099-2.44,2.67c-19.95,9.2699-39.51,19.4399-60.03,27.4199c-0.24-0.28-0.71-0.86-0.94-1.14
		C738.07,1121.71,757.64,1112.34,777.16,1102.88z"/>
	<path fill="#0B0000" stroke="#0B0000" stroke-width="0.0938" d="M1237.84,1139.42c1.52,0.2799,3,0.6499,4.53,1.0599
		c2.5699,0.7001,5.16,1.3301,7.77,1.9c0.4399,0.11,1.3099,0.3099,1.75,0.42c-0.15,0.3999-0.4401,1.22-0.59,1.63
		c-4.8101-1.0601-9.5901-2.25-14.28-3.7201C1237.23,1140.39,1237.63,1139.74,1237.84,1139.42z"/>
	<path fill="#0B0000" stroke="#0B0000" stroke-width="0.0938" d="M952.87,1146c1.09-2.27,2.2-4.5601,3.85-6.48
		c-0.45,0.89-0.8799,1.7999-1.29,2.72c-5.17,8.42-3.52,18.83-0.85,27.79l-0.43,0.03c-0.66-2.67-1.52-5.27-2.22-7.91
		c-0.35-4.0601-0.37-8.14-0.08-12.1901C952.14,1148.62,952.48,1147.3,952.87,1146z"/>
	<path fill="#0B0000" stroke="#0B0000" stroke-width="0.0938" d="M671.83,1143.96c5.06-0.8999,10.06-2.0699,15.09-3.14
		c-0.14,0.4601-0.43,1.37-0.57,1.8301c-4.62,0.9199-9.17,2.16-13.83,2.85C672.35,1145.12,672,1144.35,671.83,1143.96z"/>
	<path fill="#0B0000" stroke="#0B0000" stroke-width="0.0938" d="M1297.41,1149.71c0.7-0.9299,1.2799-2.33,2.7-2.01
		c7.38,0.12,14.76,0.6101,22.14,0.9401c2.5601,0.13,5.11,0.29,7.6801,0.51c4.0099,0.2999,8.0099,0.71,12.0099,1.2
		c-0.1599,0.39-0.47,1.1801-0.62,1.5701c-14.3999-1.62-28.8999-2.12-43.36-2.65L1297.41,1149.71z"/>
	<path fill="#0B0000" stroke="#0B0000" stroke-width="0.0938" d="M592,1149.84c11.24-0.95,22.55-2.01,33.84-1.6799
		c-1.26,0.65-2.51,1.3199-3.92,1.5599c-12.32,0.37-24.65,0.99-36.86,2.67c-0.92-0.0601-2.75-0.2001-3.67-0.27
		C584.48,1150,588.45,1150.42,592,1149.84z"/>
	<path fill="#0B0000" stroke="#0B0000" stroke-width="0.0938" d="M1357.9,1154.62c0.2899-0.36,0.86-1.1,1.15-1.47
		c1.86,0.4399,3.76,0.89,5.6499,1.35c-0.1399,0.42-0.4199,1.26-0.5599,1.6801C1362.04,1155.65,1359.97,1155.14,1357.9,1154.62z"/>
	<path fill="#0B0000" stroke="#0B0000" stroke-width="0.0938" d="M559.23,1156.28c2.03-0.63,4.05-1.28,6.11-1.77
		c0.29,0.35,0.86,1.04,1.15,1.38c-2.25,0.63-4.48,1.28-6.71,1.96C559.65,1157.46,559.37,1156.67,559.23,1156.28z"/>
	<path fill="#0B0000" stroke="#0B0000" stroke-width="0.0938" d="M943.32,1178.3199c3.23-2.7999,7.39-4.13,10.76-6.72
		c0.31,0.53,0.92,1.5701,1.23,2.09c-8.71,2.8501-15.82,9.2301-20.76,16.8201c-2.8,4.35-5.18,9-6.89,13.89
		c-2.74,7.16-4.19,14.78-4.78,22.41c-0.36,4.4299-0.37,8.8999-0.01,13.34c0.93,10.9299,3.54,21.89,8.96,31.51
		c4.52,8.5399,11.32,16.14,20.21,20.23c4.79,2.17,10.19,2.86,15.41,2.2c6.05-0.8199,11.82-3.5399,16.44-7.52
		c5.9-5.2999,10.81-11.75,13.93-19.0599c7.07-15.7,8.76-33.61,5.59-50.48c-2.04-10.8101-6.3-21.3201-13.11-30.02
		c-2.72-3.5601-6.07-6.59-9.7-9.17c-2.94-1.98-6.25-3.2799-9.5-4.6c0.34-0.3099,1.01-0.9399,1.34-1.26
		c13.39,4.3101,22.71,16.23,27.91,28.8201c8.03,19.8099,8.31,42.6699,0.97,62.72c-4.54,12.0599-12.4,23.74-24.32,29.46
		c-7.68,3.74-16.9,4.0701-24.79,0.74c-10.13-4.12-17.61-12.89-22.58-22.39c-8.93-17.5399-10.79-38.26-6.6-57.38
		C926.07,1200.48,932.39,1187.13,943.32,1178.3199z"/>
	<path fill="#0B0000" stroke="#0B0000" stroke-width="0.0938" d="M960.25,1177.8c2.89,0.74,6.04,0.36,8.15-1.9301
		c3.75,0.86,7.41,2.16,10.72,4.16c3.59,2.1899,6.7,5.08,9.48,8.23c9.73,11.58,13.97,26.92,14.62,41.8199
		c0.4901,12.12-1.59,24.4-6.5,35.52c-3.42,6.8-7.56,13.48-13.59,18.27c-5.97,4.74-13.4,7.79-21.12,7.3
		c-2.9-0.38-5.77-0.9401-8.52-1.91c-9.09-3.64-15.98-11.27-20.7-19.66c-10.09-19.3199-11.12-42.76-4.11-63.26
		c2.24-5.83,5.11-11.46,8.99-16.38c4.04-5.0699,9.09-9.46,15.07-12.08C955.19,1176.92,958.23,1175.17,960.25,1177.8 M957.16,1178.38
		c-5.23,0.85-9.5699,4.1899-13.49,7.53c-2.67,2.6699-5.03,5.62-7.19,8.72c-9.98,15.71-12.08,35.35-9.18,53.4399
		c2.17,10.29,5.48,21.1101,13.03,28.8c1.03,2.25,3.17,3.75,4.95,5.41c3.84,3.4,8.55,5.5599,13.46,6.9399
		c2.2,0.12,4.4,0.26,6.61,0.41c2.09-0.4301,4.19-0.86,6.3-1.22c3.04-1.17,5.89-2.75,8.65-4.4501c2.01-1.7999,4.53-3.2799,5.7-5.8099
		c4.24-3.6,6.93-8.76,9.04-13.8201c7.88-16.84,8.18-36.61,3-54.2799c-1.62-3.9301-2.52-8.37-5.38-11.63
		c-0.33-2.4301-2.02-4.25-3.5699-5.9801c-2.07-3.3799-4.78-6.3099-7.92-8.6899c-2.94-2.21-6.17-3.99-9.55-5.39
		c-0.64-0.02-1.9-0.04-2.53-0.0499c-1.34,0.2999-2.6801,0.5099-4.01,0.73C962.44,1178.86,959.77,1177.49,957.16,1178.38z"/>
	<path fill="#FAD042" stroke="#FAD042" stroke-width="0.0938" d="M922.87,1240.15c-0.36-4.4401-0.35-8.91,0.01-13.34
		C923.35,1231.24,923.22,1235.7,922.87,1240.15z"/>
	<path fill="#6B4F4D" stroke="#6B4F4D" stroke-width="0.0938" d="M569.58,1117.29c-0.74-4.9601-2.24-9.87-1.94-14.9301
		c2.19,2.24,4.45,4.42,6.81,6.5c0.69,9.1,1.67,18.23,1.38,27.37C572.84,1130.26,570.58,1123.9,569.58,1117.29z"/>
	<path fill="#71524D" stroke="#71524D" stroke-width="0.0938" d="M1353.36,1116.01c-0.3099-4.2-2.16-10,2.7001-12.27
		C1355.6899,1107.91,1355.14,1112.16,1353.36,1116.01z"/>
	<path fill="#FCDE7A" stroke="#FCDE7A" stroke-width="0.0938" d="M922.88,1226.8101c0.59-7.63,2.04-15.25,4.78-22.41
		c0.25,0.49,0.77,1.45,1.02,1.9399c-7.01,20.5-5.98,43.9401,4.11,63.26c-0.24,0.52-0.72,1.54-0.96,2.0601
		c-5.42-9.62-8.03-20.5801-8.96-31.51C923.22,1235.7,923.35,1231.24,922.88,1226.8101z"/>
	<path fill="#FCEB9D" stroke="#FCEB9D" stroke-width="0.0938" d="M934.55,1190.51c1.03-0.2,2.07-0.38,3.12-0.55
		c-3.88,4.92-6.75,10.55-8.99,16.38c-0.25-0.49-0.77-1.45-1.02-1.9399C929.37,1199.51,931.75,1194.86,934.55,1190.51z"/>
	<path fill="#E7CF80" stroke="#E7CF80" stroke-width="0.0938" d="M980.6,1177.84c3.63,2.5801,6.98,5.61,9.7,9.17
		c-0.42,0.3099-1.27,0.9399-1.7,1.25c-2.78-3.15-5.89-6.04-9.48-8.23C979.49,1179.48,980.23,1178.38,980.6,1177.84z"/>
	<path fill="#6C4D4F" stroke="#6C4D4F" stroke-width="0.0938" d="M1259.8,1115.52c0.24,2.96-0.6901,5.8099-1.67,8.5699
		c-2.0699,5.73-3.2,11.8201-6.0601,17.26c-0.0699-5.16,0.05-10.34,0.63-15.46c0.1801-3.24,2.6801-5.53,4.65-7.83
		C1258.16,1117.21,1258.98,1116.36,1259.8,1115.52z"/>
	<path fill="#6C504E" stroke="#6C504E" stroke-width="0.0938" d="M1242.52,1131.49c1.33-3.27,3.54-6.0699,5.95-8.61
		c-0.23,6.54,1.0901,13,1.67,19.5c-2.61-0.5699-5.2001-1.2-7.77-1.9C1242.4,1137.48,1241.96,1134.4399,1242.52,1131.49z"/>
	<path fill="#E6D292" stroke="#E6D292" stroke-width="0.0938" d="M983.13,1283.87c6.03-4.79,10.17-11.47,13.59-18.27
		c0.27,0.48,0.83,1.4301,1.1,1.91c-3.12,7.3099-8.03,13.76-13.93,19.0599C983.7,1285.89,983.32,1284.54,983.13,1283.87z"/>
	<linearGradient id="SVGID_1_" gradientUnits="userSpaceOnUse" x1="779.0901" y1="1123.245" x2="1147.11" y2="1123.245">
		<stop  offset="0" style="stop-color:#BA8B01"/>
		<stop  offset="0.0438" style="stop-color:#CDAA37"/>
		<stop  offset="0.1121" style="stop-color:#E8D886"/>
		<stop  offset="0.1607" style="stop-color:#F8F4B8"/>
		<stop  offset="0.1847" style="stop-color:#FFFFCB"/>
		<stop  offset="0.2986" style="stop-color:#FFFFCB"/>
		<stop  offset="0.3078" style="stop-color:#FDF9C1"/>
		<stop  offset="0.3415" style="stop-color:#F5E6A0"/>
		<stop  offset="0.374" style="stop-color:#F0D989"/>
		<stop  offset="0.4043" style="stop-color:#EDD17B"/>
		<stop  offset="0.4303" style="stop-color:#ECCE76"/>
		<stop  offset="0.4892" style="stop-color:#A26F14"/>
		<stop  offset="0.6051" style="stop-color:#A26F14"/>
		<stop  offset="0.6074" style="stop-color:#A67418"/>
		<stop  offset="0.624" style="stop-color:#C19234"/>
		<stop  offset="0.6402" style="stop-color:#D4A848"/>
		<stop  offset="0.6558" style="stop-color:#E0B654"/>
		<stop  offset="0.6699" style="stop-color:#E4BA58"/>
		<stop  offset="0.6716" style="stop-color:#D9A94D"/>
		<stop  offset="0.6756" style="stop-color:#C38737"/>
		<stop  offset="0.6793" style="stop-color:#B36F27"/>
		<stop  offset="0.6828" style="stop-color:#A9601D"/>
		<stop  offset="0.6857" style="stop-color:#A65B1A"/>
		<stop  offset="0.6954" style="stop-color:#AA6222"/>
		<stop  offset="0.7104" style="stop-color:#B57637"/>
		<stop  offset="0.7287" style="stop-color:#C6965B"/>
		<stop  offset="0.7498" style="stop-color:#DEC38B"/>
		<stop  offset="0.7728" style="stop-color:#FDFCC9"/>
		<stop  offset="0.7741" style="stop-color:#FFFFCD"/>
		<stop  offset="0.7957" style="stop-color:#FFFFCD"/>
		<stop  offset="0.8468" style="stop-color:#E5BD5D"/>
		<stop  offset="0.8861" style="stop-color:#BB913B"/>
		<stop  offset="0.9116" style="stop-color:#BB913B"/>
		<stop  offset="0.9147" style="stop-color:#BE9337"/>
		<stop  offset="0.925" style="stop-color:#C39830"/>
		<stop  offset="0.9509" style="stop-color:#C5992E"/>
		<stop  offset="1" style="stop-color:#7F470A"/>
	</linearGradient>
	<path fill="url(#SVGID_1_)" stroke="#CFA858" stroke-width="0.0938" d="M1145.9,1100.9301c-1.05-0.17-2.0701-0.3501-3.0701-0.54
		c-3.45,3.15-8.3199,3.25-12.37,5.1899c-4.08,1.8101-8.58,2.4401-12.59,4.42c-7.02,2.01-14.13,3.74-21.14,5.79
		c-9.9199,2.83-20.13,4.47-30.1,7.0699c-14.25,2.6901-28.66,4.36-42.98,6.51c-14.26,1.1-28.5,2.49-42.8,2.92
		c-1.5099-0.01-3-0.01-4.48,0.02c-18.59-0.2301-37.2001-0.1801-55.77-1.3201c-4.33-1.03-8.7799-1.3-13.21-1.49
		c-6.4801-0.91-12.9501-1.71-19.35-3.04c-11.3601-1.0499-22.64-2.95-33.67-5.8999c-2.2101-0.6001-4.51-0.51-6.76-0.5701
		c-8.0299-1.66-15.7098-4.73-23.8099-6.13l0,0c-4.67-1.46-9.3701-2.88-14.1901-3.76c-9.2899-2.49-18.0399-6.71-27.36-9.09
		c-0.1799,0.0599-0.54,0.1799-0.72,0.25c-0.78,0.92-1.5901,1.8099-2.4399,2.67c0.7699,0.98,1.7,1.7999,2.7599,2.47
		c8.9701,3.64,18.42,5.9399,27.52,9.1899c4.7999,2.39,10.25,2.63,15.28,4.36c4.84,1.88,10.0099,2.6901,14.99,4.14
		c9.5399,4.03,19.96,4.64,30.0699,6.2201c8.52,0.8099,16.77,3.3899,25.3501,3.73c5.73,0.7,11.3599,2.4199,17.21,1.7
		c2.99,0.24,6,0.28,9.02,0.3c8.04,0.75,16.09,1.8199,24.1899,1.3199c4.8501,0.55,10.02,1.14,14.3-1.76
		c0.49,0.13,1.48,0.41,1.98,0.55c0.55-0.01,1.6599-0.05,2.21-0.0601c3.89,0.74,6.8401,3.85,8.45,7.3301
		c0.4701,0.88,0.9301,1.7699,1.3801,2.6799c-0.52-2.86-1.51-5.6-2.8101-8.1799c12.0701-0.63,24.22,0.09,36.22-1.76
		c6.52-0.4601,13.02-1.27,19.53-1.91c14.76-1.41,29.37-4.09,43.91-6.97c10.5499-1.5601,20.7899-4.62,31.11-7.22
		c6.25-0.6001,11.8-3.6901,17.84-5.15c4.98-0.62,9.64-2.5601,14.4301-3.99c3.38-1.2101,6.9399-2.0601,10.14-3.77
		c1.8099-0.97,2.2799-3.11,2.9399-4.87C1146.8,1101.9399,1146.2,1101.27,1145.9,1100.9301z M836.4302,1120.7402
		c0.6539,0.0103,1.3083-0.0029,1.9631-0.0483C837.7385,1120.7373,837.0841,1120.7505,836.4302,1120.7402z M851.8927,1125.0349
		c0.682,0.0076,1.3646-0.0012,2.0475-0.0305C853.2573,1125.0337,852.5747,1125.0425,851.8927,1125.0349z"/>
	<path fill="#CFA858" stroke="#CFA858" stroke-width="0.0938" d="M968.4,1175.87c0.9-0.89,1.78-1.77,2.7-2.63
		c3.25,1.3201,6.56,2.62,9.5,4.6c-0.37,0.54-1.11,1.64-1.48,2.1901C975.81,1178.03,972.15,1176.73,968.4,1175.87z"/>
	<linearGradient id="SVGID_2_" gradientUnits="userSpaceOnUse" x1="952.0574" y1="1155.575" x2="972.9609" y2="1155.575">
		<stop  offset="0" style="stop-color:#071747"/>
		<stop  offset="0.0545" style="stop-color:#001957"/>
		<stop  offset="0.0567" style="stop-color:#001D5C"/>
		<stop  offset="0.0713" style="stop-color:#00337B"/>
		<stop  offset="0.0856" style="stop-color:#004291"/>
		<stop  offset="0.0993" style="stop-color:#004C9E"/>
		<stop  offset="0.1116" style="stop-color:#004FA3"/>
		<stop  offset="0.1333" style="stop-color:#004797"/>
		<stop  offset="0.1726" style="stop-color:#003077"/>
		<stop  offset="0.2027" style="stop-color:#001C5A"/>
		<stop  offset="0.2369" style="stop-color:#001C5A"/>
		<stop  offset="0.2607" style="stop-color:#002F75"/>
		<stop  offset="0.2954" style="stop-color:#004696"/>
		<stop  offset="0.3144" style="stop-color:#004FA3"/>
		<stop  offset="0.3485" style="stop-color:#0148A0"/>
		<stop  offset="0.5125" style="stop-color:#0059BA"/>
		<stop  offset="0.5193" style="stop-color:#0161C0"/>
		<stop  offset="0.5297" style="stop-color:#0377D0"/>
		<stop  offset="0.5425" style="stop-color:#069BE9"/>
		<stop  offset="0.5513" style="stop-color:#08B7FE"/>
		<stop  offset="0.5557" style="stop-color:#17BBFE"/>
		<stop  offset="0.5642" style="stop-color:#3DC7FE"/>
		<stop  offset="0.5759" style="stop-color:#7CD9FE"/>
		<stop  offset="0.5902" style="stop-color:#D1F3FF"/>
		<stop  offset="0.5968" style="stop-color:#FBFFFF"/>
		<stop  offset="0.6264" style="stop-color:#FBFFFF"/>
		<stop  offset="0.6674" style="stop-color:#11BFFA"/>
		<stop  offset="0.6731" style="stop-color:#0EACEE"/>
		<stop  offset="0.6879" style="stop-color:#0680D1"/>
		<stop  offset="0.6994" style="stop-color:#0264BF"/>
		<stop  offset="0.7061" style="stop-color:#005AB8"/>
		<stop  offset="0.7813" style="stop-color:#00215E"/>
		<stop  offset="0.8041" style="stop-color:#00215E"/>
		<stop  offset="0.8542" style="stop-color:#005AB8"/>
		<stop  offset="0.8975" style="stop-color:#00408D"/>
		<stop  offset="0.9431" style="stop-color:#00408D"/>
		<stop  offset="0.9458" style="stop-color:#04418D"/>
		<stop  offset="0.9667" style="stop-color:#1E498E"/>
		<stop  offset="0.9854" style="stop-color:#2E4E8F"/>
		<stop  offset="1" style="stop-color:#34508F"/>
	</linearGradient>
	<path fill="url(#SVGID_2_)" stroke="#0F064F" stroke-width="0.0938" d="M972.4199,1143.42
		c-1.6099-3.4801-4.5599-6.5901-8.45-7.3301c-0.55,0.01-1.6599,0.05-2.21,0.0601c-1.5601,0.75-3.05,1.65-4.4,2.72
		c-0.16,0.16-0.48,0.49-0.64,0.65c-0.45,0.89-0.8799,1.7999-1.29,2.72c-5.1699,8.42-3.52,18.83-0.8499,27.79
		c1.2,1.1599,2.3398,2.38,3.5499,3.5699l1.11,0.41c1.66,0.45,3.3401,0.75,5.05,1.05c2.9299-0.25,5.49-1.9801,6.84-4.5801
		C973.04,1161.61,973.4299,1152.42,972.4199,1143.42z"/>
	<path fill="#01010F" stroke="#01010F" stroke-width="0.0938" d="M972.42,1143.42c0.47,0.88,0.93,1.7699,1.38,2.6799
		c1.94,6.41,1.89,13.28-0.01,19.7001c-0.84,1.58-1.74,3.13-2.66,4.6799C973.04,1161.61,973.43,1152.42,972.42,1143.42z"/>
	<path fill="#01010F" stroke="#01010F" stroke-width="0.0938" d="M630.89,1158.17c0.75,1.37,1.53,2.7699,2.37,4.12
		c-0.93,3.85-0.79,7.8099-0.72,11.74c-0.03,57.99-0.0099,115.97-0.0099,173.95c0.1299,25.26-0.27,50.54,0.1899,75.8
		c5.01-0.01,10.02-0.02,15.03,0.01c-0.13-75.9301,0.01-151.86-0.06-227.79c-0.08-3.5601-0.17-7.16,0.63-10.64
		c0.29,0.47,0.87,1.42,1.15,1.89c-0.12,77.77-0.0099,155.54-0.05,233.3101c23.92,1.22,46.88,9,70.69,11.0499
		c35.98,3.9401,71.97,7.86,107.95,11.79c22.92,2.61,45.87,5.01,68.92,6.12c52.45,2.59,105.06,2.39,157.4401-1.4
		c22.24-1.6899,44.37-4.5,66.5499-6.8199c29.39-3.2201,58.78-6.4401,88.1801-9.65c21.45-1.8201,42.1799-8.24,63.5699-10.52
		c-0.0399-77.33,0.04-154.65-0.0399-231.98c0.2899-0.48,0.86-1.4401,1.1399-1.92c0.8401,3.5,0.63,7.12,0.6001,10.71
		c-0.01,75.28,0.0399,150.55-0.04,225.8301c5.09-0.01,10.1801,0.02,15.27,0.02c-0.16-86.9301-0.0601-173.87-0.05-260.8
		c0.41-0.7,1.22-2.1,1.62-2.8c0.14,86.9401,0,173.89,0.0701,260.8301c3.5499,0.7999,7.2,2.33,9.01,5.72
		c-0.8401,0.08-1.28,1.02-2.0701,1.05c-6.66,47.2999-13.98,94.52-20.9,141.7799c-17,114.67-34.09,229.3301-51.0599,344.01
		c-158.5601,0.0601-317.12,0.02-475.68,0.02c-20.94-87.38-42.01-174.72-62.98-262.09c-18.22-75.48-36.21-151.03-54.54-226.48
		c-4.9,4.3199-2.06,11.4-1.93,16.97c-0.3,2.09-0.72,4.1801-1,6.3c-0.28-5.8-1.69-11.5-1.53-17.3201
		c-0.01-3.1699,2.45-5.76,2.25-8.9399C630.86,1334.08,630.8,1246.13,630.89,1158.17 M649.73,1422.67
		c-0.11,0.6899-0.32,2.08-0.42,2.7699c-4.71,0.53-9.72-0.87-14.19,0.9601c7.73,30.6899,14.84,61.53,22.33,92.28
		c31.56,131.0399,62.96,262.13,94.58,393.1599c157.58,0.01,315.1599,0.0901,472.75-0.0499
		c23.26-156.79,46.5699-313.5701,69.8199-470.36c0.6801-5.4,2-10.75,2.04-16.1901c-1.12-1.51-3.25-1.5-4.87-2.03
		c-0.1901,0.5-0.5801,1.49-0.78,1.99c-5.97,0.5901-12.0599,0.5-18.04,0.0701c-0.1599-0.5-0.47-1.51-0.63-2.02
		c-13.6699,0.75-26.9299,4.5-40.37,6.84c-9.88,2.1-19.97,2.9401-29.99,4.1c-45.9299,4.9401-91.85,10.1901-137.7999,14.9301
		c-28.66,2.4301-57.4,3.47-86.16,3.6901c-8.65,0.96-17.31-0.2101-25.97-0.04c-29.07-0.09-58.11-1.27-87.07-3.7001
		c-51.67-5.37-103.28-11.2-154.92-16.87c-13.34-2.0399-26.5099-5.09-39.8-7.4299C663.44,1423.86,656.62,1422.15,649.73,1422.67z"/>
	<path fill="#5A3D35" stroke="#5A3D35" stroke-width="0.0938" d="M1263.21,1145.21l0.8501-0.4399
		C1266.55,1145.39,1263.12,1147.34,1263.21,1145.21z"/>
	<path fill="#230503" stroke="#230503" stroke-width="0.0938" d="M659.27,1146.26C659.81,1146.78,659.81,1146.78,659.27,1146.26z"/>
	<path fill="#E9D69E" stroke="#E9D69E" stroke-width="0.0938" d="M950.52,1146.8101c0.59-0.2001,1.76-0.6101,2.35-0.8101
		c-0.39,1.3-0.73,2.62-1.02,3.96c-0.89,4-1.05,8.2101,0.08,12.1901c0.7,2.64,1.56,5.24,2.22,7.91c-2.78-2.15-4.26-5.5901-4.36-9.05
		C949.64,1156.28,949.34,1151.4399,950.52,1146.8101z"/>
	<path fill="#2D3191" stroke="#2D3191" stroke-width="0.0938" d="M633.26,1162.29c5.08,7.6499,9.96,15.4299,15.06,23.0699
		c-0.8,3.48-0.71,7.08-0.63,10.64c0.07,75.9301-0.07,151.86,0.06,227.79c-5.01-0.03-10.02-0.02-15.03-0.01
		c-0.46-25.26-0.06-50.54-0.1899-75.8c0-57.98-0.02-115.96,0.0099-173.95C632.47,1170.1,632.33,1166.14,633.26,1162.29z"/>
	<path fill="#2E3191" stroke="#2E3191" stroke-width="0.0938" d="M1281.04,1175.6899c2.2899-4.61,5.97-8.2899,8.5599-12.7
		c-0.01,86.9301-0.11,173.87,0.05,260.8c-5.09,0-10.1801-0.03-15.27-0.02c0.08-75.28,0.03-150.55,0.04-225.8301
		c0.0299-3.59,0.24-7.21-0.6001-10.71C1276.21,1183.37,1279.02,1179.77,1281.04,1175.6899z"/>
	<path fill="#A49E89" stroke="#A49E89" stroke-width="0.0938" d="M971.13,1170.48c0.92-1.5499,1.82-3.1,2.66-4.6799
		c-0.43,2.0599-0.8,4.13-1.35,6.1799c-0.33,0.3201-1,0.9501-1.34,1.26c-0.92,0.86-1.8,1.74-2.7,2.63
		c-2.11,2.29-5.26,2.67-8.15,1.9301c0.37-0.37,1.13-1.1101,1.5-1.4801c-1.24-0.8899-2.46-1.7699-3.62-2.72l1.11,0.41
		c1.66,0.45,3.34,0.75,5.05,1.05C967.22,1174.8101,969.78,1173.08,971.13,1170.48z"/>
	<path fill="#EDE6AF" stroke="#EDE6AF" stroke-width="0.0938" d="M954.15,1170.0601l0.43-0.03c1.2,1.1599,2.34,2.38,3.55,3.5699
		c1.16,0.9501,2.38,1.8301,3.62,2.72c-0.37,0.37-1.13,1.1101-1.5,1.4801c-2.02-2.63-5.06-0.88-7.51,0.08
		c-5.98,2.62-11.03,7.01-15.07,12.08c-1.05,0.17-2.09,0.3501-3.12,0.55c4.94-7.59,12.05-13.97,20.76-16.8201
		c-0.31-0.5199-0.92-1.5599-1.23-2.09C954.1,1171.22,954.14,1170.4399,954.15,1170.0601z"/>
	<linearGradient id="SVGID_3_" gradientUnits="userSpaceOnUse" x1="904.6012" y1="1233.856" x2="1003.5066" y2="1233.856">
		<stop  offset="0" style="stop-color:#071747"/>
		<stop  offset="0.0545" style="stop-color:#001957"/>
		<stop  offset="0.0567" style="stop-color:#001D5C"/>
		<stop  offset="0.0713" style="stop-color:#00337B"/>
		<stop  offset="0.0856" style="stop-color:#004291"/>
		<stop  offset="0.0993" style="stop-color:#004C9E"/>
		<stop  offset="0.1116" style="stop-color:#004FA3"/>
		<stop  offset="0.1333" style="stop-color:#004797"/>
		<stop  offset="0.1726" style="stop-color:#003077"/>
		<stop  offset="0.2027" style="stop-color:#001C5A"/>
		<stop  offset="0.2369" style="stop-color:#001C5A"/>
		<stop  offset="0.2607" style="stop-color:#002F75"/>
		<stop  offset="0.2954" style="stop-color:#004696"/>
		<stop  offset="0.3144" style="stop-color:#004FA3"/>
		<stop  offset="0.3485" style="stop-color:#0148A0"/>
		<stop  offset="0.5125" style="stop-color:#0059BA"/>
		<stop  offset="0.5193" style="stop-color:#0161C0"/>
		<stop  offset="0.5297" style="stop-color:#0377D0"/>
		<stop  offset="0.5425" style="stop-color:#069BE9"/>
		<stop  offset="0.5513" style="stop-color:#08B7FE"/>
		<stop  offset="0.5557" style="stop-color:#17BBFE"/>
		<stop  offset="0.5642" style="stop-color:#3DC7FE"/>
		<stop  offset="0.5759" style="stop-color:#7CD9FE"/>
		<stop  offset="0.5902" style="stop-color:#D1F3FF"/>
		<stop  offset="0.5968" style="stop-color:#FBFFFF"/>
		<stop  offset="0.6264" style="stop-color:#FBFFFF"/>
		<stop  offset="0.6674" style="stop-color:#11BFFA"/>
		<stop  offset="0.6731" style="stop-color:#0EACEE"/>
		<stop  offset="0.6879" style="stop-color:#0680D1"/>
		<stop  offset="0.6994" style="stop-color:#0264BF"/>
		<stop  offset="0.7061" style="stop-color:#005AB8"/>
		<stop  offset="0.7813" style="stop-color:#00215E"/>
		<stop  offset="0.8041" style="stop-color:#00215E"/>
		<stop  offset="0.8542" style="stop-color:#005AB8"/>
		<stop  offset="0.8975" style="stop-color:#00408D"/>
		<stop  offset="0.9431" style="stop-color:#00408D"/>
		<stop  offset="0.9458" style="stop-color:#04418D"/>
		<stop  offset="0.9667" style="stop-color:#1E498E"/>
		<stop  offset="0.9854" style="stop-color:#2E4E8F"/>
		<stop  offset="1" style="stop-color:#34508F"/>
	</linearGradient>
	<path fill="url(#SVGID_3_)" stroke="#0F064F" stroke-width="0.0938" d="M998.04,1210.05c-1.6201-3.9301-2.52-8.37-5.3801-11.63
		c-0.3298-2.4301-2.0199-4.25-3.5698-5.9801c-2.0701-3.3799-4.78-6.3099-7.9202-8.6899c-2.9399-2.21-6.1699-3.99-9.5499-5.39
		c-0.64-0.02-1.9-0.04-2.5299-0.0499c-1.3401,0.2999-2.6802,0.5099-4.01,0.73c-2.6401-0.1801-5.3101-1.55-7.9202-0.66
		c-5.23,0.85-9.5698,4.1899-13.49,7.53c-2.6699,2.6699-5.0299,5.62-7.1899,8.72c-9.98,15.71-12.08,35.35-9.1799,53.4399
		c2.1699,10.29,5.48,21.1101,13.03,28.8c1.0299,2.25,3.1699,3.75,4.95,5.41c3.84,3.4,8.55,5.5599,13.46,6.9399
		c2.2,0.12,4.4,0.26,6.61,0.41c2.09-0.4301,4.1901-0.86,6.3-1.22c3.0399-1.17,5.89-2.75,8.65-4.4501
		c2.01-1.7999,4.53-3.2799,5.7-5.8099c4.24-3.6,6.9299-8.76,9.04-13.8201C1002.9199,1247.49,1003.22,1227.72,998.04,1210.05z"/>
	<path fill="#BF9A49" stroke="#BF9A49" stroke-width="0.0938" d="M962.01,1291.17c7.72,0.49,15.15-2.5601,21.12-7.3
		c0.19,0.67,0.57,2.02,0.76,2.7c-4.62,3.9801-10.39,6.7001-16.44,7.52C965.9,1292.67,964.12,1291.47,962.01,1291.17z"/>
	<path fill="#D8C279" stroke="#D8C279" stroke-width="0.0938" d="M953.49,1289.26c2.75,0.97,5.62,1.53,8.52,1.91
		c2.11,0.2999,3.89,1.5,5.44,2.9199c-5.22,0.66-10.62-0.0299-15.41-2.2C952.4,1291.23,953.13,1289.92,953.49,1289.26z"/>
	<path fill="#2E3192" stroke="#2E3192" stroke-width="0.0938" d="M649.73,1422.67c6.89-0.52,13.71,1.1899,20.51,2.1
		c13.29,2.34,26.46,5.39,39.8,7.4299c51.64,5.67,103.25,11.5,154.92,16.87c28.96,2.4301,58,3.6101,87.07,3.7001
		c8.66-0.17,17.3199,1,25.97,0.04c28.76-0.2201,57.5-1.26,86.16-3.6901c45.95-4.74,91.87-9.99,137.7999-14.9301
		c10.02-1.1599,20.11-2,29.99-4.1c13.4401-2.34,26.7001-6.09,40.37-6.84c0.16,0.51,0.4701,1.52,0.63,2.02
		c5.9801,0.4299,12.0701,0.52,18.04-0.0701c0.2-0.5,0.59-1.49,0.78-1.99c1.62,0.53,3.75,0.52,4.87,2.03
		c-0.04,5.4401-1.36,10.79-2.04,16.1901C1271.35,1598.22,1248.04,1755,1224.78,1911.79c-157.5901,0.14-315.17,0.0599-472.75,0.0499
		c-31.6201-131.0299-63.02-262.12-94.58-393.1599c-7.49-30.75-14.6-61.5901-22.33-92.28c4.47-1.8301,9.48-0.4301,14.19-0.9601
		C649.41,1424.75,649.62,1423.36,649.73,1422.67z"/>
	<path fill="#020100" stroke="#020100" stroke-width="0.0938" d="M631.14,1442c1.06,10.3101,0.88,20.7,1.33,31.0601
		c1.32,44.1799,2.8101,88.36,4.03,132.5399c-0.35,0.4601-1.05,1.4-1.39,1.87c-1.12-25.8199-1.63-51.6699-2.53-77.49
		c-0.77-27.23-1.8-54.45-2.44-81.6799C630.42,1446.1801,630.84,1444.09,631.14,1442z"/>
</g>
</svg>
