<?xml version="1.0" encoding="utf-8"?>
<!-- Generator: Adobe Illustrator 18.1.1, SVG Export Plug-In . SVG Version: 6.00 Build 0)  -->
<svg version="1.1" xmlns="http://www.w3.org/2000/svg" xmlns:xlink="http://www.w3.org/1999/xlink" x="0px" y="0px"
	 viewBox="0 0 20 20" enable-background="new 0 0 20 20" xml:space="preserve">
<g id="Background_xA0_Image_1_">
</g>
<g id="месяц_2_" enable-background="new    ">
</g>
<g id="месяц_и_облако_1_">
</g>
<g id="месяц_и_облако_и_гроза_1_">
</g>
<g id="месяц_и_облако_и_дождь_1_">
</g>
<g id="месяц_и_облако_и_снег_1_">
</g>
<g id="sun_2_" enable-background="new    ">
	<g id="sun">
		<g>
			<path fill="#E9CD4C" d="M3.6,14.9l-0.7,0.7c-0.4,0.4-0.4,1,0,1.4c0.4,0.4,1,0.4,1.4,0l0.7-0.7c0.4-0.4,0.4-1,0-1.4
				C4.7,14.6,4,14.6,3.6,14.9z M3.6,5.1c0.4,0.4,1,0.4,1.4,0c0.4-0.4,0.4-1,0-1.4L4.3,2.9c-0.4-0.4-1-0.4-1.4,0
				c-0.4,0.4-0.4,1,0,1.4L3.6,5.1z M3,10c0-0.6-0.4-1-1-1H1c-0.6,0-1,0.4-1,1c0,0.6,0.4,1,1,1h1C2.6,11,3,10.6,3,10z M10,3
				c0.6,0,1-0.4,1-1V1c0-0.6-0.4-1-1-1S9,0.4,9,1v1C9,2.6,9.4,3,10,3z M16.4,14.9c-0.4-0.4-1-0.4-1.4,0c-0.4,0.4-0.4,1,0,1.4
				l0.7,0.7c0.4,0.4,1,0.4,1.4,0c0.4-0.4,0.4-1,0-1.4L16.4,14.9z M19,9h-1c-0.6,0-1,0.4-1,1c0,0.6,0.4,1,1,1h1c0.6,0,1-0.4,1-1
				C20,9.4,19.6,9,19,9z M10,4c-3.3,0-6,2.7-6,6c0,3.3,2.7,6,6,6c3.3,0,6-2.7,6-6C16,6.7,13.3,4,10,4z M10,14c-2.2,0-4-1.8-4-4
				c0-2.2,1.8-4,4-4c2.2,0,4,1.8,4,4C14,12.2,12.2,14,10,14z M10,17c-0.6,0-1,0.4-1,1v1c0,0.6,0.4,1,1,1s1-0.4,1-1v-1
				C11,17.4,10.6,17,10,17z M16.4,5.1l0.7-0.7c0.4-0.4,0.4-1,0-1.4c-0.4-0.4-1-0.4-1.4,0l-0.7,0.7c-0.4,0.4-0.4,1,0,1.4
				C15.3,5.4,16,5.4,16.4,5.1z"/>
		</g>
	</g>
</g>
<g id="солнце_и_облако_1_">
</g>
<g id="солнце_и_облакоb_и_молния_1_">
</g>
<g id="снег_и_солнце_1_">
</g>
<g id="дождь_и_солнце_1_">
</g>
<g id="дождь_1_">
</g>
<g id="ливень_1_">
</g>
<g id="снег_1_">
</g>
<g id="cloud_1_" enable-background="new    ">
</g>
<g id="снег_c_дождем_1_">
</g>
<g id="с_молнией_1_">
</g>
</svg>
